<svg width="83" height="83" viewBox="0 0 83 83" fill="none" xmlns="http://www.w3.org/2000/svg">
<path d="M60.5982 19.149C55.1441 14.4364 48.1813 11.8389 41.0071 11.8405C33.833 11.8421 26.9367 14.4427 21.6031 19.1577C16.2695 23.8727 12.8625 30.3805 12.0167 37.4688C11.1709 44.5571 12.9441 51.7423 17.0058 57.6857C21.0676 63.6292 27.1409 67.9256 34.0943 69.7744C41.0477 71.6232 48.4069 70.8983 54.8008 67.7349C61.1947 64.5714 66.1872 59.1851 68.8482 52.5795C71.5092 45.9739 71.6571 38.5994 69.2645 31.8302L64.8892 33.3176C66.9064 39.0246 66.7816 45.2418 64.5382 50.8108C62.2948 56.3798 58.0858 60.9208 52.6953 63.5878C47.3048 66.2548 41.1004 66.8659 35.2383 65.3073C29.3761 63.7486 24.2558 60.1264 20.8315 55.1157C17.4071 50.1049 15.9122 44.0473 16.6253 38.0714C17.3383 32.0955 20.2107 26.6089 24.7073 22.6338C29.2039 18.6587 35.0179 16.4663 41.0663 16.4649C47.1146 16.4636 52.9847 18.6534 57.5829 22.6265L60.5982 19.149Z" fill="#5AA139"/>
<path d="M27 39.1277L38.9236 51L74 14" stroke="#5AA139" stroke-width="6" stroke-linecap="round"/>
</svg>
