<svg width="22" height="16" viewBox="0 0 22 16" fill="none" xmlns="http://www.w3.org/2000/svg">
<path d="M21.1538 5.0625C20.9294 5.0625 20.7142 5.1514 20.5555 5.30963C20.3968 5.46786 20.3077 5.68247 20.3077 5.90625V12.6562C20.3077 12.88 20.2185 13.0946 20.0599 13.2529C19.9012 13.4111 19.686 13.5 19.4615 13.5H2.53846C2.31405 13.5 2.09883 13.4111 1.94014 13.2529C1.78146 13.0946 1.69231 12.88 1.69231 12.6562V5.90625C1.69231 5.68247 1.60316 5.46786 1.44447 5.30963C1.28579 5.1514 1.07057 5.0625 0.846154 5.0625C0.62174 5.0625 0.406517 5.1514 0.247833 5.30963C0.0891481 5.46786 0 5.68247 0 5.90625V12.6562C0.000592484 13.3274 0.268426 13.9708 0.744615 14.445C1.22021 14.9198 1.86545 15.1869 2.53846 15.1875H19.4615C20.1346 15.1869 20.7798 14.9198 21.2554 14.445C21.7316 13.9708 21.9994 13.3274 22 12.6562V5.90625C22 5.68247 21.9109 5.46786 21.7522 5.30963C21.5935 5.1514 21.3783 5.0625 21.1538 5.0625Z" fill="#743FCB"/>
<path d="M10.4919 9.95625C10.6384 10.0658 10.8165 10.125 10.9996 10.125C11.1827 10.125 11.3608 10.0658 11.5073 9.95625L21.5004 2.48062C21.6562 2.3634 21.7667 2.19603 21.813 2.00688C21.8592 1.81773 21.8385 1.61844 21.7542 1.44281C21.6282 1.18321 21.4594 0.946494 21.255 0.7425C20.7794 0.267663 20.1341 0.000590801 19.4611 0H2.53804C1.86503 0.000590801 1.21979 0.267663 0.744195 0.7425C0.539726 0.946494 0.37098 1.18321 0.244964 1.44281C0.160701 1.61844 0.139943 1.81773 0.186208 2.00688C0.232474 2.19603 0.342916 2.3634 0.49881 2.48062L10.4919 9.95625ZM2.53804 1.6875H19.4611C19.5396 1.67517 19.6196 1.67517 19.698 1.6875L10.9996 8.22656L2.30112 1.6875C2.37961 1.67517 2.45955 1.67517 2.53804 1.6875Z" fill="#743FCB"/>
</svg>
