<svg width="36" height="36" viewBox="0 0 36 36" fill="none" xmlns="http://www.w3.org/2000/svg">
<circle cx="18" cy="18" r="16.5" fill="white" stroke="#C4C4C4" stroke-width="3"/>
<mask id="path-2-inside-1_1_25043" fill="white">
<path d="M36 18C36 20.761 35.3649 23.485 34.1437 25.9612C32.9226 28.4374 31.1481 30.5996 28.9577 32.2804C26.7673 33.9611 24.2196 35.1155 21.5116 35.6541C18.8037 36.1928 16.0082 36.1013 13.3413 35.3867C10.6744 34.6721 8.20759 33.3536 6.13178 31.5331C4.05596 29.7127 2.42675 27.4391 1.37017 24.8883C0.313588 22.3375 -0.142037 19.5778 0.0385394 16.8227C0.219116 14.0677 1.03105 11.3911 2.41154 9L4.93522 10.457C3.77822 12.461 3.09773 14.7043 2.94639 17.0133C2.79504 19.3224 3.17691 21.6353 4.06243 23.7731C4.94796 25.911 6.31341 27.8165 8.05317 29.3422C9.79292 30.8679 11.8603 31.973 14.0955 32.5719C16.3306 33.1708 18.6736 33.2475 20.9431 32.796C23.2126 32.3446 25.3479 31.3771 27.1837 29.9685C29.0195 28.5598 30.5067 26.7477 31.5301 24.6723C32.5536 22.597 33.0859 20.314 33.0859 18H36Z"/>
</mask>
<path d="M36 18C36 20.761 35.3649 23.485 34.1437 25.9612C32.9226 28.4374 31.1481 30.5996 28.9577 32.2804C26.7673 33.9611 24.2196 35.1155 21.5116 35.6541C18.8037 36.1928 16.0082 36.1013 13.3413 35.3867C10.6744 34.6721 8.20759 33.3536 6.13178 31.5331C4.05596 29.7127 2.42675 27.4391 1.37017 24.8883C0.313588 22.3375 -0.142037 19.5778 0.0385394 16.8227C0.219116 14.0677 1.03105 11.3911 2.41154 9L4.93522 10.457C3.77822 12.461 3.09773 14.7043 2.94639 17.0133C2.79504 19.3224 3.17691 21.6353 4.06243 23.7731C4.94796 25.911 6.31341 27.8165 8.05317 29.3422C9.79292 30.8679 11.8603 31.973 14.0955 32.5719C16.3306 33.1708 18.6736 33.2475 20.9431 32.796C23.2126 32.3446 25.3479 31.3771 27.1837 29.9685C29.0195 28.5598 30.5067 26.7477 31.5301 24.6723C32.5536 22.597 33.0859 20.314 33.0859 18H36Z" fill="white" stroke="#02A651" stroke-width="6" stroke-linejoin="round" mask="url(#path-2-inside-1_1_25043)"/>
<path d="M8.08008 17.9395L7.21289 17.7168L7.64062 13.4688H12.0176V14.4707H8.56055L8.30273 16.791C8.45898 16.7012 8.65625 16.6172 8.89453 16.5391C9.13672 16.4609 9.41406 16.4219 9.72656 16.4219C10.1211 16.4219 10.4746 16.4902 10.7871 16.627C11.0996 16.7598 11.3652 16.9512 11.584 17.2012C11.8066 17.4512 11.9766 17.752 12.0938 18.1035C12.2109 18.4551 12.2695 18.8477 12.2695 19.2812C12.2695 19.6914 12.2129 20.0684 12.0996 20.4121C11.9902 20.7559 11.8242 21.0566 11.6016 21.3145C11.3789 21.5684 11.0977 21.7656 10.7578 21.9062C10.4219 22.0469 10.0254 22.1172 9.56836 22.1172C9.22461 22.1172 8.89844 22.0703 8.58984 21.9766C8.28516 21.8789 8.01172 21.7324 7.76953 21.5371C7.53125 21.3379 7.33594 21.0918 7.18359 20.7988C7.03516 20.502 6.94141 20.1543 6.90234 19.7559H7.93359C7.98047 20.0762 8.07422 20.3457 8.21484 20.5645C8.35547 20.7832 8.53906 20.9492 8.76562 21.0625C8.99609 21.1719 9.26367 21.2266 9.56836 21.2266C9.82617 21.2266 10.0547 21.1816 10.2539 21.0918C10.4531 21.002 10.6211 20.873 10.7578 20.7051C10.8945 20.5371 10.998 20.334 11.0684 20.0957C11.1426 19.8574 11.1797 19.5898 11.1797 19.293C11.1797 19.0234 11.1426 18.7734 11.0684 18.543C10.9941 18.3125 10.8828 18.1113 10.7344 17.9395C10.5898 17.7676 10.4121 17.6348 10.2012 17.541C9.99023 17.4434 9.74805 17.3945 9.47461 17.3945C9.11133 17.3945 8.83594 17.4434 8.64844 17.541C8.46484 17.6387 8.27539 17.7715 8.08008 17.9395ZM18.8379 19.6914C18.8379 20.2109 18.7168 20.6523 18.4746 21.0156C18.2363 21.375 17.9121 21.6484 17.502 21.8359C17.0957 22.0234 16.6367 22.1172 16.125 22.1172C15.6133 22.1172 15.1523 22.0234 14.7422 21.8359C14.332 21.6484 14.0078 21.375 13.7695 21.0156C13.5312 20.6523 13.4121 20.2109 13.4121 19.6914C13.4121 19.3516 13.4766 19.041 13.6055 18.7598C13.7383 18.4746 13.9238 18.2266 14.1621 18.0156C14.4043 17.8047 14.6895 17.6426 15.0176 17.5293C15.3496 17.4121 15.7148 17.3535 16.1133 17.3535C16.6367 17.3535 17.1035 17.4551 17.5137 17.6582C17.9238 17.8574 18.2461 18.1328 18.4805 18.4844C18.7188 18.8359 18.8379 19.2383 18.8379 19.6914ZM17.748 19.668C17.748 19.3516 17.6797 19.0723 17.543 18.8301C17.4062 18.584 17.2148 18.3926 16.9688 18.2559C16.7227 18.1191 16.4375 18.0508 16.1133 18.0508C15.7812 18.0508 15.4941 18.1191 15.252 18.2559C15.0137 18.3926 14.8281 18.584 14.6953 18.8301C14.5625 19.0723 14.4961 19.3516 14.4961 19.668C14.4961 19.9961 14.5605 20.2773 14.6895 20.5117C14.8223 20.7422 15.0098 20.9199 15.252 21.0449C15.498 21.166 15.7891 21.2266 16.125 21.2266C16.4609 21.2266 16.75 21.166 16.9922 21.0449C17.2344 20.9199 17.4199 20.7422 17.5488 20.5117C17.6816 20.2773 17.748 19.9961 17.748 19.668ZM18.6387 15.6895C18.6387 16.1035 18.5293 16.4766 18.3105 16.8086C18.0918 17.1406 17.793 17.4023 17.4141 17.5938C17.0352 17.7852 16.6055 17.8809 16.125 17.8809C15.6367 17.8809 15.2012 17.7852 14.8184 17.5938C14.4395 17.4023 14.1426 17.1406 13.9277 16.8086C13.7129 16.4766 13.6055 16.1035 13.6055 15.6895C13.6055 15.1934 13.7129 14.7715 13.9277 14.4238C14.1465 14.0762 14.4453 13.8105 14.8242 13.627C15.2031 13.4434 15.6348 13.3516 16.1191 13.3516C16.6074 13.3516 17.041 13.4434 17.4199 13.627C17.7988 13.8105 18.0957 14.0762 18.3105 14.4238C18.5293 14.7715 18.6387 15.1934 18.6387 15.6895ZM17.5547 15.707C17.5547 15.4219 17.4941 15.1699 17.373 14.9512C17.252 14.7324 17.084 14.5605 16.8691 14.4355C16.6543 14.3066 16.4043 14.2422 16.1191 14.2422C15.834 14.2422 15.584 14.3027 15.3691 14.4238C15.1582 14.541 14.9922 14.709 14.8711 14.9277C14.7539 15.1465 14.6953 15.4062 14.6953 15.707C14.6953 16 14.7539 16.2559 14.8711 16.4746C14.9922 16.6934 15.1602 16.8633 15.375 16.9844C15.5898 17.1055 15.8398 17.166 16.125 17.166C16.4102 17.166 16.6582 17.1055 16.8691 16.9844C17.084 16.8633 17.252 16.6934 17.373 16.4746C17.4941 16.2559 17.5547 16 17.5547 15.707ZM20.1152 15.5605V15.1094C20.1152 14.7852 20.1855 14.4902 20.3262 14.2246C20.4668 13.959 20.668 13.7461 20.9297 13.5859C21.1914 13.4258 21.502 13.3457 21.8613 13.3457C22.2285 13.3457 22.541 13.4258 22.7988 13.5859C23.0605 13.7461 23.2617 13.959 23.4023 14.2246C23.543 14.4902 23.6133 14.7852 23.6133 15.1094V15.5605C23.6133 15.877 23.543 16.168 23.4023 16.4336C23.2656 16.6992 23.0664 16.9121 22.8047 17.0723C22.5469 17.2324 22.2363 17.3125 21.873 17.3125C21.5098 17.3125 21.1953 17.2324 20.9297 17.0723C20.668 16.9121 20.4668 16.6992 20.3262 16.4336C20.1855 16.168 20.1152 15.877 20.1152 15.5605ZM20.9297 15.1094V15.5605C20.9297 15.7402 20.9629 15.9102 21.0293 16.0703C21.0996 16.2305 21.2051 16.3613 21.3457 16.4629C21.4863 16.5605 21.6621 16.6094 21.873 16.6094C22.084 16.6094 22.2578 16.5605 22.3945 16.4629C22.5312 16.3613 22.6328 16.2305 22.6992 16.0703C22.7656 15.9102 22.7988 15.7402 22.7988 15.5605V15.1094C22.7988 14.9258 22.7637 14.7539 22.6934 14.5938C22.627 14.4297 22.5234 14.2988 22.3828 14.2012C22.2461 14.0996 22.0723 14.0488 21.8613 14.0488C21.6543 14.0488 21.4805 14.0996 21.3398 14.2012C21.2031 14.2988 21.0996 14.4297 21.0293 14.5938C20.9629 14.7539 20.9297 14.9258 20.9297 15.1094ZM24.2695 20.3652V19.9082C24.2695 19.5879 24.3398 19.2949 24.4805 19.0293C24.6211 18.7637 24.8223 18.5508 25.084 18.3906C25.3457 18.2305 25.6562 18.1504 26.0156 18.1504C26.3828 18.1504 26.6953 18.2305 26.9531 18.3906C27.2148 18.5508 27.416 18.7637 27.5566 19.0293C27.6973 19.2949 27.7676 19.5879 27.7676 19.9082V20.3652C27.7676 20.6855 27.6973 20.9785 27.5566 21.2441C27.4199 21.5098 27.2207 21.7227 26.959 21.8828C26.7012 22.043 26.3906 22.123 26.0273 22.123C25.6641 22.123 25.3516 22.043 25.0898 21.8828C24.8281 21.7227 24.625 21.5098 24.4805 21.2441C24.3398 20.9785 24.2695 20.6855 24.2695 20.3652ZM25.084 19.9082V20.3652C25.084 20.5449 25.1172 20.7168 25.1836 20.8809C25.2539 21.041 25.3594 21.1719 25.5 21.2734C25.6406 21.3711 25.8164 21.4199 26.0273 21.4199C26.2383 21.4199 26.4121 21.3711 26.5488 21.2734C26.6895 21.1719 26.793 21.041 26.8594 20.8809C26.9258 20.7207 26.959 20.5488 26.959 20.3652V19.9082C26.959 19.7246 26.9238 19.5527 26.8535 19.3926C26.7871 19.2324 26.6836 19.1035 26.543 19.0059C26.4062 18.9043 26.2305 18.8535 26.0156 18.8535C25.8086 18.8535 25.6348 18.9043 25.4941 19.0059C25.3574 19.1035 25.2539 19.2324 25.1836 19.3926C25.1172 19.5527 25.084 19.7246 25.084 19.9082ZM26.2852 14.6816L22.1191 21.3496L21.5098 20.9629L25.6758 14.2949L26.2852 14.6816Z" fill="#232740"/>
</svg>
