<svg width="20" height="14" viewBox="0 0 20 14" fill="none" xmlns="http://www.w3.org/2000/svg">
<path d="M1.75 2.875H18.25C19.009 2.875 19.625 2.259 19.625 1.5C19.625 0.741 19.009 0.125 18.25 0.125H1.75C0.991 0.125 0.375 0.741 0.375 1.5C0.375 2.259 0.991 2.875 1.75 2.875ZM18.25 5.625H1.75C0.991 5.625 0.375 6.241 0.375 7C0.375 7.759 0.991 8.375 1.75 8.375H18.25C19.009 8.375 19.625 7.759 19.625 7C19.625 6.241 19.009 5.625 18.25 5.625ZM18.25 11.125H1.75C0.991 11.125 0.375 11.741 0.375 12.5C0.375 13.259 0.991 13.875 1.75 13.875H18.25C19.009 13.875 19.625 13.259 19.625 12.5C19.625 11.741 19.009 11.125 18.25 11.125Z" fill="#743FCB"/>
</svg>
