<svg width="573" height="553" viewBox="0 0 573 553" fill="none" xmlns="http://www.w3.org/2000/svg">
<path d="M162.84 531.031C245.207 531.031 311.978 525.313 311.978 518.26C311.978 511.206 245.207 505.488 162.84 505.488C80.4739 505.488 13.7026 511.206 13.7026 518.26C13.7026 525.313 80.4739 531.031 162.84 531.031Z" fill="#9463E3"/>
<path d="M223.392 492.92C246.605 480.001 243.286 429.793 215.978 380.777C188.67 331.76 147.714 302.498 124.5 315.416C101.287 328.335 104.606 378.543 131.914 427.56C159.222 476.576 200.178 505.839 223.392 492.92Z" fill="#743FCB" fill-opacity="0.5"/>
<path d="M223.389 494.848C223.047 494.849 222.711 494.758 222.416 494.585C222.121 494.412 221.877 494.164 221.711 493.865L126.441 322.883C126.196 322.438 126.136 321.915 126.276 321.427C126.415 320.94 126.742 320.526 127.184 320.278C127.468 320.12 127.788 320.037 128.112 320.039C128.454 320.038 128.79 320.129 129.085 320.302C129.38 320.474 129.624 320.723 129.79 321.022L145.808 349.79L149.213 326.612C149.285 326.159 149.515 325.746 149.863 325.446C150.211 325.147 150.653 324.981 151.112 324.978H151.389C151.892 325.052 152.345 325.323 152.648 325.731C152.951 326.138 153.08 326.65 153.006 327.152L148.881 355.288L225.061 492.004C225.306 492.448 225.365 492.971 225.226 493.459C225.086 493.947 224.76 494.36 224.317 494.608C224.032 494.764 223.713 494.846 223.389 494.848Z" fill="#BCB6FA"/>
<path d="M488.132 432.931C513.738 383.005 516.729 333.43 494.813 322.202C472.897 310.973 434.373 342.344 408.767 392.269C383.161 442.195 380.17 491.77 402.086 502.998C424.002 514.226 462.526 482.856 488.132 432.931Z" fill="#BB96F9"/>
<path d="M452.408 376.128C466.22 315.949 455.914 262.235 429.389 256.153C402.863 250.072 370.163 293.926 356.351 354.104C342.538 414.283 352.845 467.997 379.37 474.079C405.896 480.16 438.596 436.306 452.408 376.128Z" fill="#743FCB" fill-opacity="0.5"/>
<path d="M377.53 484.159C377.385 484.158 377.241 484.142 377.1 484.11C376.606 483.996 376.177 483.691 375.907 483.262C375.638 482.83 375.549 482.309 375.662 481.813L419.252 291.879L408.189 275.858C407.901 275.44 407.791 274.926 407.882 274.427C407.973 273.929 408.258 273.487 408.674 273.198C408.993 272.973 409.373 272.853 409.762 272.854C410.073 272.854 410.379 272.93 410.654 273.074C410.929 273.219 411.165 273.427 411.342 273.683L420.432 286.829L425.7 263.885C425.793 263.465 426.027 263.089 426.362 262.819C426.697 262.549 427.113 262.4 427.544 262.398C427.689 262.398 427.834 262.417 427.974 262.453C428.468 262.567 428.897 262.873 429.167 263.302C429.436 263.732 429.525 264.25 429.412 264.745L413.143 335.63L446.776 317.287C447.057 317.133 447.372 317.053 447.692 317.054C448.119 317.051 448.534 317.191 448.872 317.452C449.21 317.713 449.451 318.079 449.556 318.492C449.661 318.906 449.625 319.343 449.453 319.733C449.282 320.124 448.984 320.445 448.608 320.647L411.999 340.612L379.374 482.673C379.281 483.093 379.047 483.469 378.712 483.739C378.377 484.009 377.961 484.157 377.53 484.159Z" fill="#BCB6FA"/>
<path d="M106.551 373.675L90.1521 349.022H27.5565V373.675V518.26H254.939V373.675H106.551Z" fill="#F7A94A"/>
<path d="M239.88 388.726H37.2679V518.254H239.88V388.726Z" fill="white"/>
<path d="M213.997 403.782H8.65018C7.32708 403.781 6.02136 404.083 4.83366 404.666C3.64596 405.249 2.608 406.096 1.79978 407.143C0.991554 408.19 0.434657 409.409 0.172001 410.705C-0.0906546 412.001 -0.0520632 413.34 0.284828 414.619L27.5567 518.26H254.939L227.557 414.244C226.768 411.249 225.011 408.599 222.558 406.707C220.106 404.814 217.096 403.786 213.997 403.782Z" fill="#FAD189"/>
<path d="M511.468 263.436H467.06V518.26H511.468V263.436Z" fill="#F7A94A"/>
<path d="M489.261 217.854L467.06 263.436H511.468L489.261 217.854Z" fill="#FFDA99"/>
<path d="M496.378 232.468L489.261 217.854L482.143 232.468H496.378Z" fill="#3C5685"/>
<path d="M478.614 263.436H477.139V518.26H478.614V263.436Z" fill="white"/>
<path d="M501.388 263.436H499.912V518.26H501.388V263.436Z" fill="white"/>
<path d="M90.4906 518.26C90.8471 499.658 104.627 486.186 105.66 473.845C107.209 455.354 96.6985 441.728 94.4489 425.044C92.4698 410.355 102.476 392.663 120.756 397.946C140.547 403.659 139.109 423.612 151.998 435.788C161.353 444.628 189.799 453.099 200.07 472.524C207.144 485.904 206.106 503.443 211.791 518.26H90.4906Z" fill="url(#paint0_linear_1_22845)"/>
<path d="M530.983 518.26C560.252 491.746 575.944 459.052 572.533 433.595C545.783 421.106 502.359 429.811 464.22 457.811C440.285 475.356 423.014 497.207 414.409 518.26H530.983Z" fill="#BB96F9"/>
<path d="M383.584 538.182C488.196 538.182 573 529.262 573 518.26C573 507.257 488.196 498.337 383.584 498.337C278.973 498.337 194.169 507.257 194.169 518.26C194.169 529.262 278.973 538.182 383.584 538.182Z" fill="#9463E3"/>
<path d="M555.089 359.134C556.994 349.495 549.772 342.203 540.639 340.92C530.559 339.501 520.091 344.169 513.68 351.916C506.692 360.369 502.045 377.772 494.466 385.605C475.83 404.876 459.432 393.972 441.336 407.61C425.774 419.331 432.264 436.562 421.262 453.204C412.553 466.381 387.666 475.111 381.501 495.868C379.042 504.198 378.999 511.668 380.566 518.26H526.889C527.594 514.91 527.92 511.491 527.86 508.069C527.639 489.639 510.263 475.154 525.678 457.308C530.27 452 546.029 444.143 550.313 433.841C557.56 416.419 539.987 398.585 541.678 386.489C543.153 376.058 553.067 369.375 555.089 359.134Z" fill="url(#paint1_linear_1_22845)"/>
<path d="M437.501 428.054H175.754V431.74H177.537C181.378 431.74 182.146 440.088 182.146 450.046C182.146 459.464 181.237 468.353 177.229 468.353H175.748V472.039H437.034C442.148 472.039 443.463 462.824 443.463 451.392C443.47 439.376 442.775 428.054 437.501 428.054Z" fill="#F23E6E"/>
<path d="M325.9 428.054H175.754V431.74H177.537C181.378 431.74 182.146 440.088 182.146 450.046C182.146 459.464 181.237 468.353 177.229 468.353H175.748V472.039H325.414C330.141 472.039 331.696 463.838 331.696 450.593C331.696 437.527 330.62 428.054 325.9 428.054Z" fill="#BF2251"/>
<path d="M322.864 431.74H177.537C181.378 431.74 182.146 440.088 182.146 450.046C182.146 459.347 181.255 468.126 177.377 468.341H322.562C326.564 468.341 327.48 459.451 327.48 450.034C327.473 440.07 326.711 431.74 322.864 431.74Z" fill="#DADADA"/>
<path d="M420.095 423.962C417.747 423.962 416.278 417.991 416.278 409.655C416.278 402.074 417.783 396.988 420.095 396.988H423.168V392.921H165.072C162.355 392.921 159.411 398.069 159.411 410.472C159.411 422.47 162.693 428.029 165.459 428.029H423.149V423.962H420.095Z" fill="#2A3D5E"/>
<path d="M420.094 423.962C417.746 423.962 416.277 417.991 416.277 409.655C416.277 402.074 417.783 396.988 420.094 396.988H423.167V392.921H282.555V428.054H423.149V423.987L420.094 423.962Z" fill="#232E4D"/>
<path d="M416.253 409.655C416.253 402.075 417.759 396.988 420.07 396.988H167.266C164.955 396.988 163.455 402.075 163.455 409.655C163.455 417.991 164.918 423.963 167.266 423.963H420.094C417.746 423.963 416.253 417.991 416.253 409.655Z" fill="white"/>
<path d="M416.253 409.655C416.253 402.075 417.759 396.988 420.07 396.988H279.5C277.189 396.988 275.689 402.075 275.689 409.655C275.689 417.991 277.152 423.963 279.5 423.963H420.094C417.746 423.963 416.253 417.991 416.253 409.655Z" fill="#DADADA"/>
<path d="M456.279 514.003C451.564 514.003 451.079 503.289 451.079 495.143C451.079 484.798 451.589 476.284 456.279 476.284H457.692V472.033H157.167C153.663 472.033 150.701 480.418 150.701 495.143C150.701 507.577 152.446 518.26 157.167 518.26H457.692V514.003H456.279Z" fill="#2A3D5E"/>
<path d="M456.279 514.003C451.564 514.003 451.079 503.289 451.079 495.143C451.079 484.798 451.589 476.284 456.279 476.284H457.692V472.033H257.674C254.171 472.033 251.214 480.418 251.214 495.143C251.214 507.577 252.96 518.26 257.674 518.26H457.68V514.003H456.279Z" fill="#232E4D"/>
<path d="M451.079 495.143C451.079 484.798 451.589 476.284 456.279 476.284H262.05C257.355 476.284 256.119 484.798 256.119 495.143C256.119 503.289 257.348 514.003 262.05 514.003H456.279C451.564 514.003 451.079 503.289 451.079 495.143Z" fill="#DADADA"/>
<path d="M456.278 514.003H291.067C288.492 510.722 290.766 502.466 300.416 499.499C340.497 487.212 404.986 483.92 451.085 493.552C451.085 494.074 451.085 494.609 451.085 495.143C451.078 503.289 451.564 514.003 456.278 514.003Z" fill="#EDEDED"/>
<path d="M452.468 509.887H283.532C283.483 509.666 283.44 509.432 283.403 509.205H452.265C452.326 509.438 452.4 509.666 452.468 509.887Z" fill="#878787"/>
<path d="M451.527 505.089H283.286C283.286 504.862 283.335 504.628 283.372 504.401H451.453C451.472 504.628 451.496 504.843 451.527 505.089Z" fill="#878787"/>
<path d="M313.201 468.335H177.364C181.249 468.12 182.134 459.341 182.134 450.04C182.134 446.969 182.06 444.075 181.851 441.514C219.345 436.974 270.36 437.349 296.083 448.597C306.999 453.345 314.836 460.84 313.201 468.335Z" fill="white"/>
<path d="M326.293 463.684C326.225 463.918 326.164 464.151 326.096 464.372H180.769C180.837 464.151 180.898 463.918 180.96 463.684H326.293Z" fill="#878787"/>
<path d="M327.08 459.009C327.08 459.242 327.031 459.47 327.006 459.697H181.679C181.679 459.47 181.735 459.242 181.753 459.009H327.08Z" fill="#878787"/>
<path d="M327.393 454.347C327.393 454.58 327.393 454.801 327.393 455.035H182.073C182.073 454.801 182.073 454.574 182.073 454.347H327.393Z" fill="#878787"/>
<path d="M327.473 449.684H182.146V450.372H327.473V449.684Z" fill="#878787"/>
<path d="M185.619 349.022H439.216V353.869H437.649C433.543 353.869 432.811 363.932 432.811 370.972C432.811 378.012 433.53 388.08 437.649 388.08H439.216V392.921H185.619C180.327 392.921 180.007 380.021 180.007 370.972C180.007 361.923 180.327 349.022 185.619 349.022Z" fill="#3C5685"/>
<path d="M273.391 349.022H439.216V353.869H437.649C433.543 353.869 432.811 363.932 432.811 370.972C432.811 378.012 433.531 388.08 437.649 388.08H439.216V392.921H273.391C268.098 392.921 266.506 380.021 266.506 370.972C266.506 361.923 268.123 349.022 273.391 349.022Z" fill="#4B6BA6"/>
<path d="M276.114 353.869H437.649C433.543 353.869 432.812 363.932 432.812 370.972C432.812 378.012 433.531 388.08 437.649 388.08H276.114C271.989 388.08 271.27 378.012 271.27 370.972C271.27 363.932 272.008 353.869 276.114 353.869Z" fill="#EDEDED"/>
<path d="M414.581 309.964H165.478V314.265H167.014C171.046 314.265 171.772 323.221 171.772 329.481C171.772 335.741 171.065 344.698 167.014 344.698H165.478V348.998H414.594C419.794 348.998 420.126 337.51 420.126 329.469C420.126 321.427 419.781 309.964 414.581 309.964Z" fill="#F23E6E"/>
<path d="M120.805 518.26H207.163C203.475 496.347 178.367 471.296 142.705 456.54C106.828 441.704 71.1476 441.796 53.1384 454.899C56.5989 476.904 81.7932 502.159 117.676 517.001C118.713 517.431 119.756 517.85 120.805 518.26Z" fill="#743FCB" fill-opacity="0.5"/>
<path d="M388.631 552.538C418.619 552.538 442.929 550.564 442.929 548.128C442.929 545.692 418.619 543.717 388.631 543.717C358.643 543.717 334.333 545.692 334.333 548.128C334.333 550.564 358.643 552.538 388.631 552.538Z" fill="#9463E3"/>
<path d="M319.594 309.964H165.478V314.265H167.014C171.046 314.265 171.772 323.221 171.772 329.481C171.772 335.741 171.065 344.698 167.014 344.698H165.478V348.998H319.594C324.788 348.998 326.355 337.51 326.355 329.469C326.355 321.427 324.788 309.964 319.594 309.964Z" fill="#BF2251"/>
<path d="M316.914 314.277H167.002C171.034 314.277 171.759 323.233 171.759 329.493C171.759 335.753 171.052 344.71 167.002 344.71H316.914C320.965 344.71 321.671 335.759 321.671 329.493C321.671 323.227 320.983 314.277 316.914 314.277Z" fill="#DADADA"/>
<path d="M426.788 428.054H407.071C412.344 428.054 413.039 439.4 413.039 451.398C413.039 462.83 411.723 472.045 406.61 472.045H426.327C431.441 472.045 432.75 462.83 432.75 451.398C432.75 439.376 432.062 428.054 426.788 428.054Z" fill="#FAD189"/>
<path d="M490.091 217.854H488.437C488.437 180.092 484.934 149.456 477.988 126.806C472.278 108.107 464.22 94.7144 454.017 86.9925C441.374 77.4153 427.895 78.4351 418.81 80.9784C412.553 82.723 406.615 86.2123 401.145 90.9549C410.223 101.828 415.7 119.434 416.247 139.664C416.763 159.009 412.621 178.489 405.429 190.505C399.227 200.874 391.378 205.187 382.736 202.981C371.851 200.205 365.748 188.926 365.526 171.227C365.323 154.186 370.714 133.564 379.934 116.062C385.41 105.662 391.821 97.1164 398.785 90.7767L398.613 90.5863C388.569 79.6576 372.251 72.4271 351.408 69.6688C333.663 67.316 312.777 68.2436 292.605 72.2735C256.531 79.4795 215.442 98.5294 179.872 124.533C177.266 126.438 174.734 128.35 172.275 130.271C175.601 149.794 166.043 175.288 153.449 188.662C146.528 196.033 139.312 198.945 133.165 196.912C127.406 195.014 124.56 191.002 124.886 185.314C125.685 172.223 143.276 150.912 170.456 129.577C170.036 127.436 169.419 125.338 168.612 123.311C164.18 112.198 154.66 106.153 140.338 105.336C85.0754 102.191 39.8436 138.865 25.3502 174.975L23.8136 174.36C31.2877 155.747 46.7522 137.569 66.2242 124.478C81.8915 113.955 107.473 101.81 140.412 103.683C155.237 104.531 165.514 111.104 170.136 122.727C170.875 124.59 171.457 126.511 171.876 128.471C174.138 126.718 176.463 124.969 178.852 123.225C214.612 97.0796 255.935 77.9314 292.236 70.6825C312.587 66.6157 333.663 65.6819 351.586 68.0593C372.81 70.8668 389.479 78.2815 399.787 89.4989C399.854 89.5665 399.916 89.6341 399.977 89.7078C405.792 84.6827 411.969 81.1811 418.306 79.4119C427.747 76.7703 441.773 75.726 454.951 85.7024C465.4 93.6394 473.673 107.314 479.482 126.346C486.556 149.155 490.091 179.926 490.091 217.854ZM399.959 92.0238C380.29 110.011 366.934 144.204 367.241 171.184C367.438 188.066 373.099 198.779 383.222 201.359C393.161 203.89 400.057 196.384 404.12 189.638C411.158 177.874 415.184 158.732 414.698 139.688C414.108 119.864 408.785 102.645 399.959 92.0238ZM170.868 131.432C144.782 152.055 127.369 173.113 126.626 185.4C126.324 190.314 128.728 193.668 133.774 195.333C139.269 197.176 145.858 194.375 152.312 187.519C164.445 174.649 173.707 150.304 170.868 131.432Z" fill="#C6C6C6"/>
<path d="M478.615 532.942C478.165 532.936 477.73 532.776 477.385 532.487C477.001 532.156 476.763 531.686 476.722 531.18C476.682 530.674 476.843 530.173 477.17 529.784C482.868 523.095 480.711 512.098 478.43 500.457C476.439 490.278 474.38 479.761 476.771 470.055C479.69 458.217 489.383 451.195 498.757 444.407C505.284 439.689 512.021 434.805 516.225 428.435C523.822 416.873 522.531 407.376 521.037 396.386C520.324 391.128 519.581 385.697 519.765 379.646C520.263 362.906 529.304 354.944 539.004 348.832C539.309 348.64 539.663 348.538 540.024 348.537C540.438 348.538 540.841 348.674 541.172 348.923C541.503 349.172 541.745 349.521 541.86 349.919C541.976 350.317 541.959 350.741 541.813 351.129C541.667 351.517 541.4 351.847 541.05 352.069C535.125 355.804 524.098 362.752 523.588 379.763C523.422 385.488 524.135 390.759 524.818 395.858C526.348 407.137 527.792 417.776 519.415 430.536C514.823 437.521 507.792 442.607 500.975 447.528C491.756 454.211 483.034 460.52 480.452 470.995C478.258 479.884 480.237 489.983 482.149 499.751C484.607 512.326 486.937 524.194 480.047 532.309C479.867 532.51 479.646 532.671 479.399 532.78C479.152 532.889 478.885 532.944 478.615 532.942Z" fill="#9E9EF0"/>
<path d="M185.527 518.794L96.6368 477.113L77.5398 483.299C77.3751 483.354 77.2031 483.383 77.0296 483.385C76.6389 483.385 76.2612 483.245 75.9643 482.991C75.6675 482.737 75.471 482.386 75.4103 482C75.3496 481.614 75.4285 481.219 75.6329 480.887C75.8374 480.554 76.1539 480.305 76.5256 480.185L92.2913 475.073L58.246 459.101C57.9104 458.941 57.6391 458.672 57.4765 458.338C57.3139 458.004 57.2697 457.624 57.3511 457.262C57.4325 456.899 57.6347 456.575 57.9246 456.342C58.2145 456.109 58.5749 455.982 58.9467 455.98C59.1868 455.979 59.4241 456.032 59.6413 456.134L135.624 491.764L131.444 462.277C131.386 461.848 131.501 461.414 131.762 461.068C132.023 460.723 132.411 460.495 132.84 460.434C132.917 460.428 132.995 460.428 133.073 460.434C133.467 460.436 133.848 460.58 134.145 460.84C134.442 461.099 134.635 461.457 134.69 461.847L139.177 493.448L154.985 500.862L149.06 458.769L149.957 459.187C150.763 459.568 151.562 459.955 152.348 460.342L152.607 460.465L158.538 502.546L191.059 517.744L190.831 518.77L185.527 518.794Z" fill="#BCB6FA"/>
<path d="M221.787 100.314L222.147 103.098L245.652 100.063L245.292 97.2792L221.787 100.314Z" fill="#F7A94A"/>
<path d="M350.147 91.1023C350.15 83.9846 348.498 76.9637 345.32 70.5935C342.143 64.2234 337.528 58.6785 331.84 54.3962C326.152 50.1139 319.545 47.2114 312.542 45.9179C305.539 44.6244 298.331 44.9752 291.487 46.9426C284.643 48.9101 278.35 52.4403 273.105 57.2547C267.86 62.0691 263.806 68.036 261.263 74.6845C258.72 81.3329 257.758 88.4811 258.452 95.5649C259.147 102.649 261.479 109.474 265.265 115.503C272.223 126.561 276.193 139.215 276.193 152.27V152.485C276.195 153.637 276.654 154.742 277.47 155.556C278.286 156.37 279.392 156.828 280.545 156.828H327.873C329.025 156.828 330.13 156.37 330.945 155.556C331.76 154.741 332.218 153.636 332.218 152.485V152.036C332.218 139.086 336.177 126.536 343.097 115.589C347.724 108.26 350.169 99.7676 350.147 91.1023Z" fill="url(#paint2_linear_1_22845)"/>
<path d="M281.326 156.828H327.068V180.307C327.068 181.447 326.614 182.541 325.807 183.347C325.001 184.154 323.906 184.607 322.765 184.607H285.653C284.512 184.607 283.417 184.154 282.61 183.347C281.803 182.541 281.35 181.447 281.35 180.307V156.828H281.326Z" fill="#4B6BA6"/>
<path d="M310.35 197.201H298.057C296.764 197.201 295.491 196.879 294.354 196.263C293.218 195.647 292.253 194.758 291.547 193.675L285.665 184.632H322.753L316.871 193.675C316.164 194.759 315.198 195.65 314.059 196.266C312.92 196.882 311.645 197.203 310.35 197.201Z" fill="#2A3D5E"/>
<path d="M327.068 176.375H281.326V178.046H327.068V176.375Z" fill="#EDEDED"/>
<path d="M327.068 170.637H281.326V172.308H327.068V170.637Z" fill="#EDEDED"/>
<path d="M327.068 164.9H281.326V166.571H327.068V164.9Z" fill="#EDEDED"/>
<path opacity="0.75" d="M303.65 59.1395C307.614 64.2321 301.24 70.2463 292.014 77.4092C282.788 84.5721 274.19 90.1746 270.25 85.082C266.31 79.9893 268.572 68.5876 277.798 61.4186C287.023 54.2495 299.691 54.0468 303.65 59.1395Z" fill="white"/>
<path d="M304.388 193.582H300.042C299.361 193.546 298.696 193.368 298.087 193.06C297.479 192.752 296.941 192.321 296.508 191.795L289.987 184.632H314.437L307.922 191.795C307.489 192.321 306.952 192.752 306.343 193.06C305.735 193.368 305.069 193.546 304.388 193.582Z" fill="#3C5685"/>
<path d="M305.604 0.853271H302.795V31.9499H305.604V0.853271Z" fill="#F7A94A"/>
<path d="M257.885 13.5836L255.491 15.0637L271.859 41.5097L274.253 40.0295L257.885 13.5836Z" fill="#F7A94A"/>
<path d="M226.138 51.355L224.9 53.8818L250.442 66.3824L251.68 63.8555L226.138 51.355Z" fill="#F7A94A"/>
<path d="M238.664 137.618L240.331 139.877L257.354 127.333L255.687 125.073L238.664 137.618Z" fill="#F7A94A"/>
<path d="M334.165 40.0307L336.548 41.5044L352.916 15.0584L350.532 13.5848L334.165 40.0307Z" fill="#F7A94A"/>
<path d="M356.785 63.8084L358.023 66.3354L383.567 53.8394L382.329 51.3123L356.785 63.8084Z" fill="#F7A94A"/>
<path d="M363.975 98.6821L363.611 101.455L387.074 104.535L387.439 101.761L363.975 98.6821Z" fill="#F7A94A"/>
<path d="M352.701 125.115L351.037 127.37L368.061 139.914L369.724 137.659L352.701 125.115Z" fill="#F7A94A"/>
<path d="M311.99 156.828H309.667C309.667 141.353 311.105 128.661 313.509 122.875C315.131 118.968 316.772 115.742 318.358 112.622C321.308 106.804 323.859 101.779 324.88 94.8373C325.334 91.7657 324.031 89.5112 323.171 89.3085C322.624 89.1979 321.819 90.0579 321.179 92.2019C321.069 92.5643 320.958 93.0066 320.829 93.492C320.005 96.6987 318.758 101.539 315.156 101.539C311.941 101.539 311.781 97.184 311.64 93.3507C311.566 91.3234 311.425 87.5515 310.546 87.5515C309.858 87.8771 309.114 91.4156 308.702 93.3138C307.817 97.5403 306.975 101.527 304.178 101.527C301.382 101.527 300.546 97.5403 299.654 93.3199C299.255 91.4156 298.517 87.8771 297.811 87.5454C296.956 87.5454 296.821 91.3234 296.747 93.3507C296.606 97.184 296.446 101.539 293.231 101.539C289.63 101.539 288.382 96.7048 287.558 93.5042C287.429 93.0189 287.312 92.5705 287.208 92.2019C286.593 90.0457 285.665 89.2102 285.223 89.3085C284.356 89.4989 283.053 91.735 283.508 94.8373C284.522 101.779 287.073 106.804 290.029 112.622C291.615 115.742 293.256 118.968 294.879 122.875C297.276 128.661 298.714 141.353 298.714 156.828H296.397C296.397 141.875 294.995 129.184 292.709 123.765C291.123 119.944 289.501 116.756 287.939 113.666C284.866 107.67 282.26 102.492 281.178 95.1813C280.613 91.3173 282.223 87.5945 284.694 87.0478C285.647 86.8389 288.013 86.8574 289.408 91.5507C289.525 91.9439 289.648 92.4169 289.783 92.9391C290.349 95.1383 291.406 99.2297 293.207 99.2297C294.184 99.2297 294.319 95.5008 294.399 93.2769C294.541 89.3269 294.688 85.2417 297.817 85.2417C300.324 85.2417 301.062 88.7679 301.923 92.8531C302.322 94.7574 303.256 99.2174 304.166 99.2174C305.076 99.2174 306.01 94.7574 306.416 92.8531C307.301 88.7679 308.075 85.2663 310.534 85.2663C313.656 85.2663 313.804 89.3515 313.945 93.3015C314.031 95.5253 314.166 99.2542 315.144 99.2542C316.944 99.2542 318.002 95.1506 318.573 92.9514C318.702 92.4353 318.825 91.9623 318.942 91.5753C320.337 86.8819 322.698 86.8819 323.656 87.0724C326.115 87.6191 327.732 91.3726 327.166 95.2059C326.097 102.516 323.478 107.695 320.405 113.691C318.838 116.762 317.221 119.969 315.635 123.79C313.398 129.202 311.99 141.875 311.99 156.828Z" fill="white"/>
<path d="M309.384 344.716H167.229C171.076 344.378 171.753 335.649 171.753 329.505C171.792 326.419 171.552 323.334 171.033 320.291C211.188 316.605 263.876 317.219 290.889 326.999C302.685 331.238 311.148 337.983 309.384 344.716Z" fill="white"/>
<path d="M235.221 227.928C236.026 231.719 234.526 234.526 238.079 237.475C240.876 239.803 242.382 239.625 244.533 239.453C248.018 239.176 250.188 236.682 251.226 235.024C252.114 233.592 252.639 231.964 252.755 230.284C252.871 228.603 252.574 226.919 251.89 225.379C250.544 222.486 247.79 220.464 244.674 218.744C241.558 217.024 238.651 215.187 239.198 211.821C239.671 208.946 239.941 206.857 238.681 205.205C236.973 202.981 232.48 202.748 229.886 204.038C226.813 205.573 225.423 206.913 225.694 209.044C225.995 211.409 233.033 214.278 233.07 217.706C233.07 218.769 232.332 221.245 233.014 222.092C234.465 223.917 234.76 225.754 235.221 227.928Z" fill="#3C5685"/>
<path d="M214.083 351.375C214.999 354.232 218.669 354.668 219.984 354.072C223.174 352.622 221.502 349.508 220.261 340.557C219.388 334.254 218.06 325.813 216.376 316.212C215.866 313.294 217.052 310.339 219.32 309.233C221.914 307.974 236.457 304.147 237.385 299.404C238.214 295.214 233.045 291.037 229.64 290.017C225.405 288.752 208.601 289.305 203.21 292.696C199.842 294.815 199.27 299.932 200.297 304.183C201.323 308.435 212.239 345.625 214.083 351.375Z" fill="#2A3D5E"/>
<path d="M213.493 368.643C215.645 368.908 220.697 367.562 222.412 366.217C223.869 365.08 224.391 363.059 224.969 361.13C225.688 358.753 227.427 358.796 225.897 356.216C224.97 354.504 223.579 353.088 221.883 352.131C220.605 351.455 218.49 350.902 217.329 351.271C215.454 351.817 214.255 353.728 214.624 356.799C214.925 359.165 213.315 362.832 212.344 364.343C211.022 366.377 211.625 368.41 213.493 368.643Z" fill="#EDEDED"/>
<path d="M203.186 368.042C205.736 367.2 207.212 364.804 208.951 362.574C210.69 360.344 213.254 357.623 212.823 354.213C212.479 351.516 211.391 353.759 209.572 353.851C207.537 353.955 205.527 351.922 203.474 352.696C201.422 353.47 200.315 357.408 198.668 359.06C197.021 360.713 193.622 362.66 192.128 364.558C186.934 371.15 201.188 368.699 203.186 368.042Z" fill="white"/>
<path d="M204.513 349.225C203.806 352.248 205.65 354.668 207.968 355.104C208.894 355.313 209.865 355.194 210.714 354.767C211.562 354.34 212.236 353.632 212.62 352.764C215.454 345.699 222.67 325.549 227.231 313.994C227.63 312.844 228.371 311.843 229.353 311.123C230.336 310.403 231.514 309.999 232.732 309.964H245.24C247.563 309.964 249.591 309.835 250.925 309.049C257.791 304.982 258.252 295.589 253.384 289.52C250.563 286.018 225.928 291.461 222.572 292.401C220.334 293.015 217.9 295.27 216.831 297.426C214.864 301.345 206.265 341.737 204.513 349.225Z" fill="#3C5685"/>
<path d="M223.174 279.138C223.383 281.835 223.856 290.3 233.734 290.3H247.92C249.93 290.3 250.993 288.457 250.169 286.116C249.481 284.095 245.4 278.02 247.779 270.961C249.561 265.672 249.106 251.088 247.238 245.357C245.947 241.406 242.382 236.283 241.485 239.379C240.355 242.6 238.505 245.52 236.076 247.918C232.511 251.137 227.944 250.99 226.696 248.115C225.362 245.043 226.297 242.758 225.135 240.43C224.102 238.366 220.501 243.882 219.984 245.768C218.545 251.042 217.805 256.482 217.784 261.949C217.722 267.613 222.744 273.584 223.174 279.138Z" fill="white"/>
<path d="M217.243 265.261C217.243 273.431 222.006 269.131 229.259 269.131C236.512 269.131 247.778 275.428 247.778 265.261C247.778 259.861 236.512 264.96 229.259 264.96C222.006 264.96 217.243 259.277 217.243 265.261Z" fill="#ECE3FA"/>
<path d="M227.083 238.034C226.207 238.452 225.465 239.106 224.941 239.922C224.417 240.738 224.13 241.684 224.114 242.654C224.032 244.904 224.641 247.125 225.86 249.018C228.318 252.999 233.063 252.409 236.591 249.509C238.767 247.728 243.242 242.267 241.89 238.931C241.164 237.15 239.216 236.977 237.87 235.859C236.124 234.391 236.874 232.524 236.585 230.423C239.044 231.117 239.24 225.207 238.429 223.721C238.257 223.539 238.021 223.432 237.771 223.42C237.71 222.805 238.288 216.982 232.59 215.433C228.257 214.266 223.917 216.871 222.596 219.279C221.195 221.828 222.424 224.918 222.676 227.591C222.666 229.966 223.245 232.306 224.36 234.404C225.059 235.757 225.98 236.984 227.083 238.034Z" fill="#FFBE91"/>
<path d="M227.759 238.685C227.525 238.925 227.276 239.15 227.016 239.361C225.962 240.119 224.988 240.982 224.108 241.935C222.154 244.546 221.189 248.84 220.765 252.028C220.276 256.088 220.216 260.187 220.586 264.259C220.771 266.944 220.765 271.453 216.782 270.316C215.835 270.04 211.484 268.074 211.17 266.925C210.857 265.777 211.361 264.659 211.563 263.663C211.92 261.913 212.627 257.01 212.922 255.376C214.575 246.254 216.776 241.757 222.541 239.226C223.873 238.604 225.268 238.128 226.702 237.807H226.856C227.122 238.134 227.425 238.429 227.759 238.685Z" fill="#F23E6E"/>
<path d="M226.696 237.911C226.696 238.876 227.925 242.826 230.587 242.826C233.248 242.826 235.989 237.186 235.461 236.382C234.932 235.577 233.863 239.545 230.587 239.545C227.311 239.545 226.696 236.941 226.696 237.911Z" fill="#EB8E6C"/>
<path d="M264.3 275.575C264.072 272.712 260.612 262.06 259.081 257.686C256.445 250.197 253.863 244.435 251.527 242.531C250.987 241.89 250.367 241.321 249.684 240.835C247.047 239.029 242.72 237.291 238.853 236.259C237.341 235.853 239.591 237.487 240.366 238.102C244.754 241.394 244.988 264.689 243.5 271.815C242.965 274.377 242.105 276.92 242.234 279.599C242.425 283.469 245.959 288.199 248.258 292.032C249.554 294.201 254.318 302.476 256.863 299.072C259.739 295.276 257.477 290.564 256.746 287.124C256.488 285.858 256.291 284.605 256.131 283.352C258.015 282.81 259.827 282.043 261.528 281.067C262.461 280.506 263.217 279.693 263.707 278.721C264.198 277.749 264.403 276.658 264.3 275.575Z" fill="#F23E6E"/>
<path d="M236.254 289.545C237.071 289.305 255.246 283.088 257.152 282.105C260.495 280.367 259.149 275.772 255.83 274.967C254.484 274.635 252.345 275.133 251.067 275.759C245.191 278.659 237.219 282.947 234.471 284.304C224.022 289.52 232.031 290.792 236.254 289.545Z" fill="#FFBE91"/>
<path d="M196.941 290.281H232.959L222.584 265.721H186.572L196.941 290.281Z" fill="#C3B8D4"/>
<path d="M206.96 278.542C207.271 279.229 207.762 279.82 208.381 280.252C208.999 280.685 209.723 280.943 210.476 280.999C211.84 280.999 212.486 279.893 211.914 278.542C211.604 277.855 211.114 277.264 210.496 276.832C209.879 276.4 209.156 276.141 208.404 276.085C207.034 276.072 206.388 277.178 206.96 278.542Z" fill="#E7DCFA"/>
<path d="M233.641 290.281H232.959L222.547 265.721H223.229L233.641 290.281Z" fill="#E7DCFA"/>
<path d="M198.588 291.608H233.642V290.275H198.588V291.608Z" fill="#AE9DBF"/>
<path d="M247.92 290.281H233.642V291.615H247.92V290.281Z" fill="#E7DCFA"/>
<path d="M240.089 220.661C240.046 218.204 238.86 215.071 236.825 213.609C234.551 211.956 230.353 210.224 229.751 209.088C229.068 207.785 229.062 205.684 232.873 204.173C233.906 203.768 232.99 203.479 231.761 203.78C230.156 204.179 227.827 205.082 226.745 206.206C224.25 208.805 226.278 210.703 227.163 211.434C227.433 211.655 227.698 212.343 226.831 212.663C225.104 213.227 223.47 214.042 221.982 215.083C218.484 217.663 217.304 220.87 218.54 224.943C219.154 227.038 220.998 230.257 222.443 230.693C222.842 230.816 222.934 230.429 222.885 229.464C222.774 227.118 222.94 224.28 227.729 221.607C229.824 220.434 233.101 220.164 234.41 224.544C234.656 225.379 235.639 228.156 236.598 227.431C236.911 227.198 236.647 225.269 237.661 224.814C238.675 224.359 238.854 225.766 239.505 225.023C239.782 224.642 240.114 221.865 240.089 220.661Z" fill="#2A3D5E"/>
<path d="M432.597 548.306L427.932 527.948H405.866L410.513 548.306H407.114L340.117 254.995H343.516L348.169 275.354H370.235L365.588 254.995H368.987L435.984 548.306H432.597ZM427.176 524.557L422.259 503.056H400.193L405.11 524.557H427.176ZM421.484 499.634L416.567 478.133H394.501L399.418 499.634H421.484ZM415.799 474.742L410.882 453.241H388.816L393.733 474.742H415.799ZM410.107 449.795L405.19 428.294H383.124L388.041 449.795H410.107ZM404.415 424.878L399.498 403.346H377.433L382.35 424.878H404.415ZM398.73 399.955L393.813 378.454H371.747L376.664 399.955H398.73ZM393.038 375.039L388.121 353.507H366.055L370.973 375.039H393.038ZM387.365 350.116L382.448 328.615H360.382L365.299 350.116H387.365ZM381.674 325.193L376.756 303.692H354.691L359.608 325.193H381.674ZM375.97 300.277L371.052 278.775H348.987L353.904 300.277H375.97Z" fill="#232E4D"/>
<defs>
<linearGradient id="paint0_linear_1_22845" x1="151.138" y1="518.26" x2="151.138" y2="396.988" gradientUnits="userSpaceOnUse">
<stop stop-color="#743FCB"/>
<stop offset="1" stop-color="#743FCB"/>
</linearGradient>
<linearGradient id="paint1_linear_1_22845" x1="200599" y1="166156" x2="200599" y2="123802" gradientUnits="userSpaceOnUse">
<stop stop-color="#743FCB"/>
<stop offset="1" stop-color="#743FCB"/>
</linearGradient>
<linearGradient id="paint2_linear_1_22845" x1="334.732" y1="153.529" x2="273.029" y2="46.6031" gradientUnits="userSpaceOnUse">
<stop stop-color="#F7A94A"/>
<stop offset="1" stop-color="white"/>
</linearGradient>
</defs>
</svg>
