<svg width="116" height="116" viewBox="0 0 116 116" fill="none" xmlns="http://www.w3.org/2000/svg">
<path d="M58 14.5C34.075 14.5 14.5 34.075 14.5 58C14.5 81.925 34.075 101.5 58 101.5C81.925 101.5 101.5 81.925 101.5 58C101.5 34.075 81.925 14.5 58 14.5ZM58 31.4167C63.3167 31.4167 67.6667 35.7667 67.6667 41.0833C67.6667 46.4 63.3167 50.75 58 50.75C52.6833 50.75 48.3333 46.4 48.3333 41.0833C48.3333 35.7667 52.6833 31.4167 58 31.4167ZM33.8333 82.1667C33.8333 68.875 44.7083 58 58 58C71.2917 58 82.1667 68.875 82.1667 82.1667H33.8333Z" fill="#743FCB"/>
</svg>
