<svg width="42" height="42" viewBox="0 0 42 42" fill="none" xmlns="http://www.w3.org/2000/svg">
<path fill-rule="evenodd" clip-rule="evenodd" d="M0 5C0 2.23858 2.23858 0 5 0H37C39.7614 0 42 2.23858 42 5V17.0275C41.8358 17.0093 41.669 17 41.5 17C39.0147 17 37 19.0147 37 21.5C37 23.9853 39.0147 26 41.5 26C41.669 26 41.8358 25.9907 42 25.9725V37C42 39.7614 39.7614 42 37 42H5C2.23858 42 0 39.7614 0 37V25.9725C2.24998 25.7238 4 23.8163 4 21.5C4 19.1837 2.24998 17.2762 0 17.0275V5Z" fill="#5AA139"/>
</svg>
