<svg width="54" height="53" viewBox="0 0 54 53" fill="none" xmlns="http://www.w3.org/2000/svg">
<path d="M48.6116 25.8117C51.0793 15.5115 48.0304 4.97882 46.1975 1C46.1975 5.50635 45.1246 8.42117 44.5882 9.31528C42.6569 7.59858 38.5529 5.02352 36.6753 4.0847C32.3835 1.93882 26.08 1.32997 22.5929 1.93882C19.7764 2.43059 13.6607 4.70164 9.04705 9.31528C4.43341 13.9289 1.58118 19.687 1 22.3247C1.64376 21.5736 6.63293 19.1506 9.04705 18.0329L11.9975 25.007C11.8902 22.1101 15.261 16.8259 16.9599 14.5459C20.0714 11.0052 24.0681 9.94117 25.6775 9.85175C30.3984 8.67152 37.301 12.4894 40.1622 14.5459C38.2309 14.224 34.5293 16.7365 32.9198 18.0329C35.9241 16.96 44.6328 22.7717 48.6116 25.8117Z" fill="#FFC1A0" stroke="#FFC1A0"/>
<path d="M5.41283 27.287C2.94506 37.5872 5.994 48.1199 7.82694 52.0988C7.82694 47.5924 8.8998 44.6776 9.43623 43.7835C11.3675 45.5002 15.4715 48.0752 17.3492 49.0141C21.6409 51.1599 27.9444 51.7688 31.4315 51.1599C34.248 50.6682 40.3637 48.3971 44.9774 43.7835C49.591 39.1698 52.4432 33.4117 53.0244 30.7741C52.3807 31.5251 47.3915 33.9482 44.9774 35.0658L42.0269 28.0917C42.1342 30.9887 38.7634 36.2729 37.0646 38.5529C33.953 42.0936 29.9563 43.1576 28.3469 43.247C23.626 44.4272 16.7234 40.6094 13.8622 38.5529C15.7935 38.8748 19.4952 36.3623 21.1046 35.0658C18.1003 36.1388 9.39164 30.327 5.41283 27.287Z" fill="#FFC1A0" stroke="#FFC1A0"/>
</svg>
