<svg width="821" height="1024" viewBox="0 0 821 1024" fill="none" xmlns="http://www.w3.org/2000/svg">
<path d="M768.45 549.019L481.786 0H2V1024H686.223C705.535 1003.95 749.088 951.101 768.45 927.181C805.415 872.507 815.222 818.972 819.748 736.961C823.369 671.352 787.058 584.329 768.45 549.019Z" fill="#743FCB" stroke="#743FCB"/>
<g filter="url(#filter0_i_174_1877)">
<circle cx="59" cy="59" r="59" transform="matrix(-1 0 0 1 109 947)" fill="#FDCD3F" fill-opacity="0.1"/>
</g>
<g filter="url(#filter1_i_174_1877)">
<circle cx="16" cy="16" r="16" transform="matrix(-1 0 0 1 218 928)" fill="#18CCF0"/>
</g>
<g filter="url(#filter2_i_174_1877)">
<circle cx="33" cy="33" r="33" transform="matrix(-1 0 0 1 147 914)" fill="#A1E65C"/>
</g>
<path d="M70.776 327.451L63.569 389.704L136.889 333.543L70.776 327.451ZM81.6302 340.046L106.146 342.305L78.9581 363.13L81.6302 340.046Z" fill="#FFC400"/>
<path d="M501.017 625.523C501.017 625.523 490.515 643.833 501.017 658.885H278.382V625.523H501.017Z" fill="#DBDCF1"/>
<path d="M504.612 660.121C504.612 660.964 504.275 661.694 503.713 662.255C503.151 662.817 502.421 663.154 501.579 663.154H170.434C164.424 663.154 159.594 658.268 159.594 652.314V633.499C159.594 627.49 164.48 622.659 170.434 622.659H501.579C503.264 622.659 504.612 624.007 504.612 625.692C504.612 627.377 503.264 628.669 501.579 628.669H295.849C291.805 628.669 288.547 631.927 288.547 635.97V649.955C288.547 653.999 291.805 657.257 295.849 657.257H501.579C503.264 657.088 504.612 658.436 504.612 660.121Z" fill="#EE504F"/>
<path d="M504.556 659.559C504.725 660.626 504.388 661.581 503.714 662.255C503.152 662.817 502.422 663.154 501.58 663.154H293.94C287.088 663.154 281.471 657.593 281.471 650.685V635.015C281.471 628.163 287.032 622.547 293.94 622.547H501.467C503.04 622.547 504.444 623.67 504.612 625.243C504.781 627.04 503.377 628.556 501.636 628.556H295.849C291.806 628.556 288.548 631.814 288.548 635.858V649.843C288.548 653.887 291.806 657.144 295.849 657.144H501.467C502.984 657.088 504.275 658.099 504.556 659.559Z" fill="#D34848"/>
<path d="M499.671 728.529C499.671 728.529 488.718 756.33 499.671 780.818H332.301V728.529H499.671Z" fill="#DBDCF1"/>
<path d="M505.623 781.604C505.679 782.84 505.23 783.963 504.443 784.749C503.713 785.479 502.702 785.929 501.579 785.929H148.474C139.15 785.929 131.624 778.402 131.624 769.079V739.986C131.624 730.663 139.15 723.137 148.474 723.137H501.579C503.713 723.137 505.567 724.766 505.623 726.9C505.679 729.09 503.938 730.944 501.748 730.944H351.733C344.15 730.944 338.028 737.066 338.028 744.648V764.081C338.028 771.663 344.15 777.785 351.733 777.785H501.467C503.601 777.841 505.511 779.47 505.623 781.604Z" fill="#197A83"/>
<path d="M505.624 781.604C505.68 782.84 505.231 783.963 504.445 784.749C503.715 785.479 502.704 785.929 501.58 785.929H348.027C337.637 785.929 329.212 777.504 329.212 767.114V741.896C329.212 731.505 337.637 723.081 348.027 723.081H501.58C503.715 723.081 505.568 724.71 505.624 726.844C505.68 729.034 503.939 730.888 501.749 730.888H351.734C344.152 730.888 338.03 737.01 338.03 744.592V764.025C338.03 771.607 344.152 777.729 351.734 777.729H501.468C503.602 777.841 505.512 779.47 505.624 781.604Z" fill="#156468"/>
<path d="M486.36 740.885H393.015V741.559H486.36V740.885Z" fill="#373133"/>
<path d="M446.652 740.885L453.504 772.168L460.637 760.823V743.244L446.652 740.885Z" fill="#AFAFD5"/>
<path d="M481.25 749.029C481.25 749.085 481.25 749.085 481.25 749.085V772.056L467.658 761.834L453.504 772.056V748.916C453.504 743.244 446.708 740.885 446.708 740.885H476.7C481.193 742.233 481.25 748.355 481.25 749.029Z" fill="#6D68E0"/>
<path d="M481.25 749.029H453.504V748.916C453.504 743.244 446.708 740.885 446.708 740.885H476.7C481.193 742.233 481.25 748.355 481.25 749.029Z" fill="#5A5ABA"/>
<path d="M147.857 666.074C147.857 666.074 158.978 696.402 147.857 719.261H367.46V666.074H147.857Z" fill="#DBDCF1"/>
<path d="M518.43 682.979V703.03C518.43 714.15 509.444 723.137 498.323 723.137H148.138C146.397 723.137 144.993 721.733 144.993 719.991V719.823C144.993 718.082 146.397 716.678 148.138 716.678H347.185C355.16 716.678 361.619 710.219 361.619 702.244V683.597C361.619 675.622 355.16 669.163 347.185 669.163H148.138C147.24 669.163 146.453 668.826 145.892 668.208C145.274 667.59 144.937 666.692 144.993 665.737C145.105 664.052 146.566 662.816 148.251 662.816H498.323C509.444 662.872 518.43 671.915 518.43 682.979Z" fill="#F1884F"/>
<path d="M370.549 681.07V704.996C370.549 714.993 362.405 723.137 352.408 723.137H148.138C146.397 723.137 144.993 721.733 144.993 719.991V719.823C144.993 718.082 146.397 716.678 148.138 716.678H347.185C355.16 716.678 361.619 710.219 361.619 702.244V683.597C361.619 675.622 355.16 669.163 347.185 669.163H148.138C147.24 669.163 146.453 668.826 145.892 668.208C145.274 667.59 144.937 666.692 144.993 665.737C145.105 664.052 146.566 662.816 148.251 662.816H352.352C362.405 662.872 370.549 671.016 370.549 681.07Z" fill="#D37146"/>
<path d="M261.144 701.569H167.799V702.243H261.144V701.569Z" fill="#373133"/>
<path d="M206.774 701.401H194.811V716.566H206.774V701.401Z" fill="#AFAFD5"/>
<path d="M199.753 714.712V762.845L186.666 751.051L174.198 762.845V716.566L199.753 714.712Z" fill="#A82329"/>
<path d="M206.773 701.401H181.387C181.387 701.401 181.387 712.746 174.198 716.566H199.584C199.584 716.566 206.773 714.712 206.773 701.401Z" fill="#EE504F"/>
<path d="M452.1 564.36C452.1 564.36 443.394 588.792 452.1 615.582H231.879V565.315L452.1 564.36Z" fill="#DBDCF1"/>
<path d="M242.1 557.34H452.379C454.794 557.34 456.76 559.306 456.76 561.721C456.76 564.136 454.794 566.101 452.379 566.101H244.122C238.112 566.101 233.226 570.988 233.226 576.997V602.608C233.226 608.618 238.112 613.504 244.122 613.504H452.379C454.794 613.504 456.76 615.47 456.76 617.885V618.166C456.76 620.581 454.794 622.547 452.379 622.547H242.1C233.394 622.547 226.318 615.47 226.318 606.764V573.178C226.318 564.417 233.394 557.34 242.1 557.34Z" fill="#6D68E0"/>
<path d="M423.904 598.564H330.559V599.238H423.904V598.564Z" fill="#373133"/>
<path d="M393.576 598.564H383.748V613.616H393.576V598.564Z" fill="#AFAFD5"/>
<path d="M390.487 611.707V650.909L402.169 639.283L414.076 650.909V613.616L390.487 611.707Z" fill="#156468"/>
<path d="M383.748 598.564H406.944C406.944 598.564 406.944 609.853 414.076 613.616H390.881C390.881 613.616 383.748 611.707 383.748 598.564Z" fill="#197A83"/>
<path d="M147.407 329.649L145.553 320.382L135.893 324.089L134.321 313.811L124.997 317.574L123.762 307.408L115.73 311.34L115 309.823L125.166 304.881L126.401 315.215L135.668 311.452L137.241 321.786L146.789 318.079L149.036 329.312L147.407 329.649Z" fill="#EE504F"/>
<path d="M503.883 344.926L494.166 340.658L494.84 339.141L502.759 342.567L505.006 333.412L513.543 337.625L515.677 328.638L525 333.637L524.214 335.097L516.8 331.166L514.722 340.096L506.129 335.827L503.883 344.926Z" fill="#197A83"/>
<path d="M316.18 218.444L314.72 217.601L318.988 210.244L310.058 207.379L315 198L316.517 198.786L312.529 206.368L321.516 209.289L316.18 218.444Z" fill="#6D68E0"/>
<path d="M400.877 374.806C396.834 356.721 383.13 349.925 373.919 346.667C360.945 342.062 355.047 331.39 355.047 331.39C351.734 325.1 349.206 320.832 346.903 317.799C355.272 316.788 358.53 311.115 358.53 311.115C355.609 313.137 352.464 314.092 349.656 314.485C353.868 312.969 356.845 308.981 356.845 304.263C356.845 298.253 351.958 293.423 346.005 293.423C339.995 293.423 335.165 298.31 335.165 304.263C335.165 306.06 335.614 307.689 336.345 309.206C321.124 301.736 306.465 308.7 300.793 315.721C287.425 332.289 306.802 353.912 306.802 353.912L306.409 363.966C286.302 386.488 302.814 405.359 302.814 405.359C325.954 420.692 360.383 415.806 377.85 411.874C386.443 409.964 393.745 404.236 397.62 396.373C400.484 390.363 402.675 382.781 400.877 374.806Z" fill="#373133"/>
<path d="M321.461 369.975V369.751C321.461 369.751 299.332 383.399 302.141 335.547C302.141 335.547 303.938 325.718 310.79 322.46C310.79 322.46 320.45 338.692 339.321 341.556C339.321 341.556 344.938 333.131 349.375 339.927C349.375 339.927 352.576 346.779 346.567 352.003L353.419 396.485L319.832 396.71L321.012 376.827L321.461 369.975Z" fill="#FCBB9D"/>
<path d="M270.521 696.178H245.19L241.54 682.586L238.563 671.41H264.511L266.364 678.936L270.521 696.178Z" fill="#FCBB9D"/>
<path d="M322.866 668.208L320.675 689.944L318.934 707.467L296.693 708.815L296.3 692.19L295.738 668.208H322.866Z" fill="#FCBB9D"/>
<path d="M266.364 678.936L241.54 682.586L238.563 671.41H264.511L266.364 678.936Z" fill="#E6A68A"/>
<path d="M322.866 668.208L320.675 689.944L296.3 692.19L295.738 668.208H322.866Z" fill="#E6A68A"/>
<path d="M320.449 379.58L293.884 390.139C287.593 393.565 282.763 399.181 280.292 405.921L261.027 458.266H290.458L284.223 518.25L379.759 528.696L378.579 447.651H407.167L398.518 409.628C396.44 400.417 390.037 392.778 381.388 389.015L351.733 376.266C351.677 376.21 327.47 402.326 320.449 379.58Z" fill="#F23E6E"/>
<path d="M297.085 562.338L245.189 556.329L269.115 673.768H229.912L186.104 533.414C186.104 533.414 182.397 526 188.238 516.957C192.788 509.825 200.819 505.668 209.3 505.668H313.373L297.085 562.338Z" fill="#4F216C"/>
<path d="M380.097 524.933C380.097 524.933 375.491 498.704 300.343 503.815C300.343 503.815 285.853 503.197 285.853 544.815V681.8H326.853L335.278 562.282C335.334 562.339 378.299 567.169 380.097 524.933Z" fill="#4F216C"/>
<path d="M268.667 684.608C268.667 684.608 257.715 694.999 243.449 690.786C243.449 690.786 218.737 710.893 214.243 716.06C211.323 719.374 214.3 724.485 218.624 723.643L274.171 711.118C277.316 710.5 279.057 707.13 277.709 704.266L268.667 684.608Z" fill="#4F216C"/>
<path d="M285.403 579.749C281.472 513.756 295.738 504.994 296.355 504.601L297.198 506.062L296.805 505.331L297.254 506.062C297.142 506.118 283.325 515.16 287.145 579.637L285.403 579.749Z" fill="white"/>
<path d="M319.665 700.559C319.665 700.559 324.607 702.918 325.618 720.834C325.73 722.576 324.326 724.036 322.585 724.036H280.013C275.969 724.036 274.059 719.093 277.036 716.341C283.382 710.556 288.83 707.636 296.693 701.289C296.693 701.345 310.285 710.276 319.665 700.559Z" fill="#4F216C"/>
<path d="M401.777 489.1L330.617 496.963L324.27 497.805L284.393 503.085C282.259 503.366 281.023 500.726 282.596 499.266L298.491 484.663C300.119 482.36 302.759 480.956 305.623 480.956H314.104L318.26 479.833L377.57 464.051L375.941 456.356L375.548 454.39L373.638 445.292L406.607 445.404L407.449 449.223L407.618 449.953L412.729 473.992C414.189 481.293 409.134 488.257 401.777 489.1Z" fill="#FCBB9D"/>
<path d="M407.393 449.279L375.492 454.39L373.582 445.292L406.551 445.404L407.393 449.279Z" fill="#E6A68A"/>
<path d="M324.27 497.806L284.393 503.085C282.259 503.366 281.023 500.726 282.596 499.266L298.491 484.663C300.119 482.36 302.759 480.956 305.623 480.956H314.104L318.26 479.833L324.27 497.806Z" fill="#E6A68A"/>
<path d="M256.142 476.463C259.244 476.463 261.758 473.949 261.758 470.847C261.758 467.745 259.244 465.23 256.142 465.23C253.04 465.23 250.525 467.745 250.525 470.847C250.525 473.949 253.04 476.463 256.142 476.463Z" fill="white"/>
<path d="M309.553 438.552L317.248 505.893H225.026L217.332 438.552H309.553Z" fill="#C3B8D4"/>
<path d="M361.17 500.951H306.522V505.893H361.17V500.951Z" fill="#C3B8D4"/>
<path d="M305.117 438.552L312.868 505.893H220.646L212.895 438.552H305.117Z" fill="#C3B8D4"/>
<path d="M257.432 476.294C260.534 476.294 263.049 473.78 263.049 470.678C263.049 467.576 260.534 465.062 257.432 465.062C254.33 465.062 251.816 467.576 251.816 470.678C251.816 473.78 254.33 476.294 257.432 476.294Z" fill="white"/>
<path d="M369.29 425.73L367.659 426.151L373.388 448.396L375.019 447.976L369.29 425.73Z" fill="#373133"/>
<path d="M335.334 360.764C335.334 360.764 333.649 373.008 321.069 376.827L321.462 370.032C321.518 370.032 321.518 369.975 321.574 369.975C325.449 368.178 329.662 365.314 335.334 360.764Z" fill="#E6A68A"/>
<path d="M543.212 516.384L538.651 513.059L535.49 517.94L540.051 521.265L543.212 516.384Z" fill="#C5E1F9"/>
<path d="M550.815 521.925L546.254 518.6L543.093 523.481L547.655 526.806L550.815 521.925Z" fill="#C5E1F9"/>
<path d="M557.658 526.912L552.336 523.033L549.175 527.914L554.497 531.793L557.658 526.912Z" fill="#C5E1F9"/>
<path d="M565.261 532.453L559.939 528.574L556.778 533.455L562.1 537.334L565.261 532.453Z" fill="#C5E1F9"/>
<path d="M538.471 523.706L533.909 520.381L530.222 526.076L534.783 529.401L538.471 523.706Z" fill="#C5E1F9"/>
<path d="M546.074 529.247L541.512 525.922L537.825 531.617L542.387 534.942L546.074 529.247Z" fill="#C5E1F9"/>
<path d="M552.917 534.234L547.595 530.355L543.907 536.05L549.229 539.929L552.917 534.234Z" fill="#C5E1F9"/>
<path d="M533.203 531.841L528.641 528.516L524.954 534.211L529.515 537.536L533.203 531.841Z" fill="#C5E1F9"/>
<path d="M540.806 537.382L536.244 534.058L532.557 539.753L537.118 543.077L540.806 537.382Z" fill="#C5E1F9"/>
<path d="M547.649 542.369L542.327 538.49L538.639 544.185L543.961 548.064L547.649 542.369Z" fill="#C5E1F9"/>
<path d="M553.408 538.659L551.616 541.427L546.242 549.727L551.564 553.606L556.938 545.305L558.73 542.538L560.519 539.775L555.197 535.896L553.408 538.659Z" fill="#C5E1F9"/>
<path d="M549.812 506.824L571.582 522.69L574.742 517.809L548.132 498.415L541.811 508.178L546.651 511.705L549.812 506.824Z" fill="#C5E1F9"/>
<path d="M542.553 486.467L512.815 532.393C511.939 533.746 511.596 535.408 511.861 537.011C512.127 538.614 512.981 540.027 514.233 540.94L549.643 566.748C550.896 567.661 552.445 567.999 553.951 567.687C555.457 567.375 556.795 566.439 557.672 565.086L587.41 519.16C588.286 517.806 588.629 516.145 588.364 514.542C588.098 512.939 587.245 511.525 585.992 510.612L550.578 484.802C549.325 483.89 547.776 483.554 546.271 483.866C544.767 484.178 543.429 485.114 542.553 486.467ZM552.949 561.643L517.535 535.832L547.272 489.907L582.682 515.714L552.949 561.643Z" fill="#C5E1F9"/>
<path d="M583.037 459.558C582.971 459.688 582.883 459.804 582.775 459.899C582.668 459.993 582.544 460.064 582.411 460.107C582.278 460.151 582.138 460.166 581.999 460.153C581.861 460.139 581.726 460.096 581.603 460.027L527.49 429.602C527.242 429.462 527.057 429.223 526.975 428.938C526.893 428.652 526.921 428.344 527.053 428.08L547.265 387.651C547.398 387.389 547.623 387.192 547.891 387.105C548.16 387.018 548.45 387.047 548.698 387.186L602.808 417.609C603.056 417.748 603.242 417.986 603.324 418.27C603.407 418.555 603.379 418.863 603.248 419.127L583.037 459.558Z" fill="#136FB7"/>
<path d="M581.469 458.067L528.395 428.638L530.405 424.668L583.479 454.098L581.469 458.067Z" fill="#D1EBF9"/>
<path d="M555.675 441.993L574.157 405.05C574.193 405.027 574.222 404.995 574.241 404.956C574.295 404.853 574.336 404.749 574.38 404.645C574.896 403.797 575.692 403.184 576.611 402.927C577.53 402.67 578.505 402.789 579.343 403.259L602.399 416.213L583.159 454.673L560.102 441.718C559.412 441.331 558.635 441.152 557.855 441.201C557.074 441.249 556.321 441.523 555.675 441.993Z" fill="#EAF4FE"/>
<path d="M555.684 442.15L574.446 404.736C574.444 404.692 574.453 404.648 574.471 404.609C574.524 404.502 574.585 404.402 574.641 404.307C575.02 403.367 575.056 402.314 574.742 401.355C574.428 400.397 573.786 399.602 572.945 399.129L549.765 386.134L530.235 425.084L553.415 438.079C554.107 438.469 554.685 439.054 555.084 439.772C555.484 440.489 555.692 441.312 555.684 442.15Z" fill="#EAF4FE"/>
<path d="M574.268 404.776C574.522 404.136 574.613 403.434 574.532 402.74C574.451 402.046 574.202 401.383 573.808 400.815L554.749 439.136C555.389 439.962 555.743 440.99 555.75 442.048L574.08 405.196C574.077 405.153 574.085 405.11 574.103 405.071C574.153 404.969 574.211 404.873 574.268 404.776Z" fill="#D1EBF9"/>
<path d="M562.134 400.788L550.376 394.072L550.888 393.035L562.644 399.75L562.134 400.788Z" fill="#A6D9E8"/>
<path d="M568.359 408.446L548.201 397.382L548.671 396.458L568.832 407.523L568.359 408.446Z" fill="#A6D9E8"/>
<path d="M566.746 410.937L547.452 400.099L547.865 399.274L567.16 410.112L566.746 410.937Z" fill="#A6D9E8"/>
<path d="M565.309 413.155L546.359 402.567L546.775 401.742L565.726 412.331L565.309 413.155Z" fill="#A6D9E8"/>
<path d="M564.775 415.075L545.181 404.077L544.759 404.918L564.353 415.916L564.775 415.075Z" fill="#A6D9E8"/>
<path d="M562.952 418.366L543.493 407.005L543.841 406.274L563.303 417.636L562.952 418.366Z" fill="#A6D9E8"/>
<path d="M562.207 421.087L542.404 409.475L542.751 408.742L562.555 420.354L562.207 421.087Z" fill="#A6D9E8"/>
<path d="M560.707 423.402L541.07 412.311L541.483 411.485L561.12 422.573L560.707 423.402Z" fill="#A6D9E8"/>
<path d="M559.83 424.944L540.236 413.946L539.815 414.787L559.408 425.785L559.83 424.944Z" fill="#A6D9E8"/>
<path d="M558.121 428.182L538.307 417.368L538.78 416.445L558.595 427.259L558.121 428.182Z" fill="#A6D9E8"/>
<path d="M557.391 429.838L537.797 418.844L537.376 419.686L556.969 430.679L557.391 429.838Z" fill="#A6D9E8"/>
<path d="M555.241 433.415L536.124 422.305L536.475 421.575L555.592 432.686L555.241 433.415Z" fill="#A6D9E8"/>
<path d="M594.332 423.286L575.215 412.175L575.566 411.445L594.683 422.556L594.332 423.286Z" fill="#A6D9E8"/>
<path d="M593.179 425.851L573.54 414.762L573.954 413.935L593.591 425.025L593.179 425.851Z" fill="#A6D9E8"/>
<path d="M592.088 428.322L572.109 416.983L572.518 416.154L592.499 427.492L592.088 428.322Z" fill="#A6D9E8"/>
<path d="M590.937 430.885L571.121 420.07L571.595 419.147L591.409 429.962L590.937 430.885Z" fill="#A6D9E8"/>
<path d="M589.502 433.101L570.031 422.54L570.506 421.616L589.977 432.181L589.502 433.101Z" fill="#A6D9E8"/>
<path d="M588.064 435.322L568.939 425.007L569.415 424.086L588.541 434.399L588.064 435.322Z" fill="#A6D9E8"/>
<path d="M587.32 438.041L567.505 427.226L567.979 426.303L587.794 437.118L587.32 438.041Z" fill="#A6D9E8"/>
<path d="M586.23 440.508L566.072 429.445L566.543 428.521L586.702 439.585L586.23 440.508Z" fill="#A6D9E8"/>
<path d="M584.616 443.001L564.979 431.912L565.391 431.085L585.027 442.172L584.616 443.001Z" fill="#A6D9E8"/>
<path d="M583.464 445.565L563.651 434.752L564.123 433.828L583.939 444.643L583.464 445.565Z" fill="#A6D9E8"/>
<path d="M582.313 448.129L561.976 437.338L562.508 436.322L582.846 447.11L582.313 448.129Z" fill="#A6D9E8"/>
<path d="M554.202 412.431L550.894 405.711L550.922 404.442L552.041 404.362L552.02 405.318L554.257 409.862L556.699 404.984L556.72 404.029L557.84 403.95L557.812 405.217L554.202 412.431Z" fill="#00046D"/>
<path d="M555.723 360.694L556.999 403.96L551.313 404.03L550.036 360.761L555.721 360.692L555.723 360.694ZM556.881 359.416L548.802 359.515L550.151 405.304L558.231 405.204L556.881 359.416Z" fill="#00046D"/>
<path d="M553.891 360.209L552.708 360.239L553.338 403.548L554.521 403.519L553.891 360.209Z" fill="#00046D"/>
<path d="M556.304 354.958L556.296 352.3C556.295 351.973 555.991 351.719 555.621 351.737L550.835 351.939C550.46 351.955 550.159 352.231 550.159 352.56L550.175 355.225" fill="white"/>
<path d="M549.253 355.652L549.18 352.898C549.177 352.739 549.203 352.581 549.258 352.434C549.313 352.286 549.395 352.152 549.499 352.039C549.76 351.765 550.113 351.61 550.483 351.609L555.53 351.528C556.267 351.518 556.878 352.078 556.899 352.777L556.97 355.532L555.723 355.552L555.652 352.863C555.624 352.85 555.594 352.845 555.564 352.847L550.517 352.926C550.486 352.926 550.456 352.933 550.427 352.947L550.498 355.636L549.253 355.652Z" fill="#00046D"/>
<path d="M556.997 356.014L548.979 356.231L549.062 361.28L557.08 361.063L556.997 356.014Z" fill="#0561FC"/>
<path d="M63.5201 464.086L66.0258 456.067L71.7265 457.947L73.8564 454L92.8376 460.077L92.7123 464.274L123.847 474.234L121.153 482.566L63.5201 464.086Z" fill="#F1884F"/>
<path d="M61.5777 460.327L55 496.285L109.313 513.7L124.911 480.687L61.5777 460.327Z" fill="#FFB392"/>
<path opacity="0.5" d="M475.107 197.974C475.706 193.678 475.359 189.247 474.089 184.999C472.819 180.752 470.659 176.796 467.765 173.416C464.87 170.036 461.314 167.317 457.353 165.456C453.393 163.595 449.127 162.639 444.863 162.655C441.743 162.623 438.666 163.104 435.748 164.08C430.42 133.672 404.286 109.788 373.528 109.081C369.11 108.989 364.723 109.389 360.442 110.274C346.223 94.4532 326.18 84.1986 304.17 83.6928C268.98 82.8841 240.336 107.127 233.361 140.483L233.218 140.48C226.845 140.276 220.581 141.495 214.861 144.054C209.142 146.612 204.103 150.448 200.094 155.296C196.085 160.143 193.202 165.887 191.645 172.128C190.087 178.369 189.893 184.959 191.075 191.441L475.107 197.974Z" fill="#C5E1F9"/>
<path d="M108.467 136.53L206.268 138.777C206.265 138.685 206.277 138.596 206.274 138.501C206.18 135.368 205.381 132.261 203.942 129.424C202.502 126.586 200.461 124.096 197.979 122.149C195.497 120.202 192.642 118.851 189.638 118.203C186.634 117.555 183.564 117.628 180.669 118.415C179.44 110.912 175.513 104.014 169.683 99.117C163.852 94.2201 156.555 91.6909 149.268 92.0417C141.982 92.3925 135.251 95.597 130.439 101.006C125.628 106.415 123.095 113.625 123.354 121.174C123.356 121.238 123.359 121.302 123.361 121.372C119.507 121.747 115.954 123.438 113.258 126.181C110.563 128.925 108.878 132.564 108.467 136.53Z" fill="#C5E1F9"/>
<defs>
<filter id="filter0_i_174_1877" x="-9" y="947" width="118" height="118" filterUnits="userSpaceOnUse" color-interpolation-filters="sRGB">
<feFlood flood-opacity="0" result="BackgroundImageFix"/>
<feBlend mode="normal" in="SourceGraphic" in2="BackgroundImageFix" result="shape"/>
<feColorMatrix in="SourceAlpha" type="matrix" values="0 0 0 0 0 0 0 0 0 0 0 0 0 0 0 0 0 0 127 0" result="hardAlpha"/>
<feOffset/>
<feGaussianBlur stdDeviation="2"/>
<feComposite in2="hardAlpha" operator="arithmetic" k2="-1" k3="1"/>
<feColorMatrix type="matrix" values="0 0 0 0 0.913725 0 0 0 0 0.67451 0 0 0 0 0.0235294 0 0 0 0.1 0"/>
<feBlend mode="normal" in2="shape" result="effect1_innerShadow_174_1877"/>
</filter>
<filter id="filter1_i_174_1877" x="186" y="928" width="32" height="32" filterUnits="userSpaceOnUse" color-interpolation-filters="sRGB">
<feFlood flood-opacity="0" result="BackgroundImageFix"/>
<feBlend mode="normal" in="SourceGraphic" in2="BackgroundImageFix" result="shape"/>
<feColorMatrix in="SourceAlpha" type="matrix" values="0 0 0 0 0 0 0 0 0 0 0 0 0 0 0 0 0 0 127 0" result="hardAlpha"/>
<feOffset/>
<feGaussianBlur stdDeviation="2"/>
<feComposite in2="hardAlpha" operator="arithmetic" k2="-1" k3="1"/>
<feColorMatrix type="matrix" values="0 0 0 0 0.454902 0 0 0 0 0.247059 0 0 0 0 0.796078 0 0 0 0.2 0"/>
<feBlend mode="normal" in2="shape" result="effect1_innerShadow_174_1877"/>
</filter>
<filter id="filter2_i_174_1877" x="81" y="914" width="66" height="66" filterUnits="userSpaceOnUse" color-interpolation-filters="sRGB">
<feFlood flood-opacity="0" result="BackgroundImageFix"/>
<feBlend mode="normal" in="SourceGraphic" in2="BackgroundImageFix" result="shape"/>
<feColorMatrix in="SourceAlpha" type="matrix" values="0 0 0 0 0 0 0 0 0 0 0 0 0 0 0 0 0 0 127 0" result="hardAlpha"/>
<feOffset/>
<feGaussianBlur stdDeviation="2"/>
<feComposite in2="hardAlpha" operator="arithmetic" k2="-1" k3="1"/>
<feColorMatrix type="matrix" values="0 0 0 0 0.454902 0 0 0 0 0.247059 0 0 0 0 0.796078 0 0 0 0.2 0"/>
<feBlend mode="normal" in2="shape" result="effect1_innerShadow_174_1877"/>
</filter>
</defs>
</svg>
