<svg width="22" height="15" viewBox="0 0 22 15" fill="none" xmlns="http://www.w3.org/2000/svg">
<path d="M21.1538 8C20.9294 8 20.7142 8.06146 20.5555 8.17085C20.3968 8.28025 20.3077 8.42862 20.3077 8.58333V13.25C20.3077 13.4047 20.2185 13.5531 20.0599 13.6625C19.9012 13.7719 19.686 13.8333 19.4615 13.8333H2.53846C2.31405 13.8333 2.09883 13.7719 1.94014 13.6625C1.78146 13.5531 1.69231 13.4047 1.69231 13.25V8.58333C1.69231 8.42862 1.60316 8.28025 1.44447 8.17085C1.28579 8.06146 1.07057 8 0.846154 8C0.62174 8 0.406517 8.06146 0.247833 8.17085C0.0891481 8.28025 0 8.42862 0 8.58333V13.25C0.000592484 13.714 0.268426 14.1588 0.744615 14.4867C1.22021 14.8149 1.86545 14.9996 2.53846 15H19.4615C20.1346 14.9996 20.7798 14.8149 21.2554 14.4867C21.7316 14.1588 21.9994 13.714 22 13.25V8.58333C22 8.42862 21.9109 8.28025 21.7522 8.17085C21.5935 8.06146 21.3783 8 21.1538 8Z" fill="#743FCB"/>
<path d="M21.1538 7C20.9294 7 20.7142 6.93854 20.5555 6.82915C20.3968 6.71975 20.3077 6.57138 20.3077 6.41667V1.75C20.3077 1.59529 20.2185 1.44692 20.0599 1.33752C19.9012 1.22812 19.686 1.16667 19.4615 1.16667H2.53846C2.31405 1.16667 2.09883 1.22812 1.94014 1.33752C1.78146 1.44692 1.69231 1.59529 1.69231 1.75V6.41667C1.69231 6.57138 1.60316 6.71975 1.44447 6.82915C1.28579 6.93854 1.07057 7 0.846154 7C0.62174 7 0.406517 6.93854 0.247833 6.82915C0.0891481 6.71975 0 6.57138 0 6.41667V1.75C0.000592484 1.28603 0.268426 0.841206 0.744615 0.513332C1.22021 0.18505 1.86545 0.000408173 2.53846 -4.76837e-07H19.4615C20.1346 0.000408173 20.7798 0.18505 21.2554 0.513332C21.7316 0.841206 21.9994 1.28603 22 1.75V6.41667C22 6.57138 21.9109 6.71975 21.7522 6.82915C21.5935 6.93854 21.3783 7 21.1538 7Z" fill="#743FCB"/>
<path d="M5.67981 8.99609L6.34485 8.19922L5.3927 7.93555L5.58313 7.38184L6.51477 7.76562L6.44446 6.73438H7.06848L6.99231 7.78613L7.90344 7.41113L8.09094 7.9707L7.12415 8.23438L7.76575 9.01074L7.26184 9.35645L6.72278 8.49512L6.18372 9.32715L5.67981 8.99609ZM9.96887 8.99609L10.6339 8.19922L9.68176 7.93555L9.87219 7.38184L10.8038 7.76562L10.7335 6.73438H11.3575L11.2814 7.78613L12.1925 7.41113L12.38 7.9707L11.4132 8.23438L12.0548 9.01074L11.5509 9.35645L11.0118 8.49512L10.4728 9.32715L9.96887 8.99609ZM14.2579 8.99609L14.923 8.19922L13.9708 7.93555L14.1613 7.38184L15.0929 7.76562L15.0226 6.73438H15.6466L15.5704 7.78613L16.4816 7.41113L16.6691 7.9707L15.7023 8.23438L16.3439 9.01074L15.84 9.35645L15.3009 8.49512L14.7618 9.32715L14.2579 8.99609Z" fill="#743FCB"/>
</svg>
