<svg width="702" height="404" viewBox="0 0 702 404" fill="none" xmlns="http://www.w3.org/2000/svg">
<path fill-rule="evenodd" clip-rule="evenodd" d="M484.771 222.613C485.332 222.165 486.15 222.255 486.599 222.816C487.048 223.376 486.957 224.193 486.396 224.641L486.243 224.768L486.143 224.854C485.951 225.018 485.732 225.212 485.488 225.437L485.363 225.551C484.511 226.341 483.557 227.298 482.528 228.425C479.573 231.66 476.614 235.6 473.849 240.263C468.45 249.368 464.471 260.071 462.51 272.431C460.085 287.718 460.885 304.779 465.518 323.676C465.689 324.373 465.262 325.076 464.564 325.247C463.867 325.418 463.162 324.991 462.992 324.294C458.277 305.066 457.461 287.657 459.941 272.024C461.955 259.332 466.049 248.32 471.611 238.94C474.47 234.119 477.535 230.037 480.606 226.675C481.608 225.577 482.546 224.629 483.399 223.829L483.595 223.646C484.145 223.136 484.546 222.793 484.771 222.613Z" fill="#2E186A"/>
<path fill-rule="evenodd" clip-rule="evenodd" d="M471.408 306.625C470.411 305.759 469.934 304.503 470.064 303.204C472.795 278.093 484.153 252.246 501.84 242.764C520.004 233.023 532.403 260.082 507.216 285.194C488.271 304.114 478.127 307.188 474.269 307.577C473.229 307.664 472.188 307.317 471.408 306.625Z" fill="#FEBA91"/>
<path fill-rule="evenodd" clip-rule="evenodd" d="M431.55 300.828C439.007 301.47 444.895 305.552 449.364 311.898C451.056 314.301 452.425 316.868 453.502 319.434C453.837 320.234 454.123 320.983 454.361 321.669L454.448 321.923C454.603 322.382 454.705 322.715 454.757 322.904C454.949 323.595 454.543 324.311 453.851 324.502C453.183 324.687 452.493 324.316 452.273 323.67L452.19 323.391L452.117 323.158C452.077 323.034 452.033 322.9 451.984 322.755C451.748 322.058 451.455 321.279 451.103 320.438C450.094 318.034 448.811 315.63 447.236 313.393C443.173 307.623 437.925 303.984 431.327 303.416C430.611 303.355 430.081 302.725 430.142 302.011C430.202 301.322 430.79 300.805 431.474 300.824L431.55 300.828Z" fill="#2E186A"/>
<path fill-rule="evenodd" clip-rule="evenodd" d="M517.499 244.053C517.986 244.539 518.006 245.317 517.558 245.827L517.461 245.928L516.952 246.445L516.476 246.933C516.255 247.161 516.019 247.405 515.77 247.665L515.386 248.065C513.696 249.831 511.813 251.853 509.784 254.097C503.987 260.51 498.19 267.415 492.783 274.545C486.344 283.034 480.898 291.272 476.76 299.036C475.447 301.5 474.274 303.902 473.249 306.237C472.961 306.894 472.194 307.193 471.536 306.904C470.878 306.616 470.579 305.85 470.867 305.193C471.92 302.796 473.121 300.336 474.464 297.816C478.674 289.916 484.194 281.567 490.709 272.977C496.166 265.782 502.01 258.821 507.854 252.357L508.57 251.567C510.225 249.747 511.778 248.082 513.202 246.588L514.08 245.671C514.387 245.353 514.673 245.058 514.936 244.788L515.659 244.054C516.167 243.546 516.99 243.546 517.499 244.053Z" fill="#2E186A"/>
<path fill-rule="evenodd" clip-rule="evenodd" d="M507.742 278.293L508.187 278.271C509.056 278.23 509.797 278.215 510.396 278.216L510.987 278.224C511.705 278.247 512.267 278.848 512.244 279.565C512.221 280.256 511.661 280.803 510.977 280.82L510.775 280.817C510.087 280.805 509.109 280.821 507.881 280.887C506.039 280.986 504.024 281.18 501.878 281.49C495.984 282.344 490.03 283.931 484.328 286.426C483.67 286.714 482.903 286.415 482.615 285.758C482.327 285.101 482.626 284.335 483.284 284.047C489.215 281.451 495.393 279.804 501.505 278.92C503.731 278.597 505.823 278.396 507.742 278.293Z" fill="#2E186A"/>
<path fill-rule="evenodd" clip-rule="evenodd" d="M496.318 246.998C496.945 247.347 497.17 248.138 496.82 248.765L496.517 249.315C496.418 249.496 496.31 249.696 496.193 249.912L495.77 250.702C495.382 251.429 494.966 252.221 494.527 253.07C492.803 256.407 491.079 259.945 489.47 263.525C488.198 266.356 487.051 269.099 486.061 271.71L485.811 272.374C483.19 279.417 481.889 285.075 482.24 288.75C482.308 289.464 481.784 290.098 481.069 290.166C480.354 290.234 479.719 289.71 479.65 288.996C479.24 284.697 480.708 278.491 483.629 270.79C484.639 268.127 485.805 265.337 487.097 262.461C488.727 258.835 490.471 255.256 492.216 251.879L492.706 250.936C493.079 250.223 493.432 249.556 493.763 248.94L494.234 248.071L494.549 247.499C494.898 246.873 495.691 246.648 496.318 246.998Z" fill="#2E186A"/>
<path fill-rule="evenodd" clip-rule="evenodd" d="M490.004 293.941C491.825 293.788 493.407 293.742 494.625 293.758L495.038 293.767C495.756 293.793 496.316 294.395 496.29 295.112C496.265 295.803 495.704 296.349 495.02 296.363L494.764 296.358C493.608 296.336 492.044 296.376 490.222 296.529C487.474 296.76 484.763 297.205 482.242 297.912C479.866 298.577 477.76 299.448 475.995 300.541C475.384 300.919 474.583 300.732 474.204 300.122C473.826 299.512 474.014 298.712 474.624 298.334C476.615 297.101 478.943 296.137 481.539 295.41C484.234 294.656 487.103 294.185 490.004 293.941Z" fill="#2E186A"/>
<path fill-rule="evenodd" clip-rule="evenodd" d="M448.952 283.678C447.608 284.63 446.048 284.76 444.834 284.111C421.121 271.079 401.093 246.747 400.789 220.51C400.442 193.537 433.996 187.866 446.091 229.689C455.195 261.164 453.027 275.322 451.38 280.388C450.903 281.686 450.036 282.899 448.952 283.678Z" fill="#FEBA91"/>
<path fill-rule="evenodd" clip-rule="evenodd" d="M408.879 203.094C409.22 202.462 410.01 202.227 410.641 202.569C421.768 208.576 430.748 222.567 437.911 242.132C441.288 251.353 444.036 261.223 446.208 271.091L446.456 272.233C447.026 274.875 447.519 277.363 447.939 279.658L448.115 280.63C448.294 281.639 448.447 282.536 448.572 283.309L448.722 284.268C448.826 284.978 448.334 285.638 447.624 285.742C446.913 285.846 446.252 285.355 446.148 284.645L446.029 283.878L445.927 283.252C445.833 282.686 445.726 282.061 445.606 281.381L445.554 281.086C445.046 278.239 444.419 275.066 443.667 271.648C441.519 261.886 438.801 252.125 435.468 243.024C428.505 224.006 419.823 210.479 409.404 204.854C408.773 204.513 408.537 203.725 408.879 203.094Z" fill="#2E186A"/>
<path fill-rule="evenodd" clip-rule="evenodd" d="M400.947 224.003C401.242 223.349 402.012 223.058 402.667 223.352C407.978 225.739 414.046 228.708 419.943 231.985L420.703 232.409C429.003 237.073 435.391 241.521 439.077 245.57C439.56 246.101 439.521 246.922 438.989 247.405C438.458 247.888 437.635 247.848 437.152 247.318C433.595 243.409 427.119 238.945 418.679 234.255C412.855 231.019 406.849 228.08 401.6 225.721C400.945 225.427 400.653 224.658 400.947 224.003Z" fill="#2E186A"/>
<path fill-rule="evenodd" clip-rule="evenodd" d="M444.539 228.05C445.255 227.983 445.889 228.508 445.955 229.222C446.52 235.258 446.808 241.089 446.67 246.193L446.651 246.822C446.427 253.372 445.492 258.088 443.571 260.609C443.136 261.18 442.321 261.291 441.749 260.856C441.177 260.422 441.066 259.607 441.501 259.036C444.387 255.248 444.698 243.702 443.366 229.464C443.299 228.75 443.824 228.116 444.539 228.05Z" fill="#2E186A"/>
<path fill-rule="evenodd" clip-rule="evenodd" d="M411.873 253.982C412.326 253.425 413.144 253.339 413.703 253.791C416.711 256.224 421.157 258.802 426.645 261.421C430.496 263.258 434.627 265.007 438.759 266.607L439.474 266.882C440.415 267.242 441.307 267.576 442.14 267.881L443.269 268.289L444.258 268.638C444.938 268.871 445.3 269.609 445.067 270.288C444.842 270.942 444.147 271.302 443.488 271.118L443.258 271.041L442.712 270.849C442.558 270.795 442.396 270.737 442.224 270.675L441.246 270.32C440.189 269.934 439.04 269.502 437.819 269.029C433.63 267.406 429.44 265.633 425.524 263.765L424.776 263.405C419.461 260.829 415.122 258.282 412.066 255.809C411.507 255.358 411.421 254.54 411.873 253.982Z" fill="#2E186A"/>
<path fill-rule="evenodd" clip-rule="evenodd" d="M434.084 295.374C434.579 291.726 434.019 288.637 432.833 288.477C431.647 288.316 430.284 291.144 429.788 294.793C429.293 298.441 429.852 301.53 431.039 301.69C432.225 301.851 433.588 299.023 434.084 295.374Z" fill="#4F216C"/>
<path fill-rule="evenodd" clip-rule="evenodd" d="M431.064 301.678C431.765 300.829 430.237 298.414 427.652 296.284C425.066 294.153 422.402 293.114 421.701 293.963C421 294.811 422.528 297.226 425.113 299.356C427.699 301.487 430.363 302.526 431.064 301.678Z" fill="#4F216C"/>
<path fill-rule="evenodd" clip-rule="evenodd" d="M437.951 300.409C441.174 298.722 443.327 296.479 442.761 295.399C442.194 294.319 439.121 294.811 435.898 296.498C432.675 298.185 430.521 300.428 431.088 301.508C431.655 302.589 434.727 302.096 437.951 300.409Z" fill="#4F216C"/>
<path fill-rule="evenodd" clip-rule="evenodd" d="M426.708 306.309C429.647 304.699 431.601 302.613 431.071 301.648C430.542 300.684 427.73 301.207 424.791 302.816C421.852 304.426 419.899 306.512 420.428 307.477C420.958 308.441 423.77 307.918 426.708 306.309Z" fill="#4F216C"/>
<path fill-rule="evenodd" clip-rule="evenodd" d="M436.166 312.766C437.168 312.309 436.845 309.452 435.443 306.385C434.042 303.318 432.094 301.201 431.092 301.658C430.09 302.114 430.413 304.971 431.815 308.038C433.216 311.106 435.164 313.222 436.166 312.766Z" fill="#4F216C"/>
<path fill-rule="evenodd" clip-rule="evenodd" d="M490.714 220.243C493.142 216.01 493.442 211.625 491.385 210.448C489.328 209.272 485.693 211.75 483.265 215.983C480.838 220.216 480.538 224.601 482.594 225.778C484.651 226.954 488.287 224.476 490.714 220.243Z" fill="#4F216C"/>
<path fill-rule="evenodd" clip-rule="evenodd" d="M490.877 229.863C495.713 229.764 499.593 227.747 499.544 225.356C499.496 222.966 495.536 221.107 490.701 221.205C485.866 221.303 481.985 223.321 482.034 225.711C482.083 228.102 486.042 229.961 490.877 229.863Z" fill="#4F216C"/>
<path fill-rule="evenodd" clip-rule="evenodd" d="M481.989 225.877C483.699 224.608 482.979 220.747 480.38 217.255C477.78 213.762 474.287 211.959 472.577 213.229C470.866 214.498 471.587 218.359 474.186 221.852C476.786 225.344 480.279 227.147 481.989 225.877Z" fill="#4F216C"/>
<path fill-rule="evenodd" clip-rule="evenodd" d="M485.142 232.757C486.917 228.783 486.796 224.866 484.872 224.009C482.948 223.151 479.949 225.678 478.173 229.653C476.398 233.628 476.519 237.545 478.443 238.402C480.367 239.259 483.366 236.732 485.142 232.757Z" fill="#4F216C"/>
<path fill-rule="evenodd" clip-rule="evenodd" d="M479.004 229.178C482.884 228.76 485.86 226.86 485.652 224.934C485.445 223.009 482.131 221.787 478.251 222.204C474.371 222.622 471.394 224.522 471.602 226.448C471.81 228.373 475.124 229.595 479.004 229.178Z" fill="#4F216C"/>
<path fill-rule="evenodd" clip-rule="evenodd" d="M499.759 327.536L483.72 400.098H432.782L416.742 327.536C415.832 323.379 418.433 319.31 421.988 319.31H494.557C498.112 319.353 500.713 323.423 499.759 327.536Z" fill="white"/>
<path fill-rule="evenodd" clip-rule="evenodd" d="M494.573 318.011L421.988 318.011C417.524 318.011 414.398 322.91 415.472 327.813L431.512 400.378C431.644 400.974 432.172 401.397 432.782 401.397H483.719C484.33 401.397 484.858 400.974 484.989 400.378L501.029 327.816C502.152 322.974 499.037 318.065 494.573 318.011ZM494.556 320.608L494.644 320.611C497.224 320.723 499.207 323.851 498.521 327.112L482.674 398.8H433.827L418.012 327.256C417.267 323.854 419.338 320.608 421.988 320.608H494.556Z" fill="#2E186A"/>
<path fill-rule="evenodd" clip-rule="evenodd" d="M408.419 193.494C406.902 183.449 399.272 175.267 389.128 173.145C380.761 171.413 372.264 169.638 369.923 169.032L369.62 170.331L316.255 166.218L315.691 158.685L293.192 158.901C267.789 161.239 248.801 201.763 239.394 226.398L234.192 240.08L273.814 225.056C273.684 232.46 274.378 239.906 276.242 246.877C285.823 282.639 266.922 293.463 266.922 293.463L256.604 340.351L244.032 339.485V402.22L378.073 401.96L375.993 293.809L408.419 193.494ZM375.993 253.718V253.198L376.036 253.718H375.993Z" fill="#4F216C"/>
<path fill-rule="evenodd" clip-rule="evenodd" d="M377.467 348.75L245.29 350.006L244.076 402.22H378.073L377.467 348.75Z" fill="#2E186A"/>
<path fill-rule="evenodd" clip-rule="evenodd" d="M287.04 194.566C287.357 193.922 288.137 193.657 288.781 193.974C289.402 194.278 289.671 195.012 289.407 195.64L289.374 195.712L281.441 211.818C281.124 212.462 280.344 212.727 279.7 212.41C279.079 212.105 278.81 211.372 279.074 210.744L279.107 210.671L287.04 194.566Z" fill="#2E186A"/>
<path fill-rule="evenodd" clip-rule="evenodd" d="M378.318 135.153C379 134.929 379.735 135.3 379.959 135.982C381.074 139.37 381.049 143.636 379.844 147.829C377.508 155.947 371.434 161.499 365.872 160.072C365.176 159.894 364.757 159.186 364.936 158.491C365.114 157.796 365.823 157.378 366.519 157.556C370.416 158.556 375.348 154.047 377.344 147.112C378.411 143.4 378.433 139.663 377.488 136.793C377.264 136.111 377.635 135.377 378.318 135.153Z" fill="#4F216C"/>
<path fill-rule="evenodd" clip-rule="evenodd" d="M312.424 124.286C313.107 124.062 313.842 124.433 314.066 125.114C315.181 128.503 315.156 132.769 313.95 136.962C311.615 145.08 305.541 150.632 299.978 149.205C299.283 149.026 298.864 148.318 299.042 147.624C299.221 146.929 299.93 146.51 300.626 146.689C304.522 147.689 309.455 143.18 311.45 136.245C312.518 132.533 312.539 128.796 311.595 125.925C311.371 125.244 311.742 124.51 312.424 124.286Z" fill="#4F216C"/>
<path fill-rule="evenodd" clip-rule="evenodd" d="M381.715 80.4932C372.481 71.661 370.834 31.3964 401.873 8.53652C433.303 -14.5831 453.071 15.7235 457.319 23.6033C461.567 31.483 462.911 51.7452 436.294 67.3314C409.676 82.9177 392.249 90.5377 381.715 80.4932Z" fill="#2E186A"/>
<path fill-rule="evenodd" clip-rule="evenodd" d="M364.678 95.9931L365.242 96.4693C368.71 99.4134 374.085 99.0237 377.207 95.6467L386.007 86.2083C389.171 82.8313 388.911 77.7225 385.443 74.7784L384.88 74.3022C381.412 71.3581 376.036 71.7477 372.915 75.1248L364.115 84.5631C360.95 87.9834 361.21 93.0923 364.678 95.9931Z" fill="#4F216C"/>
<path fill-rule="evenodd" clip-rule="evenodd" d="M347.452 108.487C358.954 97.4253 362.827 82.803 356.102 75.8275C349.376 68.8521 334.599 72.165 323.096 83.2271C311.594 94.2892 307.721 108.912 314.447 115.887C321.172 122.862 335.949 119.55 347.452 108.487Z" fill="#2E186A"/>
<path fill-rule="evenodd" clip-rule="evenodd" d="M341.962 108.115C351.153 120.931 363.508 127.079 373.955 126.819C385.053 126.559 393.116 102.573 383.926 89.758C374.736 76.9426 349.679 68.5434 341.009 74.3449C332.338 80.1898 332.772 95.2998 341.962 108.115Z" fill="#2E186A"/>
<path fill-rule="evenodd" clip-rule="evenodd" d="M377.277 135.184C382.26 133.553 385.042 128.4 383.492 123.674C381.942 118.948 376.646 116.438 371.663 118.068C366.68 119.698 363.898 124.851 365.448 129.577C366.998 134.304 372.294 136.814 377.277 135.184Z" fill="white"/>
<path fill-rule="evenodd" clip-rule="evenodd" d="M371.256 116.831C365.605 118.679 362.434 124.555 364.215 129.979C365.995 135.403 372.034 138.268 377.684 136.421C383.334 134.573 386.505 128.697 384.725 123.272C382.945 117.848 376.906 114.984 371.256 116.831ZM372.066 119.3C376.379 117.89 380.931 120.049 382.254 124.08C383.577 128.111 381.187 132.541 376.874 133.951C372.561 135.361 368.009 133.202 366.686 129.171C365.363 125.14 367.753 120.71 372.066 119.3Z" fill="#2E186A"/>
<path fill-rule="evenodd" clip-rule="evenodd" d="M312.981 123.796C317.963 122.166 320.746 117.013 319.196 112.286C317.645 107.56 312.349 105.05 307.367 106.68C302.384 108.31 299.601 113.463 301.152 118.19C302.702 122.916 307.998 125.426 312.981 123.796Z" fill="white"/>
<path fill-rule="evenodd" clip-rule="evenodd" d="M306.959 105.443C301.309 107.291 298.138 113.167 299.918 118.592C301.698 124.016 307.738 126.88 313.388 125.033C319.038 123.185 322.209 117.309 320.429 111.885C318.649 106.461 312.609 103.596 306.959 105.443ZM307.769 107.913C312.082 106.502 316.635 108.662 317.958 112.693C319.281 116.724 316.89 121.153 312.578 122.564C308.265 123.974 303.712 121.814 302.389 117.783C301.066 113.752 303.457 109.323 307.769 107.913Z" fill="#2E186A"/>
<path fill-rule="evenodd" clip-rule="evenodd" d="M330.214 147.774L325.966 160.59L314.434 159.854C313.307 161.455 303.813 191.805 332.858 196.048C351.933 198.863 365.242 184.921 374.475 171.37L358.609 167.95L369.1 131.495L330.214 147.774Z" fill="white"/>
<path fill-rule="evenodd" clip-rule="evenodd" d="M329.711 146.576L329.633 146.612C329.324 146.766 329.088 147.037 328.979 147.366L325.046 159.229L314.517 158.557C314.065 158.528 313.631 158.737 313.37 159.107C312.845 159.853 312.014 162.505 311.475 165.346C310.737 169.237 310.526 173.285 311.043 177.133C312.494 187.948 319.305 195.381 332.67 197.333C341.903 198.696 350.336 196.371 358.106 190.908C364.396 186.485 370.012 180.229 375.55 172.101L375.593 172.035C376.045 171.28 375.626 170.289 374.75 170.1L360.243 166.973L370.35 131.854C370.651 130.806 369.604 129.876 368.597 130.297L329.711 146.576ZM367.1 133.74L357.359 167.591L357.34 167.666C357.182 168.364 357.624 169.066 358.334 169.219L372.298 172.229L372.267 172.273C367.259 179.37 362.182 184.865 356.608 188.784C349.359 193.881 341.587 196.023 333.048 194.763C320.872 192.985 314.923 186.492 313.621 176.788C313.145 173.241 313.342 169.465 314.031 165.83L314.061 165.674C314.387 163.993 314.832 162.382 315.156 161.43L315.234 161.206L325.883 161.886L325.963 161.888C326.521 161.89 327.023 161.533 327.2 160.998L331.262 148.743L367.1 133.74Z" fill="#2E186A"/>
<path fill-rule="evenodd" clip-rule="evenodd" d="M370.754 128.151C377.255 107.886 369.735 87.3642 353.957 82.3159C338.18 77.2675 320.119 89.6038 313.618 109.87C307.117 130.136 314.637 150.657 330.414 155.705C346.192 160.754 364.253 148.417 370.754 128.151Z" fill="white"/>
<path fill-rule="evenodd" clip-rule="evenodd" d="M312.388 109.481C305.682 130.376 313.474 151.662 330.009 156.95C346.543 162.238 365.277 149.434 371.983 128.539C378.69 107.644 370.898 86.3584 354.363 81.0707C337.829 75.7829 319.095 88.586 312.388 109.481ZM314.865 110.273C321.17 90.6276 338.558 78.7444 353.569 83.545C368.58 88.3456 375.812 108.102 369.507 127.747C363.201 147.393 345.814 159.276 330.803 154.475C315.792 149.675 308.559 129.918 314.865 110.273Z" fill="#2E186A"/>
<path fill-rule="evenodd" clip-rule="evenodd" d="M336.856 110.181C337.127 109.516 337.886 109.197 338.551 109.467C339.192 109.728 339.513 110.442 339.292 111.088L339.265 111.16L333.374 125.615L338.528 126.446C339.212 126.557 339.684 127.181 339.615 127.86L339.605 127.936C339.494 128.619 338.869 129.091 338.189 129.021L338.113 129.011L332.487 128.103C331.118 127.893 330.303 126.482 330.755 125.16L330.787 125.074L336.856 110.181Z" fill="#2E186A"/>
<path fill-rule="evenodd" clip-rule="evenodd" d="M347.34 102.454C350.316 100.418 353.429 100.925 356.233 102.917C356.75 103.284 357.216 103.676 357.626 104.069C357.877 104.311 358.059 104.505 358.166 104.629C358.633 105.174 358.57 105.994 358.025 106.46C357.5 106.909 356.721 106.868 356.246 106.38L356.113 106.234C356.046 106.162 355.949 106.062 355.824 105.942C355.501 105.633 355.132 105.322 354.726 105.034C352.718 103.608 350.73 103.284 348.81 104.597C348.217 105.003 347.408 104.852 347.002 104.26C346.596 103.668 346.747 102.86 347.34 102.454Z" fill="#2E186A"/>
<path fill-rule="evenodd" clip-rule="evenodd" d="M328.631 98.7966C330.243 98.5278 331.912 98.7648 333.533 99.3142C334.222 99.5477 334.753 99.7847 335.073 99.9549C335.707 100.292 335.948 101.078 335.611 101.712C335.286 102.321 334.544 102.567 333.923 102.283L333.769 102.207C333.731 102.189 333.683 102.166 333.626 102.14L333.566 102.113C333.309 101.998 333.017 101.883 332.697 101.774C331.447 101.351 330.184 101.171 329.059 101.359C327.901 101.552 326.952 102.123 326.208 103.187C325.797 103.775 324.986 103.919 324.397 103.509C323.809 103.098 323.664 102.288 324.076 101.7C325.232 100.046 326.802 99.1015 328.631 98.7966Z" fill="#2E186A"/>
<path fill-rule="evenodd" clip-rule="evenodd" d="M350.823 117.4C351.004 115.519 350.127 113.897 348.864 113.776C347.601 113.654 346.43 115.08 346.249 116.961C346.068 118.841 346.945 120.464 348.209 120.585C349.472 120.706 350.642 119.28 350.823 117.4Z" fill="#2E186A"/>
<path fill-rule="evenodd" clip-rule="evenodd" d="M329.549 115.708C329.926 113.857 329.223 112.151 327.98 111.899C326.736 111.646 325.423 112.942 325.046 114.793C324.669 116.644 325.371 118.349 326.615 118.602C327.858 118.854 329.172 117.559 329.549 115.708Z" fill="#2E186A"/>
<path fill-rule="evenodd" clip-rule="evenodd" d="M365.502 84.9097C365.502 84.9097 353.537 89.8454 354.274 97.4221L303.25 94.0883C303.25 94.0883 297.961 55.4257 358.956 73.9128L365.502 84.9097Z" fill="#2E186A"/>
<path fill-rule="evenodd" clip-rule="evenodd" d="M361.947 86.5977C361.947 86.5977 357.915 111.925 374.302 118.853L374.605 96.4257L361.947 86.5977Z" fill="#2E186A"/>
<path fill-rule="evenodd" clip-rule="evenodd" d="M294.284 131.307C296.67 123.084 302.897 117.487 308.471 119.122C309.161 119.324 309.555 120.046 309.353 120.734C309.151 121.422 308.428 121.817 307.739 121.615C303.863 120.478 298.818 125.012 296.782 132.03C294.771 138.963 296.565 145.421 300.368 146.62L300.426 146.637L300.531 146.664L300.584 146.679L300.6 146.683C301.151 146.812 301.566 147.29 301.6 147.871L301.602 147.947C301.602 148.665 301.02 149.246 300.302 149.246C300.152 149.246 300.039 149.226 299.92 149.194L299.839 149.17L299.773 149.153C294.244 147.583 291.948 139.677 294.214 131.553L294.284 131.307Z" fill="#4F216C"/>
<path fill-rule="evenodd" clip-rule="evenodd" d="M360.178 142.174C362.563 133.951 368.79 128.355 374.365 129.989C375.054 130.191 375.449 130.913 375.246 131.601C375.044 132.29 374.321 132.684 373.632 132.482C369.756 131.345 364.712 135.88 362.676 142.897C360.664 149.83 362.459 156.289 366.262 157.487L366.319 157.504L366.425 157.531L366.478 157.546L366.494 157.55C367.044 157.679 367.46 158.157 367.494 158.738L367.496 158.815C367.496 159.532 366.914 160.113 366.195 160.113C366.045 160.113 365.932 160.093 365.814 160.061L365.733 160.037L365.666 160.021C360.137 158.45 357.842 150.544 360.108 142.42L360.178 142.174Z" fill="#4F216C"/>
<path fill-rule="evenodd" clip-rule="evenodd" d="M349.346 130.724C349.557 130.038 350.285 129.653 350.972 129.864C351.658 130.075 352.043 130.802 351.832 131.488C350.569 135.589 347.739 138.138 343.9 139.363C341.357 140.174 338.705 140.324 336.324 140.101L336 140.067C335.805 140.045 335.654 140.024 335.552 140.007C334.843 139.891 334.363 139.223 334.48 138.515C334.592 137.833 335.218 137.362 335.898 137.434L336.164 137.471C336.268 137.484 336.404 137.499 336.568 137.514C338.629 137.708 340.951 137.577 343.108 136.889C346.183 135.908 348.351 133.954 349.346 130.724Z" fill="#2E186A"/>
<path fill-rule="evenodd" clip-rule="evenodd" d="M200.898 350.828L187.112 401.311H269.956L256.517 350.396L200.898 350.828Z" fill="#5D21D1"/>
<path fill-rule="evenodd" clip-rule="evenodd" d="M336.803 352.69H127.591C125.294 352.69 123.43 350.828 123.43 348.533L124.6 213.755C124.6 211.461 125.294 207.218 127.548 207.218H336.803C339.101 207.218 340.965 209.079 340.965 211.374V348.533C340.921 350.828 339.057 352.69 336.803 352.69Z" fill="#5D21D1"/>
<path fill-rule="evenodd" clip-rule="evenodd" d="M303.25 331.995H152.128C149.484 331.995 147.36 329.873 147.36 327.232V225.575C147.36 222.934 149.484 220.812 152.128 220.812H303.25C305.894 220.812 308.018 222.934 308.018 225.575V327.275C308.018 329.873 305.851 331.995 303.25 331.995Z" fill="white"/>
<path fill-rule="evenodd" clip-rule="evenodd" d="M275.982 326.193H178.702C176.491 326.193 174.714 324.418 174.714 322.21V258.262C174.714 256.054 176.491 254.279 178.702 254.279H276.025C278.236 254.279 280.013 256.054 280.013 258.262V322.166C280.013 324.374 278.193 326.193 275.982 326.193Z" fill="#2E186A"/>
<path fill-rule="evenodd" clip-rule="evenodd" d="M227.385 363.644C221.137 363.644 216.071 368.703 216.071 374.944C216.071 381.184 221.137 386.244 227.385 386.244C233.634 386.244 238.7 381.184 238.7 374.944C238.7 368.703 233.634 363.644 227.385 363.644ZM227.385 366.241C232.198 366.241 236.099 370.137 236.099 374.944C236.099 379.75 232.198 383.646 227.385 383.646C222.573 383.646 218.672 379.75 218.672 374.944C218.672 370.137 222.573 366.241 227.385 366.241Z" fill="white"/>
<path fill-rule="evenodd" clip-rule="evenodd" d="M249.241 351.598C249.915 351.44 250.59 351.837 250.784 352.492L250.804 352.566L261.859 399.628C262.023 400.326 261.589 401.025 260.889 401.189C260.215 401.347 259.54 400.95 259.346 400.295L259.326 400.221L248.272 353.159C248.108 352.461 248.542 351.762 249.241 351.598Z" fill="white"/>
<path fill-rule="evenodd" clip-rule="evenodd" d="M315.735 215.054H139.643C136.28 215.054 133.574 217.757 133.574 221.115V335.588C133.574 338.946 136.28 341.649 139.643 341.649H315.735C319.097 341.649 321.804 338.946 321.804 335.588V221.115C321.804 217.757 319.097 215.054 315.735 215.054ZM139.643 217.651H315.735C317.661 217.651 319.203 219.191 319.203 221.115V335.588C319.203 337.511 317.661 339.051 315.735 339.051H139.643C137.717 339.051 136.175 337.511 136.175 335.588V221.115C136.175 219.191 137.717 217.651 139.643 217.651Z" fill="white"/>
<path fill-rule="evenodd" clip-rule="evenodd" d="M330.951 207.088C331.643 207.088 332.21 207.629 332.249 208.31L332.251 208.387V351.391C332.251 352.108 331.669 352.69 330.951 352.69C330.258 352.69 329.692 352.149 329.652 351.467L329.65 351.391V208.387C329.65 207.669 330.233 207.088 330.951 207.088Z" fill="white"/>
<path fill-rule="evenodd" clip-rule="evenodd" d="M291.545 225.316H112.332L136.262 216.96C137.736 216.44 139.297 216.181 140.857 216.181H316.992L291.545 225.316Z" fill="#4F216C"/>
<path fill-rule="evenodd" clip-rule="evenodd" d="M316.992 214.881H140.857C139.139 214.881 137.433 215.169 135.829 215.734L111.903 224.089C110.52 224.572 110.868 226.614 112.332 226.614H291.545C291.695 226.614 291.844 226.588 291.985 226.537L317.432 217.402C318.804 216.909 318.45 214.881 316.992 214.881ZM309.528 217.479L291.317 224.016H119.991L136.691 218.185C138.019 217.717 139.432 217.479 140.857 217.479H309.528Z" fill="#2E186A"/>
<path fill-rule="evenodd" clip-rule="evenodd" d="M130.626 225.272H112.332C112.332 225.272 112.289 238.088 112.289 238.261C112.289 243.023 116.407 246.877 121.479 246.877C126.551 246.877 130.669 243.023 130.669 238.261C130.669 237.915 130.626 225.272 130.626 225.272Z" fill="#4F216C"/>
<path fill-rule="evenodd" clip-rule="evenodd" d="M130.626 223.974H112.332C111.641 223.974 111.076 224.512 111.034 225.192L110.988 238.261C110.988 243.757 115.704 248.176 121.479 248.176C127.197 248.176 131.876 243.845 131.969 238.426L131.927 225.268C131.924 224.552 131.343 223.974 130.626 223.974ZM113.628 226.571H129.33L129.369 238.261C129.369 242.284 125.854 245.578 121.479 245.578C117.105 245.578 113.589 242.284 113.589 238.261L113.628 226.571Z" fill="#2E186A"/>
<path fill-rule="evenodd" clip-rule="evenodd" d="M148.487 225.272H130.193C130.193 225.272 130.149 238.088 130.149 238.261C130.149 243.023 134.268 246.877 139.34 246.877C144.412 246.877 148.53 243.023 148.53 238.261C148.574 237.915 148.487 225.272 148.487 225.272Z" fill="white"/>
<path fill-rule="evenodd" clip-rule="evenodd" d="M148.487 223.974H130.193C129.502 223.974 128.936 224.512 128.895 225.192L128.849 238.261C128.849 243.757 133.565 248.176 139.34 248.176L139.513 248.174C145.095 248.089 149.645 243.876 149.824 238.586L149.839 237.813C149.848 236.904 149.842 234.976 149.826 231.764L149.787 225.264C149.782 224.55 149.202 223.974 148.487 223.974ZM131.488 226.571H147.195L147.239 235.204C147.244 236.914 147.244 238.065 147.24 238.1C147.233 238.153 147.23 238.207 147.23 238.261C147.23 242.284 143.714 245.578 139.34 245.578C134.965 245.578 131.45 242.284 131.45 238.261L131.488 226.571Z" fill="#2E186A"/>
<path fill-rule="evenodd" clip-rule="evenodd" d="M166.391 225.272H148.097C148.097 225.272 148.053 238.088 148.053 238.261C148.053 243.023 152.172 246.877 157.244 246.877C162.316 246.877 166.434 243.023 166.434 238.261C166.434 237.915 166.391 225.272 166.391 225.272Z" fill="#4F216C"/>
<path fill-rule="evenodd" clip-rule="evenodd" d="M166.391 223.974H148.097C147.406 223.974 146.84 224.512 146.798 225.192L146.753 238.261C146.753 243.757 151.468 248.176 157.244 248.176C162.961 248.176 167.64 243.845 167.733 238.426L167.691 225.268C167.689 224.552 167.107 223.974 166.391 223.974ZM149.392 226.571H165.094L165.133 238.261C165.133 242.284 161.618 245.578 157.244 245.578C152.869 245.578 149.354 242.284 149.354 238.261L149.392 226.571Z" fill="#2E186A"/>
<path fill-rule="evenodd" clip-rule="evenodd" d="M184.251 225.272H165.957C165.957 225.272 165.914 238.088 165.914 238.261C165.914 243.023 170.032 246.877 175.104 246.877C180.176 246.877 184.295 243.023 184.295 238.261C184.295 237.915 184.251 225.272 184.251 225.272Z" fill="white"/>
<path fill-rule="evenodd" clip-rule="evenodd" d="M184.251 223.974H165.957C165.266 223.974 164.701 224.512 164.659 225.192L164.613 238.261C164.613 243.757 169.329 248.176 175.104 248.176C180.822 248.176 185.501 243.845 185.594 238.426L185.552 225.268C185.549 224.552 184.968 223.974 184.251 223.974ZM167.253 226.571H182.955L182.994 238.261C182.994 242.284 179.479 245.578 175.104 245.578C170.73 245.578 167.214 242.284 167.214 238.261L167.253 226.571Z" fill="#2E186A"/>
<path fill-rule="evenodd" clip-rule="evenodd" d="M202.112 225.272H183.818C183.818 225.272 183.774 238.088 183.774 238.261C183.774 243.023 187.893 246.877 192.965 246.877C198.037 246.877 202.155 243.023 202.155 238.261C202.199 237.915 202.112 225.272 202.112 225.272Z" fill="#4F216C"/>
<path fill-rule="evenodd" clip-rule="evenodd" d="M202.112 223.974H183.818C183.127 223.974 182.561 224.512 182.52 225.192L182.474 238.261C182.474 243.757 187.19 248.176 192.965 248.176L193.138 248.174C198.72 248.089 203.27 243.876 203.449 238.586L203.464 237.813C203.473 236.904 203.467 234.976 203.451 231.764L203.412 225.264C203.407 224.55 202.827 223.974 202.112 223.974ZM185.114 226.571H200.82L200.864 235.204C200.869 236.914 200.869 238.065 200.865 238.1C200.858 238.153 200.855 238.207 200.855 238.261C200.855 242.284 197.339 245.578 192.965 245.578C188.59 245.578 185.075 242.284 185.075 238.261L185.114 226.571Z" fill="#2E186A"/>
<path fill-rule="evenodd" clip-rule="evenodd" d="M220.016 225.272H201.722C201.722 225.272 201.678 238.088 201.678 238.261C201.678 243.023 205.797 246.877 210.869 246.877C215.941 246.877 220.059 243.023 220.059 238.261C220.059 237.915 220.016 225.272 220.016 225.272Z" fill="white"/>
<path fill-rule="evenodd" clip-rule="evenodd" d="M220.016 223.974H201.722C201.031 223.974 200.465 224.512 200.424 225.192L200.378 238.261C200.378 243.757 205.094 248.176 210.869 248.176C216.586 248.176 221.265 243.845 221.358 238.426L221.316 225.268C221.314 224.552 220.732 223.974 220.016 223.974ZM203.017 226.571H218.72L218.759 238.261C218.759 242.284 215.243 245.578 210.869 245.578C206.494 245.578 202.979 242.284 202.979 238.261L203.017 226.571Z" fill="#2E186A"/>
<path fill-rule="evenodd" clip-rule="evenodd" d="M237.876 225.272H219.582C219.582 225.272 219.539 238.088 219.539 238.261C219.539 243.023 223.657 246.877 228.729 246.877C233.801 246.877 237.92 243.023 237.92 238.261C237.92 237.915 237.876 225.272 237.876 225.272Z" fill="#4F216C"/>
<path fill-rule="evenodd" clip-rule="evenodd" d="M237.876 223.974H219.582C218.891 223.974 218.326 224.512 218.284 225.192L218.238 238.261C218.238 243.757 222.954 248.176 228.729 248.176C234.447 248.176 239.126 243.845 239.219 238.426L239.177 225.268C239.174 224.552 238.593 223.974 237.876 223.974ZM220.878 226.571H236.58L236.619 238.261C236.619 242.284 233.104 245.578 228.729 245.578C224.355 245.578 220.839 242.284 220.839 238.261L220.878 226.571Z" fill="#2E186A"/>
<path fill-rule="evenodd" clip-rule="evenodd" d="M255.737 225.272H237.443C237.443 225.272 237.4 238.088 237.4 238.261C237.4 243.023 241.518 246.877 246.59 246.877C251.662 246.877 255.78 243.023 255.78 238.261C255.824 237.915 255.737 225.272 255.737 225.272Z" fill="white"/>
<path fill-rule="evenodd" clip-rule="evenodd" d="M255.737 223.974H237.443C236.726 223.974 236.145 224.552 236.142 225.268L236.099 238.261C236.099 243.757 240.815 248.176 246.59 248.176L246.763 248.174C252.345 248.089 256.896 243.876 257.075 238.586L257.089 237.813C257.098 236.904 257.092 234.976 257.076 231.764L257.038 225.264C257.033 224.55 256.452 223.974 255.737 223.974ZM238.739 226.571H254.445L254.489 235.204C254.494 236.914 254.494 238.065 254.49 238.1C254.483 238.153 254.48 238.207 254.48 238.261C254.48 242.284 250.964 245.578 246.59 245.578C242.265 245.578 238.78 242.359 238.701 238.398L238.739 226.571Z" fill="#2E186A"/>
<path fill-rule="evenodd" clip-rule="evenodd" d="M273.641 225.272H255.347C255.347 225.272 255.304 238.088 255.304 238.261C255.304 243.023 259.422 246.877 264.494 246.877C269.566 246.877 273.684 243.023 273.684 238.261C273.684 237.915 273.641 225.272 273.641 225.272Z" fill="#4F216C"/>
<path fill-rule="evenodd" clip-rule="evenodd" d="M273.641 223.974H255.347C254.656 223.974 254.09 224.512 254.049 225.192L254.003 238.261C254.003 243.757 258.719 248.176 264.494 248.176C270.211 248.176 274.89 243.845 274.983 238.426L274.941 225.268C274.939 224.552 274.357 223.974 273.641 223.974ZM256.643 226.571H272.345L272.384 238.261C272.384 242.284 268.868 245.578 264.494 245.578C260.119 245.578 256.604 242.284 256.604 238.261L256.643 226.571Z" fill="#2E186A"/>
<path fill-rule="evenodd" clip-rule="evenodd" d="M291.502 225.272H273.207C273.207 225.272 273.164 238.088 273.164 238.261C273.164 243.023 277.282 246.877 282.355 246.877C287.427 246.877 291.545 243.023 291.545 238.261C291.545 237.915 291.502 225.272 291.502 225.272Z" fill="white"/>
<path fill-rule="evenodd" clip-rule="evenodd" d="M291.501 223.974H273.207C272.491 223.974 271.909 224.552 271.907 225.268L271.863 238.261C271.863 243.757 276.579 248.176 282.354 248.176C288.072 248.176 292.751 243.845 292.844 238.426L292.802 225.268C292.799 224.552 292.218 223.974 291.501 223.974ZM274.503 226.571H290.205L290.244 238.264C290.244 242.284 286.729 245.578 282.354 245.578C278.03 245.578 274.545 242.359 274.466 238.398L274.503 226.571Z" fill="#2E186A"/>
<path fill-rule="evenodd" clip-rule="evenodd" d="M155.671 214.917C156.346 214.671 157.093 215.019 157.339 215.693C157.576 216.342 157.261 217.059 156.633 217.329L156.562 217.358L131.331 226.536C130.657 226.782 129.91 226.434 129.664 225.76C129.427 225.11 129.742 224.394 130.37 224.123L130.441 224.095L155.671 214.917Z" fill="#2E186A"/>
<path fill-rule="evenodd" clip-rule="evenodd" d="M172.882 214.916C173.558 214.671 174.304 215.019 174.549 215.693C174.786 216.343 174.471 217.059 173.842 217.33L173.771 217.358L148.498 226.536C147.823 226.781 147.077 226.434 146.831 225.76C146.594 225.109 146.91 224.393 147.538 224.123L147.609 224.095L172.882 214.916Z" fill="#2E186A"/>
<path fill-rule="evenodd" clip-rule="evenodd" d="M191.003 214.916C191.678 214.671 192.424 215.019 192.67 215.693C192.906 216.343 192.591 217.059 191.963 217.33L191.892 217.358L166.618 226.536C165.943 226.781 165.197 226.434 164.952 225.76C164.715 225.109 165.03 224.393 165.658 224.123L165.729 224.095L191.003 214.916Z" fill="#2E186A"/>
<path fill-rule="evenodd" clip-rule="evenodd" d="M208.907 214.916C209.582 214.671 210.328 215.019 210.574 215.693C210.81 216.343 210.495 217.059 209.867 217.33L209.796 217.358L184.522 226.536C183.847 226.781 183.101 226.434 182.856 225.76C182.619 225.109 182.934 224.393 183.562 224.123L183.634 224.095L208.907 214.916Z" fill="#2E186A"/>
<path fill-rule="evenodd" clip-rule="evenodd" d="M226.81 214.917C227.485 214.671 228.232 215.019 228.477 215.693C228.715 216.342 228.4 217.059 227.772 217.329L227.701 217.358L202.47 226.536C201.795 226.782 201.049 226.434 200.803 225.76C200.566 225.11 200.881 224.394 201.509 224.123L201.58 224.095L226.81 214.917Z" fill="#2E186A"/>
<path fill-rule="evenodd" clip-rule="evenodd" d="M245.104 214.917C245.779 214.671 246.526 215.019 246.771 215.693C247.009 216.342 246.694 217.059 246.066 217.329L245.995 217.358L220.764 226.536C220.089 226.782 219.343 226.434 219.097 225.76C218.86 225.11 219.175 224.394 219.803 224.123L219.874 224.095L245.104 214.917Z" fill="#2E186A"/>
<path fill-rule="evenodd" clip-rule="evenodd" d="M262.661 214.917C263.336 214.671 264.083 215.019 264.329 215.693C264.566 216.342 264.251 217.059 263.623 217.329L263.552 217.358L238.321 226.536C237.647 226.782 236.9 226.434 236.654 225.76C236.417 225.11 236.732 224.394 237.36 224.123L237.431 224.095L262.661 214.917Z" fill="#2E186A"/>
<path fill-rule="evenodd" clip-rule="evenodd" d="M281.042 214.917C281.717 214.671 282.464 215.019 282.71 215.693C282.947 216.342 282.632 217.059 282.004 217.329L281.933 217.358L256.702 226.536C256.028 226.782 255.281 226.434 255.035 225.76C254.798 225.11 255.113 224.394 255.741 224.123L255.812 224.095L281.042 214.917Z" fill="#2E186A"/>
<path fill-rule="evenodd" clip-rule="evenodd" d="M297.689 214.917C298.364 214.671 299.11 215.019 299.356 215.693C299.593 216.342 299.278 217.059 298.65 217.329L298.579 217.358L273.349 226.536C272.674 226.782 271.928 226.434 271.682 225.76C271.445 225.11 271.76 224.394 272.388 224.123L272.459 224.095L297.689 214.917Z" fill="#2E186A"/>
<path fill-rule="evenodd" clip-rule="evenodd" d="M278.106 326.193H98.7196C97.5925 326.193 96.6821 325.284 96.6821 324.158V320.002C96.6821 318.876 97.5925 317.967 98.7196 317.967H278.106C279.233 317.967 280.143 318.876 280.143 320.002V324.158C280.143 325.284 279.233 326.193 278.106 326.193Z" fill="#4F216C"/>
<path fill-rule="evenodd" clip-rule="evenodd" d="M114.153 318.097H236.576C240.781 318.097 244.206 314.676 244.206 310.477V271.078C244.206 266.878 240.781 263.458 236.576 263.458H114.153C109.948 263.458 106.523 266.878 106.523 271.078V310.477C106.523 314.676 109.948 318.097 114.153 318.097Z" fill="#FEBA91"/>
<path fill-rule="evenodd" clip-rule="evenodd" d="M191.014 263.545V317.577H188.413V263.545H191.014Z" fill="white"/>
<path fill-rule="evenodd" clip-rule="evenodd" d="M118.098 306.537H144.585C146.189 306.537 147.446 305.238 147.446 303.679V294.154C147.446 292.552 146.146 291.297 144.585 291.297H118.098C116.494 291.297 115.237 292.596 115.237 294.154V303.679C115.237 305.238 116.494 306.537 118.098 306.537Z" fill="white"/>
<path fill-rule="evenodd" clip-rule="evenodd" d="M203.716 402.22H60.8744C59.5306 402.22 58.4468 401.137 58.4468 399.795V395.206C58.4468 393.864 59.5306 392.781 60.8744 392.781H203.716C205.06 392.781 206.143 393.864 206.143 395.206V399.795C206.187 401.137 205.06 402.22 203.716 402.22Z" fill="#4F216C"/>
<path fill-rule="evenodd" clip-rule="evenodd" d="M352.886 402.22H309.189C307.845 402.22 306.761 401.137 306.761 399.795V395.206C306.761 393.864 307.845 392.781 309.189 392.781H352.886C354.23 392.781 355.314 393.864 355.314 395.206V399.795C355.314 401.137 354.23 402.22 352.886 402.22Z" fill="#4F216C"/>
<path fill-rule="evenodd" clip-rule="evenodd" d="M292.672 280.04L285.866 263.372C283.785 259.908 286.906 256.877 290.331 259.475C291.632 260.471 293.279 261.9 294.84 264.497C299.348 271.944 309.319 287.531 308.755 286.924C308.192 286.318 292.672 280.04 292.672 280.04Z" fill="white"/>
<path fill-rule="evenodd" clip-rule="evenodd" d="M284.668 263.898L284.697 263.949L291.468 280.531C291.589 280.828 291.816 281.069 292.104 281.209L292.211 281.255L294.695 282.266L296.574 283.037C297.613 283.463 298.639 283.887 299.63 284.299L302.156 285.357C303.473 285.912 304.612 286.4 305.537 286.807L306.183 287.093C306.684 287.317 307.094 287.507 307.406 287.658L307.641 287.774C307.688 287.797 307.73 287.819 307.769 287.839L307.926 287.925L307.962 287.956L308.028 288.006C308.066 288.032 308.106 288.054 308.227 288.12L308.335 288.168C308.527 288.249 308.614 288.238 309.224 288.161L309.529 287.941C309.949 287.63 309.966 287.559 310.064 287.135L310.075 286.914C310.078 286.813 310.072 286.782 310.055 286.689L310.022 286.559C310.006 286.5 309.999 286.483 309.979 286.433C309.94 286.337 309.895 286.251 309.824 286.124L309.682 285.878C309.596 285.733 309.489 285.554 309.36 285.342L308.587 284.085L299.873 270.18C298.331 267.707 297.108 265.729 296.142 264.138L295.952 263.825C294.591 261.56 293.172 260.044 291.322 258.599L291.118 258.441C286.644 255.047 281.997 259.216 284.668 263.898ZM289.544 260.51L289.54 260.506C291.183 261.765 292.404 263.027 293.588 264.942L294.552 266.524C295.437 267.971 296.503 269.691 297.784 271.744L305.418 283.917L304.429 283.495C303.903 283.272 303.332 283.031 302.713 282.771L301.222 282.148C299.85 281.576 298.403 280.978 296.938 280.377L293.669 279.043L287.07 262.881C287.045 262.82 287.015 262.761 286.981 262.704C285.597 260.399 287.322 258.824 289.544 260.51Z" fill="#2E186A"/>
<path fill-rule="evenodd" clip-rule="evenodd" d="M345.517 274.109L309.579 282.032L291.978 273.07L268.482 265.926C265.621 265.103 263.497 268.697 265.708 270.732C266.878 271.771 284.565 277.702 284.565 277.702L262.066 275.191C259.769 274.931 258.251 277.616 259.725 279.434C261.199 281.252 263.844 281.382 267.398 282.205C269.566 282.681 283.482 284.326 283.482 284.326L263.627 285.712C258.728 286.275 258.858 293.288 268.222 292.12C273.077 291.513 278.973 291.557 283.091 290.431L269.653 294.284C265.231 296.969 269.783 301.948 288.727 296.233C300.258 305.498 306.284 307.23 316.688 301.125C316.732 301.082 351.499 295.41 351.499 295.41L345.517 274.109Z" fill="white"/>
<path fill-rule="evenodd" clip-rule="evenodd" d="M264.844 271.703L264.875 271.73C265.536 272.278 267.988 273.263 272.42 274.861L273.143 275.121L262.211 273.901C258.753 273.51 256.512 277.534 258.714 280.252C259.851 281.654 261.237 282.237 264.074 282.836L265.645 283.156C266.204 283.27 266.656 283.367 267.105 283.471L267.382 283.527C267.818 283.61 268.475 283.715 269.334 283.84L270.148 283.955L263.536 284.417L263.478 284.422C260.357 284.781 258.431 287.389 259.349 289.997C260.271 292.615 263.55 293.962 268.181 293.433L268.668 293.374C265.729 295.385 266.271 298.544 270.061 299.655L270.198 299.694C273.826 300.699 279.998 300.127 288.164 297.755L288.446 297.672L288.647 297.831C300.424 307.138 306.851 308.303 317.031 302.429L317.147 302.362L321.226 301.682L336.98 299.098L351.709 296.692C352.474 296.568 352.961 295.806 352.751 295.06L346.769 273.759L346.746 273.686C346.533 273.066 345.885 272.698 345.236 272.841L309.753 280.663L292.569 271.913C292.501 271.879 292.43 271.85 292.357 271.828L268.861 264.684C264.706 263.489 261.666 268.618 264.731 271.598L264.844 271.703ZM291.489 274.279L308.988 283.189L309.079 283.231C309.325 283.334 309.598 283.358 309.859 283.301L344.597 275.642L349.854 294.363L317.83 299.612L316.562 299.827L315.372 300.04C315.12 300.092 315.77 300.006 315.805 300.13L315.806 300.136L315.463 300.333C306.293 305.546 300.916 304.36 289.542 295.221C289.208 294.952 288.762 294.866 288.351 294.99L287.755 295.167C279.859 297.492 274.022 298.052 270.909 297.195L270.696 297.133L270.509 297.075C269.096 296.616 269.059 296.2 270.185 295.483L283.45 291.68C285.107 291.205 284.41 288.724 282.748 289.179L282.527 289.238C280.569 289.75 278.466 289.99 274.044 290.309L272.316 290.434C270.363 290.579 269.292 290.678 268.061 290.831C264.404 291.288 262.258 290.427 261.803 289.135L261.781 289.066C261.517 288.172 262.224 287.225 263.663 287.017L263.755 287.005L283.572 285.623C285.118 285.515 285.2 283.305 283.718 283.049L283.451 283.015L281.081 282.731L279.17 282.498C278.536 282.42 277.907 282.342 277.288 282.265L274.087 281.86C270.705 281.424 268.399 281.095 267.678 280.937L267.151 280.818C266.97 280.778 266.782 280.738 266.583 280.697L264.797 280.333C262.391 279.835 261.397 279.432 260.736 278.617C260.004 277.714 260.763 276.351 261.92 276.482L284.421 278.994C285.943 279.163 286.44 277.042 285.054 276.499L284.953 276.463L282.318 275.57L280.557 274.966C279.087 274.46 277.631 273.954 276.234 273.462L274.098 272.703C270.002 271.232 267.017 270.062 266.603 269.785L266.58 269.768L266.589 269.777C265.407 268.689 266.554 266.724 268.122 267.175L291.489 274.279ZM317.594 302.059C317.416 302.275 318.398 302.133 318.079 302.195L317.148 302.361L317.347 302.245C317.442 302.189 317.53 302.122 317.608 302.044L317.594 302.059Z" fill="#2E186A"/>
<path fill-rule="evenodd" clip-rule="evenodd" d="M370.183 202.412L407.378 188.645L426.366 278.309C427.623 287.704 421.467 296.45 412.234 298.485L316.428 311.993C313.61 312.209 311.096 310.304 310.532 307.533L310.489 278.136C309.839 274.975 312.093 271.901 315.301 271.512L377.986 265.32L370.183 202.412Z" fill="#4F216C"/>
<path fill-rule="evenodd" clip-rule="evenodd" d="M347.042 267.726C346.334 267.85 345.66 267.377 345.536 266.671C345.416 265.989 345.852 265.339 346.517 265.182L346.592 265.167L375.247 260.145C375.293 260.137 375.339 260.131 375.385 260.128L375.478 260.125L375.626 260.125L375.902 260.13C376.004 260.132 376.117 260.136 376.239 260.141C376.735 260.161 377.277 260.199 377.853 260.259C379.461 260.427 381.063 260.735 382.574 261.222C386.835 262.597 389.664 265.152 390.116 269.158C390.197 269.871 389.684 270.514 388.97 270.594C388.256 270.675 387.612 270.162 387.532 269.449C387.214 266.64 385.164 264.787 381.775 263.694C380.453 263.268 379.023 262.993 377.583 262.843C377.15 262.798 376.74 262.767 376.358 262.747L376.133 262.737C375.991 262.731 375.867 262.727 375.76 262.725L375.586 262.722L347.042 267.726Z" fill="#2E186A"/>
<path fill-rule="evenodd" clip-rule="evenodd" d="M368.654 212.426C369.34 212.328 369.977 212.783 370.114 213.452L370.127 213.527L376.687 259.104L376.731 259.08C376.892 258.991 377.057 258.903 377.225 258.816L377.481 258.687C380.966 256.967 384.638 256.477 388.127 258.033C389.916 258.831 391.555 260.146 393.013 262.009C393.456 262.574 393.356 263.391 392.79 263.832C392.224 264.274 391.406 264.174 390.964 263.609C389.761 262.071 388.456 261.025 387.067 260.405C384.403 259.217 381.49 259.606 378.633 261.016C378.045 261.306 377.511 261.617 377.042 261.927L376.859 262.05C376.801 262.09 376.746 262.128 376.695 262.165L376.554 262.268L376.498 262.31C375.732 262.918 374.604 262.494 374.415 261.554L374.402 261.478L367.552 213.897C367.45 213.187 367.943 212.529 368.654 212.426Z" fill="#2E186A"/>
<path fill-rule="evenodd" clip-rule="evenodd" d="M399.966 348.751C398.925 348.621 397.885 348.578 396.801 348.664C387.48 349.357 380.674 358.232 382.972 367.757C383.536 370.095 384.663 372.26 386.223 374.078C389.215 377.499 393.333 379.361 397.711 379.404V388.106C397.711 395.683 403.867 401.874 411.497 401.874H434.733C442.319 401.874 448.519 395.726 448.519 388.106V354.119C448.519 351.175 446.134 348.794 443.187 348.794H399.966V348.751ZM392.379 370.442C390.645 368.97 389.605 366.892 389.431 364.64C389.084 359.964 392.639 355.851 397.321 355.505C397.451 355.505 397.581 355.505 397.711 355.505V372.52C395.761 372.477 393.896 371.741 392.379 370.442Z" fill="#5D21D1"/>
<path fill-rule="evenodd" clip-rule="evenodd" d="M424.546 383.3V385.162C424.546 385.941 423.895 386.591 423.115 386.591C422.335 386.591 421.684 385.941 421.684 385.162V383.214C420.254 382.997 418.91 382.521 417.739 381.828C417.002 381.395 416.699 380.486 417.089 379.707V379.663C417.523 378.798 418.563 378.494 419.387 378.971C420.731 379.75 422.291 380.226 423.418 380.226C424.632 380.226 425.413 379.793 425.413 378.927C425.413 376.243 417.393 377.845 417.393 372.476C417.393 370.138 419.04 368.537 421.684 368.06V366.285C421.684 365.506 422.335 364.856 423.115 364.856C423.895 364.856 424.546 365.506 424.546 366.285V367.974C425.716 368.104 426.887 368.407 427.927 368.84C428.794 369.186 429.141 370.225 428.751 371.048L428.707 371.134C428.317 371.957 427.363 372.26 426.54 371.914C425.283 371.394 423.982 371.048 423.115 371.048C422.118 371.048 421.424 371.394 421.424 372.13C421.424 374.771 429.444 373.256 429.444 378.754C429.488 381.439 427.407 382.997 424.546 383.3Z" fill="white"/>
<path fill-rule="evenodd" clip-rule="evenodd" d="M700.694 399C701.412 398.998 701.997 399.512 702 400.149C702.003 400.764 701.463 401.268 700.78 401.305L700.704 401.308L-71.6938 404C-72.4124 404.002 -72.9972 403.488 -73 402.851C-73.0027 402.236 -72.4633 401.732 -71.7805 401.695L-71.7041 401.692L700.694 399Z" fill="#2E186A"/>
</svg>
