<svg width="74" height="74" viewBox="0 0 74 74" fill="none" xmlns="http://www.w3.org/2000/svg">
<rect width="74" height="74" rx="18" fill="#743FCB" fill-opacity="0.05"/>
<rect x="0.5" y="0.5" width="73" height="73" rx="17.5" stroke="#743FCB" stroke-opacity="0.1"/>
<g clip-path="url(#clip0_1_8147)">
<path d="M23.6667 38.6667H33.6667C34.5833 38.6667 35.3333 37.9167 35.3333 37V23.6667C35.3333 22.75 34.5833 22 33.6667 22H23.6667C22.75 22 22 22.75 22 23.6667V37C22 37.9167 22.75 38.6667 23.6667 38.6667ZM23.6667 52H33.6667C34.5833 52 35.3333 51.25 35.3333 50.3333V43.6667C35.3333 42.75 34.5833 42 33.6667 42H23.6667C22.75 42 22 42.75 22 43.6667V50.3333C22 51.25 22.75 52 23.6667 52ZM40.3333 52H50.3333C51.25 52 52 51.25 52 50.3333V37C52 36.0833 51.25 35.3333 50.3333 35.3333H40.3333C39.4167 35.3333 38.6667 36.0833 38.6667 37V50.3333C38.6667 51.25 39.4167 52 40.3333 52ZM38.6667 23.6667V30.3333C38.6667 31.25 39.4167 32 40.3333 32H50.3333C51.25 32 52 31.25 52 30.3333V23.6667C52 22.75 51.25 22 50.3333 22H40.3333C39.4167 22 38.6667 22.75 38.6667 23.6667Z" fill="#565656"/>
</g>
<defs>
<clipPath id="clip0_1_8147">
<rect width="40" height="40" fill="white" transform="translate(17 17)"/>
</clipPath>
</defs>
</svg>
