<svg width="100" height="79" viewBox="0 0 100 79" fill="none" xmlns="http://www.w3.org/2000/svg">
<path d="M50.3506 60.4183C65.1024 60.4183 77.0611 48.4245 77.0611 33.6295C77.0611 18.8345 65.1024 6.84082 50.3506 6.84082C35.5988 6.84082 23.6401 18.8345 23.6401 33.6295C23.6401 48.4245 35.5988 60.4183 50.3506 60.4183Z" fill="#DBE8EC"/>
<path d="M86.7969 37.9229V34.8114C86.7969 34.218 86.5618 33.649 86.1435 33.2295C85.7252 32.8099 85.1578 32.5742 84.5662 32.5742H76.6927C76.1011 32.5742 75.5338 32.3385 75.1154 31.9189C74.6971 31.4994 74.4621 30.9303 74.4621 30.337V27.2255C74.4621 26.6321 74.6971 26.0631 75.1154 25.6435C75.5338 25.224 76.1011 24.9883 76.6927 24.9883H76.9413C77.2343 24.9883 77.5243 24.9304 77.795 24.818C78.0656 24.7056 78.3115 24.5408 78.5187 24.333C78.7258 24.1253 78.8901 23.8787 79.0022 23.6072C79.1143 23.3358 79.172 23.0449 79.172 22.7511V19.6396C79.172 19.3458 79.1143 19.0549 79.0022 18.7834C78.8901 18.512 78.7258 18.2654 78.5187 18.0576C78.3115 17.8499 78.0656 17.6851 77.795 17.5727C77.5243 17.4602 77.2343 17.4024 76.9413 17.4024L25.1535 17.4023C24.5619 17.4023 23.9945 17.638 23.5762 18.0576C23.1579 18.4772 22.9229 19.0462 22.9229 19.6395V22.7511C22.9229 23.0449 22.9806 23.3358 23.0927 23.6072C23.2048 23.8786 23.3691 24.1253 23.5762 24.333C23.7833 24.5407 24.0292 24.7055 24.2999 24.818C24.5705 24.9304 24.8606 24.9883 25.1535 24.9883C25.7451 24.9883 26.3125 25.224 26.7308 25.6435C27.1492 26.0631 27.3842 26.6321 27.3842 27.2255V30.337C27.3842 30.6308 27.3265 30.9217 27.2144 31.1931C27.1023 31.4645 26.938 31.7112 26.7308 31.9189C26.5237 32.1267 26.2778 32.2914 26.0072 32.4039C25.7365 32.5163 25.4465 32.5742 25.1535 32.5742H16.5274C15.9358 32.5742 15.3684 32.8099 14.9501 33.2294C14.5317 33.649 14.2967 34.218 14.2967 34.8114V37.9229C14.2967 38.5162 14.5317 39.0853 14.9501 39.5048C15.3684 39.9244 15.9358 40.1601 16.5274 40.1601H19.9121C20.5037 40.1601 21.0711 40.3958 21.4894 40.8153C21.9078 41.2349 22.1428 41.8039 22.1428 42.3973V45.5088C22.1428 46.1022 21.9078 46.6712 21.4894 47.0908C21.0711 47.5103 20.5037 47.746 19.9121 47.746H19.904C19.611 47.746 19.321 47.8039 19.0503 47.9163C18.7797 48.0287 18.5338 48.1935 18.3266 48.4013C18.1195 48.609 17.9552 48.8556 17.8431 49.1271C17.731 49.3985 17.6733 49.6894 17.6733 49.9832V53.0947C17.6733 53.6881 17.9083 54.2571 18.3266 54.6767C18.745 55.0962 19.3123 55.3319 19.904 55.3319H20.3937C20.9853 55.3319 21.5526 55.5676 21.971 55.9872C22.3893 56.4067 22.6243 56.9758 22.6243 57.5691V60.6806C22.6243 60.9744 22.5666 61.2654 22.4545 61.5368C22.3424 61.8082 22.1781 62.0548 21.971 62.2626C21.7638 62.4703 21.5179 62.6351 21.2473 62.7475C20.9767 62.86 20.6866 62.9178 20.3937 62.9178H15.4337C15.1407 62.9178 14.8507 62.9757 14.58 63.0881C14.3094 63.2006 14.0635 63.3654 13.8563 63.5731C13.6492 63.7808 13.4849 64.0275 13.3728 64.2989C13.2607 64.5703 13.203 64.8612 13.203 65.155V68.2666C13.203 68.8599 13.438 69.4289 13.8563 69.8485C14.2747 70.2681 14.8421 70.5038 15.4337 70.5038L78.1389 70.5038C78.4318 70.5038 78.7219 70.4459 78.9925 70.3335C79.2632 70.2211 79.5091 70.0563 79.7162 69.8485C79.9234 69.6408 80.0877 69.3942 80.1998 69.1227C80.3119 68.8513 80.3696 68.5604 80.3696 68.2666V65.1551C80.3696 64.8613 80.3119 64.5704 80.1998 64.2989C80.0877 64.0275 79.9234 63.7809 79.7162 63.5731C79.5091 63.3654 79.2632 63.2006 78.9925 63.0882C78.7219 62.9757 78.4318 62.9179 78.1389 62.9179H76.2048C75.9119 62.9179 75.6218 62.86 75.3512 62.7476C75.0805 62.6351 74.8346 62.4704 74.6275 62.2626C74.4204 62.0549 74.2561 61.8082 74.144 61.5368C74.0319 61.2654 73.9742 60.9745 73.9742 60.6807V57.5691C73.9742 57.2753 74.0319 56.9844 74.144 56.713C74.2561 56.4416 74.4204 56.1949 74.6275 55.9872C74.8346 55.7794 75.0806 55.6147 75.3512 55.5022C75.6218 55.3898 75.9119 55.3319 76.2048 55.3319H80.7652C81.3568 55.3319 81.9242 55.0962 82.3425 54.6767C82.7609 54.2571 82.9959 53.6881 82.9959 53.0947V49.9832C82.9959 49.3899 82.7609 48.8208 82.3425 48.4013C81.9242 47.9817 81.3568 47.746 80.7652 47.746H79.3818C78.7902 47.746 78.2228 47.5103 77.8045 47.0908C77.3862 46.6712 77.1512 46.1022 77.1512 45.5088V42.3973C77.1512 41.804 77.3862 41.2349 77.8045 40.8154C78.2228 40.3958 78.7902 40.1601 79.3818 40.1601H84.5662C84.8591 40.1601 85.1492 40.1022 85.4198 39.9898C85.6905 39.8774 85.9364 39.7126 86.1435 39.5049C86.3507 39.2971 86.515 39.0505 86.6271 38.7791C86.7392 38.5076 86.7969 38.2167 86.7969 37.9229Z" fill="#DBE8EC"/>
<path d="M40.5829 40.2812H45.2476" stroke="#F14336" stroke-width="3" stroke-miterlimit="10"/>
<path d="M40.5829 41.6299H45.2476" stroke="#F14336" stroke-width="3" stroke-miterlimit="10"/>
<path d="M40.5829 42.9785H45.2476" stroke="#F14336" stroke-width="3" stroke-miterlimit="10"/>
<path d="M31.8806 17.002H36.5454" stroke="#B9D4DB" stroke-width="3" stroke-miterlimit="10" stroke-linecap="round"/>
<path d="M31.8806 18.3506H36.5454" stroke="#B9D4DB" stroke-width="3" stroke-miterlimit="10" stroke-linecap="round"/>
<path d="M31.8806 19.6992H36.5454" stroke="#B9D4DB" stroke-width="3" stroke-miterlimit="10" stroke-linecap="round"/>
<path d="M73.8835 38.6318H78.5483" stroke="#B9D4DB" stroke-width="3" stroke-miterlimit="10" stroke-linecap="round"/>
<path d="M73.8835 39.9805H78.5483" stroke="#B9D4DB" stroke-width="3" stroke-miterlimit="10" stroke-linecap="round"/>
<path d="M73.8835 41.3291H78.5483" stroke="#B9D4DB" stroke-width="3" stroke-miterlimit="10" stroke-linecap="round"/>
<path d="M25.4274 59.0693H30.092" stroke="#B9D4DB" stroke-width="3" stroke-miterlimit="10" stroke-linecap="round"/>
<path d="M25.4274 60.418H30.092" stroke="#B9D4DB" stroke-width="3" stroke-miterlimit="10" stroke-linecap="round"/>
<path d="M25.4274 61.7666H30.092" stroke="#B9D4DB" stroke-width="3" stroke-miterlimit="10" stroke-linecap="round"/>
<path d="M26.1212 40.5827C27.4314 40.5827 28.4935 39.5175 28.4935 38.2035C28.4935 36.8894 27.4314 35.8242 26.1212 35.8242C24.811 35.8242 23.7489 36.8894 23.7489 38.2035C23.7489 39.5175 24.811 40.5827 26.1212 40.5827Z" fill="#B9D4DB"/>
<path d="M26.7154 34.6271C27.3979 34.6271 27.9511 34.0722 27.9511 33.3877C27.9511 32.7033 27.3979 32.1484 26.7154 32.1484C26.033 32.1484 25.4797 32.7033 25.4797 33.3877C25.4797 34.0722 26.033 34.6271 26.7154 34.6271Z" fill="#B9D4DB"/>
<path d="M31.0645 34.2344C31.4581 34.2344 31.7772 33.9143 31.7772 33.5195C31.7772 33.1247 31.4581 32.8047 31.0645 32.8047C30.6708 32.8047 30.3517 33.1247 30.3517 33.5195C30.3517 33.9143 30.6708 34.2344 31.0645 34.2344Z" fill="#B9D4DB"/>
<path d="M31.4876 39.201C32.4313 39.201 33.1963 38.4337 33.1963 37.4872C33.1963 36.5407 32.4313 35.7734 31.4876 35.7734C30.5439 35.7734 29.7788 36.5407 29.7788 37.4872C29.7788 38.4337 30.5439 39.201 31.4876 39.201Z" fill="#B9D4DB"/>
<path d="M71.6323 66.9763C72.9425 66.9763 74.0046 65.9111 74.0046 64.597C74.0046 63.283 72.9425 62.2178 71.6323 62.2178C70.3221 62.2178 69.26 63.283 69.26 64.597C69.26 65.9111 70.3221 66.9763 71.6323 66.9763Z" fill="#B9D4DB"/>
<path d="M68.3149 62.3048C68.9974 62.3048 69.5506 61.7499 69.5506 61.0655C69.5506 60.381 68.9974 59.8262 68.3149 59.8262C67.6325 59.8262 67.0792 60.381 67.0792 61.0655C67.0792 61.7499 67.6325 62.3048 68.3149 62.3048Z" fill="#B9D4DB"/>
<path d="M71.1915 58.5069C71.5852 58.5069 71.9043 58.1868 71.9043 57.792C71.9043 57.3972 71.5852 57.0771 71.1915 57.0771C70.7979 57.0771 70.4788 57.3972 70.4788 57.792C70.4788 58.1868 70.7979 58.5069 71.1915 58.5069Z" fill="#B9D4DB"/>
<path d="M74.5067 61.7098C75.4505 61.7098 76.2155 60.9425 76.2155 59.996C76.2155 59.0495 75.4505 58.2822 74.5067 58.2822C73.563 58.2822 72.798 59.0495 72.798 59.996C72.798 60.9425 73.563 61.7098 74.5067 61.7098Z" fill="#B9D4DB"/>
<path d="M69.2594 26.7654C70.5696 26.7654 71.6317 25.7001 71.6317 24.3861C71.6317 23.0721 70.5696 22.0068 69.2594 22.0068C67.9492 22.0068 66.8871 23.0721 66.8871 24.3861C66.8871 25.7001 67.9492 26.7654 69.2594 26.7654Z" fill="#B9D4DB"/>
<path d="M64.9825 22.0939C65.665 22.0939 66.2182 21.539 66.2182 20.8545C66.2182 20.1701 65.665 19.6152 64.9825 19.6152C64.3001 19.6152 63.7468 20.1701 63.7468 20.8545C63.7468 21.539 64.3001 22.0939 64.9825 22.0939Z" fill="#B9D4DB"/>
<path d="M69.6536 21.3289C70.5973 21.3289 71.3624 20.5616 71.3624 19.6151C71.3624 18.6687 70.5973 17.9014 69.6536 17.9014C68.7099 17.9014 67.9448 18.6687 67.9448 19.6151C67.9448 20.5616 68.7099 21.3289 69.6536 21.3289Z" fill="#B9D4DB"/>
<path d="M42.6432 56.8493C43.9534 56.8493 45.0155 55.7841 45.0155 54.4701C45.0155 53.1561 43.9534 52.0908 42.6432 52.0908C41.333 52.0908 40.2709 53.1561 40.2709 54.4701C40.2709 55.7841 41.333 56.8493 42.6432 56.8493Z" fill="#F14336"/>
<path d="M39.3257 52.1778C40.0081 52.1778 40.5614 51.623 40.5614 50.9385C40.5614 50.2541 40.0081 49.6992 39.3257 49.6992C38.6432 49.6992 38.09 50.2541 38.09 50.9385C38.09 51.623 38.6432 52.1778 39.3257 52.1778Z" fill="#F14336"/>
<path d="M42.2023 48.3799C42.5959 48.3799 42.915 48.0599 42.915 47.6651C42.915 47.2702 42.5959 46.9502 42.2023 46.9502C41.8086 46.9502 41.4895 47.2702 41.4895 47.6651C41.4895 48.0599 41.8086 48.3799 42.2023 48.3799Z" fill="#F14336"/>
<path d="M45.5175 51.5828C46.4612 51.5828 47.2263 50.8155 47.2263 49.8691C47.2263 48.9226 46.4612 48.1553 45.5175 48.1553C44.5738 48.1553 43.8087 48.9226 43.8087 49.8691C43.8087 50.8155 44.5738 51.5828 45.5175 51.5828Z" fill="#F14336"/>
<path d="M48.495 23.7431C53.3454 16.8881 56.3567 10.6756 55.2207 9.86706L53.9192 8.94076C52.7832 8.13224 47.9303 13.034 43.0798 19.889C38.2294 26.744 35.2182 32.9565 36.3542 33.765L37.6557 34.6913C38.7916 35.4998 43.6445 30.5981 48.495 23.7431Z" fill="#F7A94A"/>
<path d="M47.1935 22.8165C52.0439 15.9615 55.055 9.74896 53.919 8.94046C52.783 8.13196 47.9301 13.0336 43.0798 19.8887C38.2294 26.7437 35.2183 32.9562 36.3542 33.7647C37.4902 34.5732 42.3431 29.6715 47.1935 22.8165Z" fill="#F14336" fill-opacity="0.67"/>
<path d="M46.1106 17.7003C47.46 18.6607 43.4853 24.2781 42.1359 23.3177C40.7865 22.3573 40.5823 20.3212 41.6799 18.77C42.7775 17.2188 44.7612 16.7399 46.1106 17.7003Z" fill="#F7A94A"/>
<path d="M36.5454 38.9756L40.1077 70.23H40.1463C40.1463 71.2955 45.3284 72.1593 51.7208 72.1593C58.1132 72.1593 63.2953 71.2955 63.2953 70.23H63.334L66.8963 38.9756H36.5454Z" fill="#F14336"/>
<path d="M51.7208 41.5054C60.1019 41.5054 66.8962 40.3729 66.8962 38.9758C66.8962 37.5788 60.1019 36.4463 51.7208 36.4463C43.3397 36.4463 36.5454 37.5788 36.5454 38.9758C36.5454 40.3729 43.3397 41.5054 51.7208 41.5054Z" fill="#F14336" fill-opacity="0.67"/>
<path d="M52.4911 45.9951H51.8099C51.64 45.9951 51.5022 46.1333 51.5022 46.3037V68.3893C51.5022 68.5597 51.64 68.6979 51.8099 68.6979H52.4911C52.6611 68.6979 52.7988 68.5597 52.7988 68.3893V46.3037C52.7988 46.1333 52.6611 45.9951 52.4911 45.9951Z" fill="white"/>
<path d="M59.0648 68.7283L58.245 68.6146C58.1142 68.5965 58.0154 68.3673 58.0243 68.1027L58.7602 46.4112C58.7692 46.1466 58.8825 45.9469 59.0134 45.965L59.8332 46.0787C59.964 46.0969 60.0628 46.326 60.0539 46.5906L59.318 68.2821C59.309 68.5467 59.1957 68.7464 59.0648 68.7283ZM44.7641 68.7283L45.5839 68.6146C45.7148 68.5965 45.8136 68.3673 45.8046 68.1027L45.0687 46.4112C45.0598 46.1466 44.9464 45.9469 44.8156 45.965L43.9958 46.0787C43.8649 46.0969 43.7661 46.326 43.7751 46.5906L44.511 68.2821C44.5199 68.5467 44.6333 68.7464 44.7641 68.7283Z" fill="white"/>
<path d="M58.3843 34.9746L57.3166 38.605L48.0874 35.8749C48.0383 35.8604 47.9926 35.8363 47.9527 35.804C47.9129 35.7718 47.8798 35.7319 47.8553 35.6868C47.8308 35.6417 47.8155 35.5922 47.81 35.5412C47.8046 35.4901 47.8093 35.4385 47.8238 35.3892L52.1431 20.7023C52.1575 20.653 52.1816 20.6071 52.2137 20.5672C52.2459 20.5272 52.2856 20.494 52.3306 20.4695C52.3755 20.4449 52.4249 20.4295 52.4758 20.4241C52.5267 20.4186 52.5782 20.4233 52.6273 20.4378L65.1174 24.1326C65.1665 24.1471 65.2123 24.1712 65.2521 24.2035C65.2919 24.2357 65.325 24.2756 65.3495 24.3207C65.374 24.3658 65.3894 24.4153 65.3948 24.4663C65.4002 24.5174 65.3955 24.569 65.381 24.6183L62.0192 36.0498L58.3843 34.9746Z" fill="#F14336"/>
<path d="M57.3167 38.6051L58.3843 34.9746L62.0191 36.0498L57.3167 38.6051Z" fill="#F7A94A"/>
<path d="M58.0489 25.0852L53.4492 23.7246L52.8299 25.8306L57.4295 27.1912L58.0489 25.0852Z" fill="#F7A94A"/>
<path d="M58.8835 26.4766L62.4062 27.5187" stroke="#F7A94A" stroke-width="3" stroke-miterlimit="10"/>
<path d="M50.7968 32.9092L54.3195 33.9511" stroke="#F7A94A" stroke-width="3" stroke-miterlimit="10"/>
<path d="M52.3469 27.4727L61.6135 30.2139" stroke="#F7A94A" stroke-width="3" stroke-miterlimit="10"/>
<path d="M51.8152 29.2803L61.0818 32.0215" stroke="#F7A94A" stroke-width="3" stroke-miterlimit="10"/>
<path d="M51.2836 31.0879L60.5502 33.8291" stroke="#F7A94A" stroke-width="3" stroke-miterlimit="10"/>
</svg>
