<svg width="40" height="40" viewBox="0 0 40 40" fill="none" xmlns="http://www.w3.org/2000/svg">
<g clip-path="url(#clip0_1_8179)">
<path d="M35.0001 0H16.6667C15.3419 0.00395682 14.0724 0.532012 13.1356 1.46884C12.1988 2.40566 11.6707 3.67513 11.6667 5V15H26.6667C27.9928 15 29.2646 15.5268 30.2023 16.4645C31.14 17.4021 31.6667 18.6739 31.6667 20C31.6667 21.3261 31.14 22.5979 30.2023 23.5355C29.2646 24.4732 27.9928 25 26.6667 25H11.6667V35C11.6707 36.3249 12.1988 37.5943 13.1356 38.5312C14.0724 39.468 15.3419 39.996 16.6667 40H35.0001C36.3249 39.996 37.5944 39.468 38.5312 38.5312C39.4681 37.5943 39.9961 36.3249 40.0001 35V5C39.9961 3.67513 39.4681 2.40566 38.5312 1.46884C37.5944 0.532012 36.3249 0.00395682 35.0001 0V0Z" fill="#565656"/>
<path d="M5.68328 21.6663H26.6666C27.1086 21.6663 27.5326 21.4907 27.8451 21.1782C28.1577 20.8656 28.3333 20.4417 28.3333 19.9997C28.3333 19.5576 28.1577 19.1337 27.8451 18.8211C27.5326 18.5086 27.1086 18.333 26.6666 18.333H5.68328L7.84994 16.183C8.16378 15.8692 8.3401 15.4435 8.3401 14.9997C8.3401 14.5558 8.16378 14.1302 7.84994 13.8163C7.5361 13.5025 7.11045 13.3262 6.66661 13.3262C6.22277 13.3262 5.79712 13.5025 5.48328 13.8163L0.483276 18.8163C0.182231 19.1368 0.0146484 19.56 0.0146484 19.9997C0.0146484 20.4394 0.182231 20.8625 0.483276 21.183L5.48328 26.183C5.80242 26.4867 6.22608 26.656 6.66661 26.656C7.10713 26.656 7.5308 26.4867 7.84994 26.183C8.1622 25.8683 8.33741 25.443 8.33741 24.9997C8.33741 24.5563 8.1622 24.131 7.84994 23.8163L5.68328 21.6663Z" fill="#565656"/>
</g>
<defs>
<clipPath id="clip0_1_8179">
<rect width="40" height="40" fill="white"/>
</clipPath>
</defs>
</svg>
