<svg width="74" height="74" viewBox="0 0 74 74" fill="none" xmlns="http://www.w3.org/2000/svg">
<rect width="74" height="74" rx="18" fill="#743FCB" fill-opacity="0.05"/>
<rect x="0.5" y="0.5" width="73" height="73" rx="17.5" stroke="#743FCB" stroke-opacity="0.1"/>
<g clip-path="url(#clip0_1_9667)">
<path d="M51.9998 17H33.6665C32.3416 17.004 31.0722 17.532 30.1353 18.4688C29.1985 19.4057 28.6705 20.6751 28.6665 22V32H43.6665C44.9926 32 46.2644 32.5268 47.202 33.4645C48.1397 34.4021 48.6665 35.6739 48.6665 37C48.6665 38.3261 48.1397 39.5979 47.202 40.5355C46.2644 41.4732 44.9926 42 43.6665 42H28.6665V52C28.6705 53.3249 29.1985 54.5943 30.1353 55.5312C31.0722 56.468 32.3416 56.996 33.6665 57H51.9998C53.3247 56.996 54.5942 56.468 55.531 55.5312C56.4678 54.5943 56.9959 53.3249 56.9998 52V22C56.9959 20.6751 56.4678 19.4057 55.531 18.4688C54.5942 17.532 53.3247 17.004 51.9998 17V17Z" fill="#565656"/>
<path d="M22.6833 38.6663H43.6666C44.1086 38.6663 44.5326 38.4907 44.8451 38.1782C45.1577 37.8656 45.3333 37.4417 45.3333 36.9997C45.3333 36.5576 45.1577 36.1337 44.8451 35.8211C44.5326 35.5086 44.1086 35.333 43.6666 35.333H22.6833L24.8499 33.183C25.1638 32.8692 25.3401 32.4435 25.3401 31.9997C25.3401 31.5558 25.1638 31.1302 24.8499 30.8163C24.5361 30.5025 24.1104 30.3262 23.6666 30.3262C23.2228 30.3262 22.7971 30.5025 22.4833 30.8163L17.4833 35.8163C17.1822 36.1368 17.0146 36.56 17.0146 36.9997C17.0146 37.4394 17.1822 37.8625 17.4833 38.183L22.4833 43.183C22.8024 43.4867 23.2261 43.656 23.6666 43.656C24.1071 43.656 24.5308 43.4867 24.8499 43.183C25.1622 42.8683 25.3374 42.443 25.3374 41.9997C25.3374 41.5563 25.1622 41.131 24.8499 40.8163L22.6833 38.6663Z" fill="#565656"/>
</g>
<defs>
<clipPath id="clip0_1_9667">
<rect width="40" height="40" fill="white" transform="translate(17 17)"/>
</clipPath>
</defs>
</svg>
