<svg width="22" height="22" viewBox="0 0 22 22" fill="none" xmlns="http://www.w3.org/2000/svg">
<g clip-path="url(#clip0_1_13488)">
<path d="M16.5 7.33366H15.5833V5.50033C15.5833 2.97033 13.53 0.916992 11 0.916992C8.46996 0.916992 6.41663 2.97033 6.41663 5.50033V7.33366H5.49996C4.48704 7.33366 3.66663 8.15408 3.66663 9.16699V18.3337C3.66663 19.3466 4.48704 20.167 5.49996 20.167H16.5C17.5129 20.167 18.3333 19.3466 18.3333 18.3337V9.16699C18.3333 8.15408 17.5129 7.33366 16.5 7.33366ZM11 15.5837C9.98704 15.5837 9.16663 14.7632 9.16663 13.7503C9.16663 12.7374 9.98704 11.917 11 11.917C12.0129 11.917 12.8333 12.7374 12.8333 13.7503C12.8333 14.7632 12.0129 15.5837 11 15.5837ZM13.8416 7.33366H8.15829V5.50033C8.15829 3.93283 9.43246 2.65866 11 2.65866C12.5675 2.65866 13.8416 3.93283 13.8416 5.50033V7.33366Z" fill="#743FCB"/>
</g>
<defs>
<clipPath id="clip0_1_13488">
<rect width="22" height="22" fill="white"/>
</clipPath>
</defs>
</svg>
