<svg width="40" height="40" viewBox="0 0 40 40" fill="none" xmlns="http://www.w3.org/2000/svg">
<g clip-path="url(#clip0_1_8169)">
<path d="M19.9999 3.33301C16.7036 3.33301 13.4812 4.31049 10.7404 6.14185C7.9996 7.9732 5.86339 10.5762 4.60193 13.6216C3.34047 16.6671 3.01042 20.0182 3.6535 23.2512C4.29659 26.4842 5.88394 29.4539 8.21481 31.7848C10.5457 34.1157 13.5154 35.703 16.7484 36.3461C19.9814 36.9892 23.3325 36.6591 26.378 35.3977C29.4234 34.1362 32.0264 32 33.8577 29.2592C35.6891 26.5184 36.6666 23.296 36.6666 19.9997C36.6666 17.811 36.2355 15.6437 35.3979 13.6216C34.5603 11.5995 33.3327 9.7622 31.785 8.21456C30.2374 6.66692 28.4001 5.43926 26.378 4.60168C24.3559 3.7641 22.1886 3.33301 19.9999 3.33301ZM19.9999 29.9997C19.6703 29.9997 19.3481 29.9019 19.074 29.7188C18.7999 29.5357 18.5863 29.2754 18.4601 28.9708C18.334 28.6663 18.301 28.3312 18.3653 28.0079C18.4296 27.6846 18.5883 27.3876 18.8214 27.1545C19.0545 26.9214 19.3515 26.7627 19.6748 26.6984C19.9981 26.6341 20.3332 26.6671 20.6377 26.7932C20.9423 26.9194 21.2026 27.133 21.3857 27.4071C21.5688 27.6811 21.6666 28.0034 21.6666 28.333C21.6666 28.775 21.491 29.199 21.1784 29.5115C20.8659 29.8241 20.442 29.9997 19.9999 29.9997ZM21.6666 21.3997V23.333C21.6666 23.775 21.491 24.199 21.1784 24.5115C20.8659 24.8241 20.442 24.9997 19.9999 24.9997C19.5579 24.9997 19.134 24.8241 18.8214 24.5115C18.5089 24.199 18.3333 23.775 18.3333 23.333V19.9997C18.3333 19.5576 18.5089 19.1337 18.8214 18.8212C19.134 18.5086 19.5579 18.333 19.9999 18.333C20.4944 18.333 20.9777 18.1864 21.3889 17.9117C21.8 17.637 22.1204 17.2465 22.3096 16.7897C22.4988 16.3329 22.5484 15.8302 22.4519 15.3453C22.3554 14.8603 22.1173 14.4149 21.7677 14.0652C21.4181 13.7156 20.9726 13.4775 20.4877 13.381C20.0027 13.2846 19.5 13.3341 19.0432 13.5233C18.5864 13.7125 18.196 14.033 17.9213 14.4441C17.6465 14.8552 17.4999 15.3386 17.4999 15.833C17.4999 16.275 17.3243 16.699 17.0118 17.0115C16.6992 17.3241 16.2753 17.4997 15.8333 17.4997C15.3912 17.4997 14.9673 17.3241 14.6547 17.0115C14.3422 16.699 14.1666 16.275 14.1666 15.833C14.1622 14.7502 14.4594 13.6875 15.0247 12.764C15.59 11.8404 16.4013 11.0925 17.3676 10.6038C18.3339 10.1152 19.4172 9.90521 20.4961 9.99733C21.575 10.0894 22.607 10.4801 23.4765 11.1254C24.346 11.7708 25.0187 12.6454 25.4193 13.6515C25.8199 14.6575 25.9326 15.7551 25.7448 16.8215C25.5569 17.888 25.0759 18.881 24.3556 19.6896C23.6354 20.4982 22.7043 21.0903 21.6666 21.3997Z" fill="#565656"/>
</g>
<defs>
<clipPath id="clip0_1_8169">
<rect width="40" height="40" fill="white"/>
</clipPath>
</defs>
</svg>
