<svg width="74" height="74" viewBox="0 0 74 74" fill="none" xmlns="http://www.w3.org/2000/svg">
<rect width="74" height="74" rx="18" fill="#743FCB" fill-opacity="0.05"/>
<rect x="0.5" y="0.5" width="73" height="73" rx="17.5" stroke="#743FCB" stroke-opacity="0.1"/>
<g clip-path="url(#clip0_1_13075)">
<path d="M37.0002 20.333C33.7038 20.333 30.4815 21.3105 27.7407 23.1418C24.9998 24.9732 22.8636 27.5762 21.6022 30.6216C20.3407 33.6671 20.0107 37.0182 20.6537 40.2512C21.2968 43.4842 22.8842 46.4539 25.2151 48.7848C27.5459 51.1157 30.5156 52.703 33.7487 53.3461C36.9817 53.9892 40.3328 53.6591 43.3782 52.3977C46.4237 51.1362 49.0266 49 50.858 46.2592C52.6894 43.5184 53.6668 40.296 53.6668 36.9997C53.6668 34.811 53.2357 32.6437 52.3982 30.6216C51.5606 28.5995 50.3329 26.7622 48.7853 25.2146C47.2376 23.6669 45.4003 22.4393 43.3782 21.6017C41.3561 20.7641 39.1889 20.333 37.0002 20.333ZM37.0002 46.9997C36.6705 46.9997 36.3483 46.9019 36.0742 46.7188C35.8001 46.5357 35.5865 46.2754 35.4604 45.9708C35.3342 45.6663 35.3012 45.3312 35.3655 45.0079C35.4298 44.6846 35.5886 44.3876 35.8217 44.1545C36.0547 43.9214 36.3517 43.7627 36.675 43.6984C36.9983 43.6341 37.3334 43.6671 37.638 43.7932C37.9425 43.9194 38.2028 44.133 38.386 44.4071C38.5691 44.6811 38.6668 45.0034 38.6668 45.333C38.6668 45.775 38.4912 46.199 38.1787 46.5115C37.8661 46.8241 37.4422 46.9997 37.0002 46.9997ZM38.6668 38.3997V40.333C38.6668 40.775 38.4912 41.199 38.1787 41.5115C37.8661 41.8241 37.4422 41.9997 37.0002 41.9997C36.5581 41.9997 36.1342 41.8241 35.8217 41.5115C35.5091 41.199 35.3335 40.775 35.3335 40.333V36.9997C35.3335 36.5576 35.5091 36.1337 35.8217 35.8212C36.1342 35.5086 36.5581 35.333 37.0002 35.333C37.4946 35.333 37.978 35.1864 38.3891 34.9117C38.8002 34.637 39.1206 34.2465 39.3099 33.7897C39.4991 33.3329 39.5486 32.8302 39.4521 32.3453C39.3557 31.8603 39.1176 31.4149 38.7679 31.0652C38.4183 30.7156 37.9728 30.4775 37.4879 30.381C37.0029 30.2846 36.5003 30.3341 36.0435 30.5233C35.5866 30.7125 35.1962 31.033 34.9215 31.4441C34.6468 31.8552 34.5002 32.3386 34.5002 32.833C34.5002 33.275 34.3246 33.699 34.012 34.0115C33.6995 34.3241 33.2755 34.4997 32.8335 34.4997C32.3915 34.4997 31.9676 34.3241 31.655 34.0115C31.3424 33.699 31.1668 33.275 31.1668 32.833C31.1625 31.7502 31.4596 30.6875 32.0249 29.764C32.5903 28.8404 33.4015 28.0925 34.3679 27.6038C35.3342 27.1152 36.4174 26.9052 37.4964 26.9973C38.5753 27.0894 39.6073 27.4801 40.4768 28.1254C41.3463 28.7708 42.019 29.6454 42.4196 30.6515C42.8202 31.6575 42.9329 32.7551 42.745 33.8215C42.5571 34.888 42.0762 35.881 41.3559 36.6896C40.6356 37.4982 39.7045 38.0903 38.6668 38.3997Z" fill="#565656"/>
</g>
<defs>
<clipPath id="clip0_1_13075">
<rect width="40" height="40" fill="white" transform="translate(17 17)"/>
</clipPath>
</defs>
</svg>
