<svg width="74" height="75" viewBox="0 0 74 75" fill="none" xmlns="http://www.w3.org/2000/svg">
<rect width="74" height="74.425" rx="18" fill="#743FCB" fill-opacity="0.05"/>
<rect x="0.5" y="0.5" width="73" height="73.425" rx="17.5" stroke="#743FCB" stroke-opacity="0.1"/>
<path fill-rule="evenodd" clip-rule="evenodd" d="M47.6753 25.0649C47.3636 43.4545 26.6364 43.4545 26.3247 25.0649C26.3247 18.6753 30.5325 14 36.9221 14C43.4675 14 47.6753 18.6753 47.6753 25.0649ZM55 53.1169V55.2987C55 63.0909 19 63.0909 19 55.2987V53.1169C19 45.4805 23.6753 40.961 29.7532 39.0909V39.4026C29.7532 44.5455 43.9351 44.5455 44.2468 39.5584C50.3247 41.5844 55 46.2597 55 53.1169ZM36.9221 22.8831C35.987 22.8831 35.0519 22.7273 34.1169 22.4156C33.3377 22.1039 30.5325 21.013 29.9091 21.4805C26.7922 23.5065 30.5325 27.5584 27.7273 27.8701C29.7532 40.961 44.2468 40.961 46.2727 27.8701C43.4675 27.5584 47.2078 23.5065 44.0909 21.4805C43.4675 21.013 40.6623 22.1039 39.8831 22.4156C38.9481 22.7273 38.013 22.8831 36.9221 22.8831Z" fill="#565656"/>
</svg>
