<svg width="40" height="53" viewBox="0 0 40 53" fill="none" xmlns="http://www.w3.org/2000/svg">
<path fill-rule="evenodd" clip-rule="evenodd" d="M30.7943 14.1109C30.4814 32.5768 9.66806 32.5768 9.35508 14.1109C9.35508 7.69473 13.5803 3 19.9965 3C26.5691 3 30.7943 7.69473 30.7943 14.1109ZM38.1494 42.2792V44.4701C38.1494 52.2947 2 52.2947 2 44.4701V42.2792C2 34.6112 6.69473 30.0729 12.7979 28.1951V28.508C12.7979 33.6722 27.0386 33.6722 27.3515 28.6645C33.4547 30.6989 38.1494 35.3936 38.1494 42.2792ZM19.9965 11.92C19.0575 11.92 18.1186 11.7635 17.1796 11.4505C16.3972 11.1375 13.5803 10.0421 12.9544 10.5116C9.82455 12.546 13.5803 16.6147 10.7635 16.9277C12.7979 30.0729 27.3515 30.0729 29.3859 16.9277C26.5691 16.6147 30.3249 12.546 27.1951 10.5116C26.5691 10.0421 23.7523 11.1375 22.9698 11.4505C22.0309 11.7635 21.0919 11.92 19.9965 11.92Z" fill="#565656"/>
</svg>
