<svg width="24" height="26" viewBox="0 0 24 26" fill="none" xmlns="http://www.w3.org/2000/svg">
<path d="M19.683 10.8774H4.317C2.48507 10.8774 1 12.3132 1 14.0844V21.8452C1 23.6163 2.48507 25.0521 4.317 25.0521H19.683C21.5149 25.0521 23 23.6163 23 21.8452V14.0844C23 12.3132 21.5149 10.8774 19.683 10.8774Z" stroke="#743FCB" stroke-width="1.5" stroke-linecap="round" stroke-linejoin="round"/>
<path d="M19.683 10.8774H4.317C2.48507 10.8774 1 12.3132 1 14.0844V21.8452C1 23.6163 2.48507 25.0521 4.317 25.0521H19.683C21.5149 25.0521 23 23.6163 23 21.8452V14.0844C23 12.3132 21.5149 10.8774 19.683 10.8774Z" stroke="#743FCB" stroke-width="1.5" stroke-linecap="round" stroke-linejoin="round"/>
<path d="M18.1991 7.20542C18.1991 5.55964 17.5229 3.98127 16.3192 2.81752C15.1155 1.65378 13.483 1 11.7807 1C10.0784 1 8.44589 1.65378 7.24221 2.81752C6.03853 3.98127 5.3623 5.55964 5.3623 7.20542V9.27389" stroke="#743FCB" stroke-width="1.5" stroke-linecap="round" stroke-linejoin="round"/>
<path d="M18.1991 7.20542C18.1991 5.55964 17.5229 3.98127 16.3192 2.81752C15.1155 1.65378 13.483 1 11.7807 1C10.0784 1 8.44589 1.65378 7.24221 2.81752C6.03853 3.98127 5.3623 5.55964 5.3623 7.20542V9.27389" stroke="#743FCB" stroke-width="1.5" stroke-linecap="round" stroke-linejoin="round"/>
<path d="M12 21.9V16" stroke="#743FCB" stroke-width="1.5" stroke-linecap="round" stroke-linejoin="round"/>
<circle cx="12" cy="16" r="2" fill="#743FCB"/>
</svg>
