<svg width="22" height="23" viewBox="0 0 22 23" fill="none" xmlns="http://www.w3.org/2000/svg">
<path d="M11.0015 1.84667e-07C9.81467 -0.000294201 8.65443 0.351387 7.66751 1.01056C6.68059 1.66974 5.91132 2.60679 5.45701 3.70321C5.0027 4.79963 4.88375 6.00615 5.11522 7.17017C5.34668 8.3342 5.91816 9.40343 6.75736 10.2426C7.59657 11.0818 8.6658 11.6533 9.82982 11.8848C10.9938 12.1162 12.2004 11.9973 13.2968 11.543C14.3932 11.0887 15.3303 10.3194 15.9894 9.33249C16.6486 8.34557 17.0003 7.18532 17 5.99851C16.998 4.40821 16.3654 2.88361 15.2409 1.7591C14.1164 0.634586 12.5918 0.0019696 11.0015 1.84667e-07ZM11.0015 10.51C10.1091 10.5103 9.23672 10.246 8.49461 9.75044C7.7525 9.25488 7.17401 8.55038 6.83231 7.72603C6.49062 6.90168 6.40106 5.99452 6.57497 5.11927C6.74888 4.24402 7.17845 3.44 7.80934 2.8089C8.44023 2.1778 9.2441 1.74797 10.1193 1.57377C10.9945 1.39957 11.9017 1.48883 12.7261 1.83025C13.5506 2.17168 14.2553 2.74993 14.7511 3.49188C15.2469 4.23383 15.5115 5.10615 15.5115 5.99851C15.51 7.1943 15.0343 8.34069 14.1889 9.18638C13.3435 10.0321 12.1973 10.5081 11.0015 10.51Z" fill="#743FCB"/>
<path d="M20.2999 22.4408C20.3563 22.5653 20.4339 22.6754 20.528 22.7645C20.622 22.8535 20.7307 22.9195 20.8475 22.9587C20.9642 22.9979 21.0866 23.0093 21.2073 22.9924C21.328 22.9754 21.4445 22.9304 21.5497 22.8601C21.655 22.7897 21.7468 22.6955 21.8198 22.583C21.8927 22.4705 21.9452 22.3421 21.9741 22.2056C22.003 22.069 22.0078 21.9271 21.988 21.7884C21.9683 21.6497 21.9245 21.517 21.8593 21.3984C20.8831 19.4552 19.4836 17.8419 17.8002 16.7192C16.1168 15.5965 14.2084 15.0038 12.2652 15H9.71792C7.77425 15.0038 5.86541 15.5968 4.1817 16.7199C2.49799 17.8429 1.09823 19.4567 0.12199 21.4004C0.0624524 21.519 0.0237083 21.6499 0.00797627 21.7857C-0.00775574 21.9216 -0.000166981 22.0597 0.030308 22.1921C0.0607831 22.3246 0.113546 22.4488 0.185577 22.5576C0.257609 22.6665 0.347493 22.7578 0.450087 22.8265C0.586808 22.9188 0.742443 22.967 0.900769 22.9661C1.05881 22.9664 1.21412 22.9185 1.35113 22.8274C1.48813 22.7363 1.60201 22.6051 1.68135 22.447C2.4988 20.8189 3.67101 19.467 5.08112 18.5261C6.49123 17.5852 8.08996 17.0883 9.71792 17.0848H12.2652C13.8922 17.0884 15.4901 17.5848 16.8998 18.5245C18.3094 19.4641 19.4817 20.8144 20.2999 22.4408Z" fill="#743FCB"/>
</svg>
