<svg width="1014" height="170" viewBox="0 0 1014 170" fill="none" xmlns="http://www.w3.org/2000/svg">
<path d="M209 93.5C209 131.884 177.884 163 139.5 163C101.116 163 70 131.884 70 93.5C70 55.1162 101.116 24 139.5 24C177.884 24 209 55.1162 209 93.5ZM77.9796 93.5C77.9796 127.477 105.523 155.02 139.5 155.02C173.477 155.02 201.02 127.477 201.02 93.5C201.02 59.5232 173.477 31.9796 139.5 31.9796C105.523 31.9796 77.9796 59.5232 77.9796 93.5Z" fill="#C29DFF" fill-opacity="0.2"/>
<path d="M139 153.5C139 191.884 107.884 223 69.5 223C31.1162 223 0 191.884 0 153.5C0 115.116 31.1162 84 69.5 84C107.884 84 139 115.116 139 153.5ZM7.9796 153.5C7.9796 187.477 35.5232 215.02 69.5 215.02C103.477 215.02 131.02 187.477 131.02 153.5C131.02 119.523 103.477 91.9796 69.5 91.9796C35.5232 91.9796 7.9796 119.523 7.9796 153.5Z" fill="#C29DFF" fill-opacity="0.2"/>
<path fill-rule="evenodd" clip-rule="evenodd" d="M911.947 5.11718C926.813 1.90474 942.431 2.36604 957.005 6.44805C1000 18.4259 1023.57 58.1074 1009.64 95.084C1005.44 106.291 998.019 116.407 988.069 124.496H755.104C748.693 114.575 744.729 103.624 743.456 92.3273C742.184 81.0301 743.632 69.6287 747.709 58.834C763.715 16.3361 815.884 -7.40739 865.438 4.60281C881.507 8.22853 897.009 8.40239 911.943 5.12437L911.947 5.11718Z" fill="#E7E7F2"/>
<path fill-rule="evenodd" clip-rule="evenodd" d="M911.948 5.11742C926.814 1.90498 942.432 2.36629 957.006 6.44829C1000 18.4261 1023.57 58.1076 1009.64 95.0842C1005.44 106.292 998.02 116.407 988.07 124.496H755.105C748.694 114.575 744.729 103.625 743.457 92.3275C742.185 81.0304 743.633 69.629 747.71 58.8342C763.716 16.3363 815.885 -7.40715 865.439 4.60306C881.508 8.22878 897.01 8.40264 911.944 5.12462L911.948 5.11742Z" fill="#B788AA"/>
<path fill-rule="evenodd" clip-rule="evenodd" d="M745.731 103.911C741.508 89.019 742.193 73.4097 747.71 58.834C763.716 16.3361 815.884 -7.40739 865.439 4.60281C871.799 6.05535 878.311 6.96498 884.879 7.31851L745.731 103.911Z" fill="#76659E"/>
<path fill-rule="evenodd" clip-rule="evenodd" d="M804.62 25.8069C807.881 25.8054 811.069 26.636 813.782 28.1934C816.494 29.7508 818.608 31.9651 819.856 34.556C821.104 37.147 821.431 39.9982 820.795 42.7488C820.158 45.4995 818.587 48.026 816.281 50.0086C813.974 51.9913 811.036 53.3409 807.837 53.8869C804.638 54.4328 801.323 54.1504 798.311 53.0755C795.299 52.0006 792.725 50.1814 790.915 47.8482C789.106 45.515 788.142 42.7726 788.145 39.968C788.144 38.1064 788.57 36.2628 789.399 34.5427C790.227 32.8227 791.441 31.2598 792.972 29.9434C794.502 28.6269 796.32 27.5828 798.32 26.8706C800.32 26.1583 802.464 25.792 804.628 25.7925" fill="#8181A8"/>
<path fill-rule="evenodd" clip-rule="evenodd" d="M843.098 0.894531H1010.1C1011.13 0.897377 1012.11 1.24959 1012.84 1.87429C1013.57 2.49899 1013.98 3.34544 1013.98 4.2289V97.3215C1013.98 98.2049 1013.57 99.0514 1012.84 99.6761C1012.11 100.301 1011.13 100.653 1010.1 100.656H843.098C842.071 100.653 841.087 100.301 840.36 99.6761C839.634 99.0514 839.224 98.2049 839.221 97.3215V4.2289C839.224 3.34544 839.634 2.49899 840.36 1.87429C841.087 1.24959 842.071 0.897377 843.098 0.894531Z" fill="#5D3773"/>
<path fill-rule="evenodd" clip-rule="evenodd" d="M1014 24.2891V97.3071C1014 98.1905 1013.59 99.037 1012.86 99.6617C1012.13 100.286 1011.15 100.639 1010.12 100.641H912.503L1014 24.2891Z" fill="#37134A"/>
<path fill-rule="evenodd" clip-rule="evenodd" d="M843.1 0.894531H999.049L868.496 100.656H843.1C842.073 100.653 841.089 100.301 840.362 99.6761C839.636 99.0514 839.226 98.2049 839.223 97.3215V4.2289C839.226 3.34544 839.636 2.49899 840.362 1.87429C841.089 1.24959 842.073 0.897377 843.1 0.894531Z" fill="#37134A"/>
<path fill-rule="evenodd" clip-rule="evenodd" d="M847.613 5.98779H1005.59C1006.42 5.98969 1007.22 6.27566 1007.81 6.78319C1008.4 7.29072 1008.73 7.97854 1008.74 8.69629V84.2682C1008.73 84.9859 1008.4 85.6737 1007.81 86.1813C1007.22 86.6888 1006.42 86.9748 1005.59 86.9767H847.613C846.778 86.9748 845.978 86.6888 845.388 86.1813C844.798 85.6737 844.466 84.9859 844.463 84.2682V8.69629C844.466 7.97854 844.798 7.29072 845.388 6.78319C845.978 6.27566 846.778 5.98969 847.613 5.98779Z" fill="#F2ECE6"/>
<path d="M999.709 90.552L1006.36 94.0123L999.709 97.4725V90.552Z" fill="white"/>
<path d="M992.32 90.7427H990.363V96.9438H992.32V90.7427Z" fill="white"/>
<path d="M988.254 90.7427H986.296V96.9438H988.254V90.7427Z" fill="white"/>
<path d="M978.76 91.5051H972.929V96.4221H978.76V91.5051Z" fill="white"/>
<path fill-rule="evenodd" clip-rule="evenodd" d="M1007.96 6.92285C1008.46 7.41427 1008.74 8.04411 1008.74 8.69614V67.3048L981.797 86.9765H898.276L1007.96 6.92285Z" fill="#DBD5CE"/>
<path fill-rule="evenodd" clip-rule="evenodd" d="M878.487 5.98779H951.037L844.659 85.1997C844.53 84.9017 844.463 84.5863 844.462 84.2681V31.3355L878.487 5.98779Z" fill="#DBD5CE"/>
<path fill-rule="evenodd" clip-rule="evenodd" d="M854.682 12.7537H952.134C952.724 12.7556 953.289 12.9577 953.706 13.316C954.124 13.6744 954.36 14.16 954.363 14.6672V72.2579C954.361 72.7658 954.126 73.2524 953.708 73.6115C953.29 73.9706 952.725 74.1732 952.134 74.1751H854.682C854.091 74.1732 853.526 73.9706 853.108 73.6115C852.69 73.2524 852.455 72.7658 852.453 72.2579V14.6672C852.456 14.16 852.692 13.6744 853.109 13.316C853.527 12.9577 854.092 12.7556 854.682 12.7537Z" fill="white"/>
<path fill-rule="evenodd" clip-rule="evenodd" d="M858.206 15.9153H948.615C949.144 15.9172 949.651 16.099 950.025 16.4212C950.398 16.7433 950.609 17.1795 950.61 17.6346V69.294C950.608 69.7484 950.397 70.1837 950.023 70.5051C949.649 70.8265 949.143 71.0078 948.615 71.0097H858.206C857.678 71.0078 857.171 70.8265 856.798 70.5051C856.424 70.1837 856.213 69.7484 856.211 69.294V17.6346C856.212 17.1795 856.422 16.7433 856.796 16.4212C857.17 16.099 857.677 15.9172 858.206 15.9153Z" fill="#41B585"/>
<path fill-rule="evenodd" clip-rule="evenodd" d="M858.208 15.9153H931.686L858.551 71.0097H858.208C857.68 71.0078 857.174 70.8265 856.8 70.5051C856.426 70.1837 856.215 69.7484 856.213 69.294V17.6346C856.214 17.1795 856.425 16.7433 856.798 16.4212C857.172 16.099 857.679 15.9172 858.208 15.9153Z" fill="#158059"/>
<path fill-rule="evenodd" clip-rule="evenodd" d="M989.348 123.417C974.359 136.148 954.253 143.437 933.19 143.776C917.497 143.891 904.329 146.901 893.686 152.804C882.512 159.364 869.856 163.826 856.544 165.9C843.231 167.973 829.56 167.612 816.42 164.84C803.281 162.068 790.967 156.946 780.282 149.809C769.597 142.672 760.78 133.68 754.405 123.417H989.348Z" fill="#76659E"/>
<path fill-rule="evenodd" clip-rule="evenodd" d="M989.35 123.417C980.001 131.35 968.578 137.241 956.037 140.596L860.128 125.183L860.505 123.417H989.35Z" fill="#BEAEE3"/>
<path fill-rule="evenodd" clip-rule="evenodd" d="M907.472 147.157C902.614 148.528 897.976 150.422 893.67 152.793C882.497 159.351 869.844 163.812 856.533 165.885C843.223 167.958 829.554 167.597 816.417 164.826C803.279 162.055 790.968 156.935 780.284 149.801C769.599 142.666 760.782 133.677 754.406 123.417H763.373L907.472 147.157Z" fill="#B99FE5"/>
<path fill-rule="evenodd" clip-rule="evenodd" d="M872.959 113.889C879.308 116.871 891.919 114.587 891.919 114.587C891.919 114.587 887.318 109.152 882.792 103.742C882.458 103.294 881.958 102.956 881.373 102.783C880.788 102.609 880.152 102.61 879.568 102.785C878.363 103.145 870.968 106.328 871.086 107.418C871.203 108.508 871.7 113.727 872.959 113.892" fill="#F7C3A8"/>
<path fill-rule="evenodd" clip-rule="evenodd" d="M878.283 103.098C871.591 110.052 875.514 114.747 890.053 117.184C874.481 113.666 890.693 106.281 878.283 103.098Z" fill="#E67443"/>
<path fill-rule="evenodd" clip-rule="evenodd" d="M882.939 102.936C864.736 109.011 858.555 113.429 857.794 112.126L854.23 104.53C851.963 99.681 849.479 95.2999 852.139 90.2642C854.209 86.3076 858.463 83.484 863.879 85.1098C867.673 86.25 870.642 89.8218 873.729 93.0231C876.47 95.8718 879.537 99.175 882.93 102.933" fill="#3476B0"/>
<path d="M884.132 104.612C884.598 104.593 885.037 104.421 885.359 104.13C885.681 103.84 885.86 103.454 885.86 103.053C885.86 102.652 885.681 102.266 885.359 101.976C885.037 101.686 884.598 101.513 884.132 101.494C880.408 101.514 876.736 102.249 873.385 103.646C870.033 105.043 867.088 107.067 864.763 109.569C864.487 109.893 864.368 110.296 864.43 110.694C864.492 111.092 864.73 111.454 865.095 111.705C865.459 111.955 865.923 112.075 866.387 112.039C866.852 112.003 867.283 111.814 867.59 111.511C869.581 109.377 872.1 107.651 874.963 106.458C877.827 105.264 880.963 104.634 884.144 104.612" fill="white"/>
<path fill-rule="evenodd" clip-rule="evenodd" d="M873.932 103.422C870.113 104.889 867.712 105.321 864.914 104.041C863.495 103.405 862.313 102.438 861.504 101.251C860.695 100.064 860.293 98.7041 860.342 97.3286C860.391 95.9532 860.891 94.6177 861.783 93.4756C862.676 92.3334 863.925 91.431 865.387 90.8721C865.242 91.5025 865.255 92.1521 865.423 92.7782C865.59 93.4043 865.91 93.9927 866.362 94.505C868.712 97.1703 872.108 95.3934 874.053 99.0731C874.415 99.759 874.592 100.506 874.571 101.259C874.55 102.012 874.332 102.752 873.932 103.422Z" fill="#084478"/>
<path fill-rule="evenodd" clip-rule="evenodd" d="M809.251 84.6962C795.085 122.486 815.688 129.59 863.648 108.31C863.594 101.688 872.264 83.4337 853.916 83.3941L828.896 83.2214C822.318 83.4266 815.757 83.9225 809.238 84.707" fill="#165791"/>
<path fill-rule="evenodd" clip-rule="evenodd" d="M864.541 102.357C860.777 124.726 850.287 111.903 849.371 109.346C845.021 102.785 853.888 99.9255 852.751 94.2027C852.577 93.3289 852.201 92.4939 851.646 91.747C851.091 91.0001 850.367 90.3564 849.518 89.854C848.878 89.7065 846.77 86.7103 853.918 83.3795C855.825 83.3353 857.725 83.6 859.518 84.16C861.127 84.694 862.529 85.606 863.564 86.7921C864.6 87.9782 865.226 89.3906 865.373 90.8684C865.85 94.2255 865.571 98.0539 864.537 102.353" fill="#A3CCF0"/>
<path fill-rule="evenodd" clip-rule="evenodd" d="M810.73 85.7429C802.234 115.466 807.963 124.264 827.916 112.137C828.527 106.515 830.593 105.21 833.002 104.379C838.594 102.451 842.91 99.0659 840.112 93.4187C838.763 93.5051 837.409 93.3363 836.144 92.924C834.879 92.5117 833.735 91.8661 832.792 91.0325C831.848 90.1989 831.129 89.1977 830.684 88.0992C830.239 87.0007 830.079 85.8318 830.216 84.6746C823.708 84.7273 817.209 85.0876 810.747 85.7536" fill="#013059"/>
<path fill-rule="evenodd" clip-rule="evenodd" d="M775.459 114.497L797.945 109.317C796.389 104.771 790.621 102.706 784.799 104.612C782.036 107.317 778.923 110.612 775.459 114.497Z" fill="#F7C3A8"/>
<path fill-rule="evenodd" clip-rule="evenodd" d="M794.771 106.425C789.752 105.436 787.389 104.019 787.389 104.019L778.605 112.853C780.81 113.547 783.44 113.332 785.824 112.267C791.224 109.85 791.082 106.195 794.792 106.425" fill="#BD3718"/>
<path fill-rule="evenodd" clip-rule="evenodd" d="M818.063 125.723C815.241 121.86 810.621 121.564 804.202 124.834L816.545 132.942C817.589 131.997 818.289 130.81 818.559 129.528C818.828 128.245 818.656 126.922 818.063 125.723Z" fill="#8A6574"/>
<path fill-rule="evenodd" clip-rule="evenodd" d="M861.544 127.09C834.101 128.116 819.193 128.256 816.821 127.511L806.235 120.989L850.511 109.918C860.456 119.917 864.134 125.641 861.544 127.09Z" fill="#F7F2F4"/>
<path fill-rule="evenodd" clip-rule="evenodd" d="M860.502 125.683C877.453 121.489 892.586 119.5 905.903 119.716C905.903 119.716 896.501 116.54 873.698 105.771C861.682 104.472 849.527 104.059 841.271 111.68L860.511 125.683" fill="#FCF7F9"/>
<path fill-rule="evenodd" clip-rule="evenodd" d="M786.14 102.936C787.587 103.656 788.973 104.34 790.297 104.99C790.406 104.818 790.589 104.688 790.807 104.63L790.983 104.58C791.122 104.542 791.27 104.532 791.414 104.549C791.559 104.567 791.698 104.612 791.82 104.681L792.238 104.933L792.3 104.976L792.627 105.213L792.995 105.375C793.056 105.401 793.113 105.432 793.166 105.469L793.48 105.695L793.798 105.871C793.901 105.911 793.993 105.969 794.07 106.04C794.266 106.112 794.438 106.225 794.572 106.368C794.729 106.447 794.876 106.539 795.011 106.645C795.12 106.681 795.22 106.733 795.308 106.799C795.479 106.836 795.64 106.904 795.776 107.001C795.888 107.04 795.997 107.085 796.102 107.134L796.249 107.199C796.335 107.214 796.421 107.234 796.504 107.26L797.085 107.461C797.163 107.49 797.237 107.524 797.307 107.566C797.507 107.607 797.696 107.681 797.863 107.785L797.951 107.807H797.909C798.108 107.824 798.3 107.881 798.47 107.972C798.602 108.007 798.725 108.064 798.831 108.14C798.937 108.216 799.024 108.31 799.088 108.415C799.151 108.521 799.19 108.636 799.201 108.755C799.211 108.873 799.195 108.992 799.151 109.105C806.37 112.222 810.413 113.236 811.281 112.145L814.832 104.548C817.099 99.6991 819.587 95.318 816.923 90.2823C814.853 86.3256 810.603 83.502 805.187 85.1278C801.389 86.2681 798.419 89.8398 795.337 93.0411C792.596 95.8899 789.529 99.1931 786.135 102.951" fill="#3476B0"/>
<path fill-rule="evenodd" clip-rule="evenodd" d="M906.824 128.489C900.261 124.723 892.445 122.906 884.569 123.317C876.694 123.727 869.191 126.342 863.204 130.762L816.544 132.942C816.009 132.309 815.419 129.705 816.821 127.511C816.821 127.511 832.685 126.547 860.49 125.683C872.293 115.612 891.896 115.446 905.891 119.716C906.652 122.592 906.966 125.542 906.824 128.489Z" fill="#D9C8CF"/>
<path d="M819.514 125.302C819.48 125.307 819.446 125.306 819.412 125.299C819.379 125.292 819.348 125.279 819.321 125.261C819.294 125.243 819.272 125.22 819.256 125.194C819.24 125.168 819.231 125.139 819.229 125.109C819.227 125.08 819.232 125.051 819.244 125.023C819.256 124.996 819.275 124.97 819.299 124.95C819.323 124.929 819.352 124.913 819.384 124.902C819.416 124.891 819.45 124.887 819.485 124.888L852.229 123.191C852.261 123.189 852.293 123.193 852.323 123.202C852.353 123.212 852.381 123.226 852.405 123.244C852.428 123.262 852.448 123.285 852.461 123.309C852.475 123.334 852.483 123.361 852.484 123.389C852.487 123.416 852.483 123.443 852.473 123.469C852.462 123.495 852.446 123.519 852.425 123.539C852.404 123.56 852.379 123.576 852.35 123.588C852.321 123.6 852.29 123.607 852.259 123.608L819.514 125.302Z" fill="#A88258"/>
<path d="M817.099 123.809C817.067 123.811 817.035 123.808 817.005 123.799C816.975 123.79 816.947 123.777 816.923 123.758C816.9 123.74 816.88 123.718 816.867 123.694C816.853 123.669 816.845 123.642 816.843 123.615C816.841 123.588 816.845 123.56 816.855 123.534C816.865 123.508 816.881 123.484 816.902 123.463C816.923 123.443 816.949 123.426 816.978 123.413C817.006 123.401 817.037 123.394 817.069 123.392L849.814 121.698C849.846 121.696 849.878 121.7 849.908 121.708C849.938 121.717 849.965 121.731 849.989 121.749C850.013 121.767 850.032 121.789 850.046 121.814C850.06 121.838 850.068 121.865 850.069 121.892C850.071 121.92 850.067 121.947 850.057 121.973C850.047 121.999 850.031 122.023 850.01 122.044C849.989 122.065 849.964 122.082 849.935 122.094C849.906 122.106 849.875 122.113 849.843 122.115L817.099 123.809Z" fill="#A88258"/>
<path fill-rule="evenodd" clip-rule="evenodd" d="M844.731 120.59C844.928 120.371 845.028 120.047 845.363 119.892C845.697 119.738 846.065 119.842 846.387 119.82C846.592 120.428 846.806 121.032 846.998 121.64C847.191 122.248 847.416 122.852 847.609 123.457L846.17 122.018L844.731 120.579" fill="white"/>
<path fill-rule="evenodd" clip-rule="evenodd" d="M829.089 94.0661C829.309 93.965 829.566 93.9426 829.805 94.0039C830.044 94.0652 830.245 94.2052 830.365 94.3934L831.778 96.6308C831.896 96.8198 831.922 97.0412 831.851 97.2467C831.779 97.4522 831.617 97.6251 831.398 97.7278C831.18 97.8237 830.928 97.8435 830.695 97.7832C830.461 97.7229 830.263 97.587 830.143 97.4041L828.717 95.1632C828.599 94.9741 828.573 94.7527 828.644 94.5473C828.716 94.3418 828.879 94.1688 829.097 94.0661" fill="white"/>
<path d="M831.581 96.3048L829.926 97.0762L844.743 120.584L846.398 119.813L831.581 96.3048Z" fill="#332617"/>
<path fill-rule="evenodd" clip-rule="evenodd" d="M847.036 121.745L847.609 123.457L846.283 122.137L847.036 121.745Z" fill="#232740"/>
<path fill-rule="evenodd" clip-rule="evenodd" d="M788.454 102.433C800.722 109.626 807.506 112.217 808.806 110.206C809.535 109.375 810.041 108.415 810.287 107.395C810.533 106.376 810.513 105.322 810.228 104.31C808.634 98.6522 802.457 100.415 801.382 95.0445C800.386 90.0843 806.221 89.426 804.31 86.7715C802.84 87.3686 801.35 88.5016 799.838 90.1706L788.47 102.422" fill="#084478"/>
<path d="M784.947 104.612C784.481 104.593 784.042 104.421 783.72 104.13C783.398 103.84 783.219 103.454 783.219 103.053C783.219 102.652 783.398 102.266 783.72 101.976C784.042 101.686 784.481 101.513 784.947 101.494C788.674 101.511 792.349 102.246 795.703 103.643C799.058 105.04 802.006 107.065 804.333 109.569C804.493 109.727 804.615 109.912 804.69 110.112C804.766 110.312 804.793 110.523 804.771 110.732C804.749 110.942 804.678 111.145 804.563 111.33C804.447 111.515 804.289 111.678 804.098 111.809C803.907 111.94 803.687 112.037 803.452 112.093C803.216 112.149 802.97 112.164 802.728 112.136C802.485 112.108 802.252 112.039 802.042 111.931C801.832 111.824 801.65 111.681 801.505 111.511C799.514 109.377 796.994 107.65 794.13 106.457C791.266 105.264 788.129 104.634 784.947 104.612Z" fill="white"/>
<path fill-rule="evenodd" clip-rule="evenodd" d="M812.269 110.015L814.832 104.53C816.017 102.266 816.981 99.9208 817.714 97.5193C818.327 95.3751 818.191 93.1233 817.325 91.0448C816.42 88.7663 814.634 86.8237 812.264 85.5415C806.242 85.6386 803.197 92.4009 807.551 95.4295C809.537 96.8107 812.411 97.3215 813.151 99.5984C813.603 100.987 813.113 101.944 812.574 102.796C810.412 106.206 813.239 106.102 812.269 109.99" fill="#A3CCF0"/>
<path fill-rule="evenodd" clip-rule="evenodd" d="M858.763 122.46L843.823 111.59C848.533 107.411 856.952 105.853 862.616 106.494C865.698 110.22 858.32 112.418 858.68 116.813C858.86 119.061 859.905 120.842 858.763 122.46Z" fill="#C2AEB6"/>
<path fill-rule="evenodd" clip-rule="evenodd" d="M818.521 132.848C844.291 132.419 858.865 131.448 862.245 129.935L860.505 125.683L816.836 127.511C815.882 128.615 815.727 129.975 815.999 131.316C815.89 132.976 816.727 133.486 818.509 132.848" fill="#BAA2AC"/>
<path d="M817.257 132.1C817.517 132.262 817.691 132.507 817.741 132.779C817.791 133.052 817.714 133.33 817.525 133.553C817.337 133.777 817.053 133.926 816.736 133.969C816.419 134.013 816.095 133.946 815.835 133.784L801.615 124.914C801.486 124.833 801.378 124.732 801.294 124.615C801.211 124.499 801.156 124.37 801.131 124.235C801.106 124.1 801.113 123.962 801.15 123.829C801.187 123.696 801.254 123.571 801.347 123.46C801.441 123.35 801.558 123.256 801.694 123.185C801.829 123.113 801.98 123.066 802.137 123.044C802.294 123.023 802.454 123.028 802.608 123.06C802.763 123.092 802.908 123.15 803.037 123.23L817.257 132.1Z" fill="#4F2738"/>
<path d="M907.791 128.255C908.055 128.412 908.236 128.653 908.293 128.924C908.351 129.196 908.281 129.476 908.098 129.703C907.916 129.93 907.636 130.085 907.32 130.135C907.005 130.185 906.679 130.124 906.415 129.967C900.022 126.175 892.356 124.297 884.599 124.622C876.842 124.947 869.424 127.457 863.49 131.766C863.279 131.92 863.013 132.006 862.737 132.01L816.818 134.075C816.503 134.08 816.199 133.98 815.97 133.796C815.74 133.612 815.603 133.358 815.587 133.088C815.571 132.818 815.678 132.554 815.885 132.35C816.092 132.147 816.383 132.022 816.696 132L862.244 129.949C868.591 125.448 876.471 122.849 884.69 122.546C892.909 122.242 901.019 124.252 907.791 128.27" fill="#57293D"/>
<path fill-rule="evenodd" clip-rule="evenodd" d="M863.051 134.633H904.679C905.123 134.633 905.549 134.784 905.862 135.054C906.176 135.324 906.352 135.69 906.352 136.071C906.352 136.453 906.176 136.819 905.862 137.089C905.549 137.359 905.123 137.51 904.679 137.51H863.051C862.607 137.51 862.182 137.359 861.868 137.089C861.554 136.819 861.378 136.453 861.378 136.071C861.378 135.69 861.554 135.324 861.868 135.054C862.182 134.784 862.607 134.633 863.051 134.633Z" fill="#E6E6E6"/>
<path fill-rule="evenodd" clip-rule="evenodd" d="M843.634 110.285C845.215 108.148 843.609 107.799 841.517 107.785C837.824 107.756 837.184 108.084 833.717 106.548C830.851 105.169 827.644 107.191 824.097 112.616C810.563 110.35 788.325 103.31 776.706 112.655C774.706 114.263 773.406 116.209 773.623 118.331C774.288 124.834 786.501 126.482 792.444 126.633C803.888 126.921 816.916 124.137 826.908 122.809C839.793 126.03 845.37 121.855 843.638 110.285" fill="#FFD2BA"/>
<path fill-rule="evenodd" clip-rule="evenodd" d="M827.686 121.939C837.267 124.263 842.286 121.652 842.743 114.108C841.154 122.317 829.426 115.346 827.686 121.939Z" fill="#E67443"/>
<path fill-rule="evenodd" clip-rule="evenodd" d="M790.12 115.051C794.37 116.522 796.31 119.586 799.782 120.763C805.604 122.741 810.614 117.554 816.679 120.914C818.728 121.899 820.618 122.371 822.346 122.327C813.375 123.802 801.982 125.687 791.697 124.942C765.209 123.029 776.573 110.36 790.12 115.051Z" fill="#E67443"/>
<path fill-rule="evenodd" clip-rule="evenodd" d="M809.102 114.878C813.533 112.403 818.537 111.653 824.113 112.626C821.509 112.168 818.549 111.589 815.234 110.889C810.013 109.737 804.715 108.859 799.37 108.26C794.39 107.638 789.316 107.871 784.442 108.947C793.226 108.047 796.02 121.824 809.119 114.889" fill="#FFE9D9"/>
<path fill-rule="evenodd" clip-rule="evenodd" d="M894.611 91.1491H966.408C966.638 91.1429 966.866 91.1833 967.075 91.267C967.283 91.3507 967.466 91.4754 967.608 91.631L969.139 93.1346C969.042 93.4005 968.838 93.628 968.564 93.7763C968.289 93.9246 967.962 93.984 967.642 93.9439H967.545L957.031 134.266C956.901 134.708 956.609 135.102 956.199 135.39C955.788 135.678 955.281 135.845 954.751 135.866H884.933C884.879 136.173 884.699 136.453 884.426 136.655C884.153 136.858 883.804 136.97 883.444 136.971L881.946 135.561C881.745 135.399 881.599 135.192 881.525 134.964C881.452 134.735 881.453 134.494 881.528 134.266L892.332 92.7533C892.462 92.3112 892.753 91.9168 893.164 91.628C893.574 91.3392 894.081 91.1713 894.611 91.1491Z" fill="#ECE3FA"/>
<path fill-rule="evenodd" clip-rule="evenodd" d="M896.415 92.8864H968.208C968.438 92.8789 968.667 92.9186 968.876 93.0022C969.085 93.0859 969.267 93.2111 969.409 93.3675C969.55 93.5239 969.646 93.707 969.689 93.9017C969.732 94.0964 969.72 94.297 969.655 94.487L958.835 135.985C958.705 136.427 958.414 136.822 958.003 137.111C957.593 137.4 957.085 137.568 956.556 137.589H884.763C884.533 137.596 884.304 137.556 884.095 137.472C883.886 137.388 883.704 137.262 883.563 137.106C883.422 136.949 883.326 136.765 883.284 136.571C883.242 136.376 883.254 136.175 883.32 135.985L894.14 94.487C894.27 94.0451 894.561 93.6508 894.972 93.3625C895.382 93.0743 895.89 92.9073 896.419 92.8864" fill="#AE9DBF"/>
<path fill-rule="evenodd" clip-rule="evenodd" d="M894.286 100.958C888.862 123.738 886.149 135.129 886.146 135.129L948.679 135.391C938.223 135.751 929.485 129.478 928.365 120.425C927.026 109.583 921.823 94.7927 905.938 94.1021L897.402 94.2172C896.523 94.1884 895.934 94.6848 895.628 95.6991L894.453 100.307C894.386 100.515 894.332 100.731 894.286 100.954" fill="#C3B8D4"/>
<path fill-rule="evenodd" clip-rule="evenodd" d="M929.694 109.609C930.405 109.6 931.109 109.719 931.762 109.959C932.415 110.199 933.003 110.554 933.486 111.002C933.969 111.449 934.338 111.979 934.568 112.557C934.798 113.135 934.885 113.748 934.822 114.356C934.696 115.638 934.02 116.833 932.926 117.71C931.833 118.586 930.399 119.082 928.904 119.101C928.193 119.11 927.488 118.99 926.835 118.75C926.181 118.51 925.594 118.154 925.111 117.706C924.627 117.258 924.259 116.728 924.029 116.15C923.799 115.571 923.713 114.958 923.776 114.349C923.901 113.067 924.576 111.871 925.67 110.993C926.764 110.115 928.198 109.619 929.694 109.601" fill="#ECE3FA"/>
<path fill-rule="evenodd" clip-rule="evenodd" d="M907.19 92.8864H968.205C968.435 92.8789 968.664 92.9186 968.873 93.0022C969.081 93.0859 969.264 93.2111 969.405 93.3675C969.547 93.5239 969.643 93.707 969.686 93.9017C969.729 94.0964 969.717 94.297 969.652 94.487L958.832 135.985C958.738 136.301 958.562 136.595 958.317 136.844C958.072 137.093 957.765 137.291 957.418 137.424C938.266 128.259 965.549 96.3431 907.19 92.8864Z" fill="#C3B8D4"/>
<path fill-rule="evenodd" clip-rule="evenodd" d="M785.192 149.017C811.793 154.858 829.93 157.292 839.602 156.319C847.407 152.296 854.833 147.754 861.812 142.733C850.89 143.213 834.5 141.605 812.642 137.909L785.192 149.017Z" fill="#1C0F3B"/>
<path fill-rule="evenodd" clip-rule="evenodd" d="M786.376 145.69C811.178 151.536 828.087 153.97 837.102 152.992C844.415 148.947 851.338 144.404 857.805 139.406C847.614 139.9 832.34 138.293 811.986 134.586L786.393 145.69" fill="white"/>
<path fill-rule="evenodd" clip-rule="evenodd" d="M834.153 82.146L851.096 85.4516C851.072 86.6243 850.757 87.779 850.17 88.8378C849.583 89.8967 848.74 90.835 847.695 91.5896C846.651 92.3443 845.431 92.8976 844.118 93.2124C842.804 93.5271 841.427 93.596 840.079 93.4143C838.732 93.2326 837.446 92.8045 836.307 92.159C835.168 91.5136 834.204 90.6656 833.478 89.6724C832.753 88.6791 832.284 87.5637 832.102 86.4012C831.92 85.2388 832.031 84.0564 832.426 82.9337L834.153 82.146Z" fill="#F5B28E"/>
<path fill-rule="evenodd" clip-rule="evenodd" d="M831.291 84.2932C831.122 85.8963 831.53 87.5052 832.46 88.9021C833.39 90.299 834.797 91.4163 836.49 92.1029C838.182 92.7894 840.08 93.0119 841.925 92.7403C843.769 92.4687 845.473 91.716 846.803 90.5843C846.165 91.117 845.323 91.4312 844.434 91.4681C843.546 91.505 842.672 91.262 841.977 90.7846C841.282 90.3073 840.813 89.6284 840.658 88.875C840.503 88.1217 840.673 87.3457 841.136 86.6924L834.026 83.0955L831.291 84.2896" fill="#E67443"/>
<path d="M832.439 82.9336C832.227 84.5545 832.473 86.1953 833.154 87.7175C833.982 89.3237 835.441 90.6276 837.275 91.4002C839.11 92.1729 841.203 92.3647 843.185 91.9422C845.168 91.5197 846.914 90.5097 848.117 89.0898C849.32 87.6698 849.903 85.9308 849.763 84.1781L853.385 83.9695C853.5 85.4491 853.253 86.9331 852.659 88.3253C852.065 89.7176 851.138 90.9872 849.938 92.0518C848.738 93.1165 847.291 93.9526 845.691 94.506C844.091 95.0594 842.374 95.3177 840.651 95.2643C838.928 95.2109 837.237 94.8469 835.688 94.1959C834.138 93.545 832.765 92.6215 831.657 91.4853C830.549 90.349 829.731 89.0254 829.255 87.6C828.78 86.1746 828.657 84.6792 828.896 83.2106L832.439 82.9336Z" fill="white"/>
<path fill-rule="evenodd" clip-rule="evenodd" d="M833.417 82.9985L848.737 86.4084C848.319 92.1383 837.909 93.6023 833.417 82.9985Z" fill="#B52A0B"/>
<path fill-rule="evenodd" clip-rule="evenodd" d="M828.932 75.9735C826.567 72.9651 825.602 69.3026 826.228 65.7113C826.854 62.12 829.025 58.8617 832.312 56.5817C835.598 54.3017 839.761 53.1663 843.974 53.4002C848.188 53.6342 852.146 55.2204 855.065 57.8449C856.685 60.3987 857.213 62.8758 856.65 65.2762C856.039 68.053 856.892 70.7759 857.068 73.488C858.323 91.2749 833.111 90.9044 828.899 75.9735" fill="#F7BA99"/>
<path fill-rule="evenodd" clip-rule="evenodd" d="M839.874 53.5286C842.626 53.1064 845.458 53.2799 848.112 54.0334C850.767 54.7869 853.162 56.0968 855.082 57.8449C856.702 60.3988 857.23 62.8758 856.667 65.2762C856.056 68.053 856.909 70.7759 857.085 73.488C857.775 83.3257 850.368 87.6061 842.902 86.9442C850.652 81.038 852.668 73.7722 847.783 70.3011C843.751 67.4236 849.611 62.4922 845.784 58.0068C844.27 56.2299 842.183 54.7695 839.857 53.5286" fill="#FFE9D9"/>
<path fill-rule="evenodd" clip-rule="evenodd" d="M834.961 60.9995C825.818 61.7932 824.039 66.4692 829.624 75.0275C831.394 80.6891 835.334 84.2129 841.443 85.599C845.371 81.2826 838.909 79.8439 838.654 75.0024C838.399 70.1609 844.551 67.3589 841.054 63.0425C840.391 62.2186 839.456 61.5836 838.371 61.219C837.285 60.8544 836.098 60.7767 834.961 60.9959" fill="#E67443"/>
<path fill-rule="evenodd" clip-rule="evenodd" d="M829.623 75.0313C827.036 69.7438 827.246 66.6144 830.255 65.6432C834.617 65.1684 837.737 68.9596 835.537 72.4774C833.927 75.0636 830.715 77.4556 833.768 81.7791C831.496 79.3668 830.114 77.1127 829.623 75.0169" fill="#BD3718"/>
<path fill-rule="evenodd" clip-rule="evenodd" d="M833.854 69.2796C833.72 70.2142 833.914 71.1619 834.413 72.0002C834.912 72.8385 835.692 73.5287 836.652 73.9816C837.612 74.4346 838.708 74.6293 839.798 74.5406C840.888 74.452 841.923 74.0841 842.767 73.4844C842.058 74.351 841.062 75.0146 839.91 75.3891C838.757 75.7636 837.5 75.8319 836.302 75.585C835.104 75.3381 834.019 74.7875 833.189 74.0045C832.359 73.2214 831.821 72.242 831.646 71.1932L830.696 71.2183C830.54 69.8467 830.462 69.1609 830.462 69.1609L833.85 69.2796" fill="#B02000"/>
<path fill-rule="evenodd" clip-rule="evenodd" d="M824.484 69.4847C827.211 70.0531 828.094 70.9559 828.094 70.9559C830.285 73.1141 831.44 71.6105 830.632 67.7186C829.633 63.4599 831.318 64.3915 833.142 63.6937C836.283 62.4851 834.556 58.8522 839.098 58.1328C842.979 57.5141 848.793 59.773 851.934 60.2514C858.923 61.3305 862.992 57.3199 863.227 53.0755C863.432 48.6009 858.864 42.0077 847.956 45.7449C844.757 46.824 841.369 48.2628 837.738 48.7016C831.302 49.4821 826.061 49.421 824.802 56.2552C819.142 59.1112 819.04 63.5246 824.497 69.4955" fill="#302313"/>
<path fill-rule="evenodd" clip-rule="evenodd" d="M851.719 68.884C851.875 68.8848 852.026 68.925 852.155 68.9998C852.284 69.0745 852.384 69.1803 852.443 69.304C852.502 69.4276 852.517 69.5634 852.486 69.6944C852.455 69.8253 852.38 69.9455 852.27 70.0397C852.159 70.1339 852.019 70.1979 851.867 70.2237C851.714 70.2495 851.557 70.2359 851.413 70.1847C851.27 70.1334 851.147 70.0467 851.061 69.9356C850.975 69.8244 850.929 69.6938 850.929 69.5603C850.929 69.4712 850.949 69.3829 850.989 69.3007C851.029 69.2184 851.087 69.1437 851.161 69.0808C851.234 69.018 851.321 68.9682 851.417 68.9345C851.513 68.9007 851.616 68.8836 851.719 68.884Z" fill="#232740"/>
<path fill-rule="evenodd" clip-rule="evenodd" d="M838.884 69.6069C839.04 69.6069 839.193 69.6468 839.323 69.7215C839.453 69.7962 839.554 69.9024 839.614 70.0266C839.674 70.1508 839.69 70.2875 839.659 70.4194C839.629 70.5513 839.553 70.6724 839.443 70.7675C839.332 70.8625 839.191 70.9273 839.038 70.9535C838.885 70.9798 838.726 70.9663 838.581 70.9148C838.437 70.8634 838.313 70.7762 838.226 70.6645C838.14 70.5527 838.093 70.4212 838.093 70.2868C838.093 70.1065 838.177 69.9335 838.325 69.8061C838.473 69.6786 838.674 69.6069 838.884 69.6069Z" fill="#232740"/>
<path d="M850.561 63.9634C850.416 64.0077 850.256 64.0027 850.115 63.9496C849.974 63.8964 849.862 63.7991 849.801 63.6773C849.74 63.5555 849.736 63.4184 849.788 63.2938C849.841 63.1692 849.947 63.0666 850.084 63.0066C850.714 62.7747 851.4 62.6793 852.083 62.7288C852.765 62.7784 853.423 62.9713 853.999 63.2908C854.128 63.3682 854.217 63.4858 854.247 63.6188C854.278 63.7517 854.246 63.8895 854.161 64.003C854.075 64.1165 853.941 64.1969 853.787 64.2271C853.634 64.2573 853.473 64.235 853.338 64.1649C852.93 63.9385 852.463 63.8014 851.979 63.7656C851.494 63.7293 851.007 63.7973 850.561 63.9634Z" fill="#302313"/>
<path d="M836.634 64.8086C836.521 64.901 836.371 64.9525 836.216 64.9525C836.06 64.9525 835.91 64.901 835.798 64.8086C835.688 64.7125 835.627 64.5834 835.627 64.4489C835.627 64.3144 835.688 64.1853 835.798 64.0892C836.272 63.6643 836.86 63.3461 837.51 63.1623C838.161 62.9785 838.854 62.9349 839.528 63.0353C839.678 63.0668 839.808 63.146 839.892 63.2568C839.976 63.3675 840.008 63.5017 839.981 63.632C839.955 63.7623 839.871 63.879 839.749 63.9586C839.626 64.0381 839.472 64.0745 839.319 64.0604C838.84 63.9887 838.347 64.0196 837.885 64.1504C837.422 64.2794 837.003 64.5056 836.667 64.8086" fill="#302313"/>
<path fill-rule="evenodd" clip-rule="evenodd" d="M850.269 77.1318C850.934 76.7901 851.009 77.7936 850.461 78.9303C848.959 82.0416 844.187 81.7826 842.539 78.9123C842.063 78.0922 842.201 77.4123 843.242 77.6318C846.237 78.2121 848.579 78.0454 850.269 77.1318Z" fill="#AD2000"/>
<path fill-rule="evenodd" clip-rule="evenodd" d="M849.439 79.1102C849.668 78.7695 849.827 78.3971 849.907 78.0095C848.151 78.7841 845.895 78.8908 843.14 78.3296C843.262 78.7353 843.505 79.107 843.843 79.4087C845.712 79.6857 847.687 79.7001 849.439 79.1282" fill="white"/>
<path d="M845.106 82.7718C845.068 82.7576 845.034 82.7367 845.005 82.7105C844.977 82.6843 844.955 82.6533 844.941 82.6195C844.927 82.5857 844.922 82.5498 844.925 82.5141C844.928 82.4784 844.94 82.4437 844.96 82.4121C844.977 82.3796 845.001 82.3503 845.032 82.3262C845.062 82.3021 845.098 82.2836 845.137 82.2718C845.177 82.26 845.218 82.2552 845.259 82.2577C845.301 82.2602 845.341 82.2699 845.378 82.2862C845.907 82.5014 846.493 82.5908 847.075 82.5453C847.658 82.4998 848.216 82.3209 848.691 82.0272C848.756 81.9876 848.837 81.972 848.916 81.9838C848.995 81.9956 849.065 82.0339 849.111 82.0902C849.157 82.1465 849.175 82.2162 849.161 82.2839C849.148 82.3517 849.103 82.4121 849.038 82.4516C848.475 82.7963 847.816 83.0062 847.128 83.06C846.441 83.1137 845.748 83.0093 845.123 82.7574" fill="#BD3718"/>
<path fill-rule="evenodd" clip-rule="evenodd" d="M853.716 67.1106C853.97 67.1106 854.218 67.1754 854.429 67.2967C854.641 67.418 854.805 67.5905 854.902 67.7923C855 67.9941 855.025 68.2161 854.975 68.4303C854.926 68.6445 854.804 68.8412 854.624 68.9957C854.444 69.1501 854.216 69.2553 853.967 69.2979C853.718 69.3405 853.459 69.3186 853.225 69.2351C852.99 69.1515 852.79 69.0099 852.649 68.8283C852.507 68.6468 852.432 68.4333 852.432 68.2149C852.432 68.0697 852.464 67.9259 852.529 67.7917C852.593 67.6575 852.688 67.5356 852.807 67.433C852.926 67.3303 853.068 67.249 853.224 67.1937C853.38 67.1384 853.547 67.1101 853.716 67.1106Z" fill="white"/>
<path fill-rule="evenodd" clip-rule="evenodd" d="M840.535 67.3733C840.799 67.3733 841.058 67.4408 841.278 67.5673C841.498 67.6938 841.67 67.8735 841.771 68.0838C841.872 68.2942 841.899 68.5256 841.847 68.7489C841.796 68.9721 841.668 69.1772 841.481 69.3382C841.294 69.4992 841.055 69.6088 840.796 69.6532C840.536 69.6976 840.267 69.6748 840.022 69.5877C839.778 69.5006 839.569 69.3531 839.422 69.1638C839.275 68.9745 839.196 68.752 839.196 68.5243C839.196 68.219 839.337 67.9263 839.588 67.7104C839.839 67.4946 840.18 67.3733 840.535 67.3733Z" fill="white"/>
<path d="M855.217 67.0243C854.503 66.4101 853.565 66.0276 852.56 65.942C851.556 65.8565 850.548 66.0731 849.708 66.555C848.869 67.0369 848.249 67.7543 847.956 68.5849C847.663 69.4155 847.713 70.3079 848.099 71.1099C848.485 71.912 849.183 72.5742 850.073 72.9836C850.963 73.393 851.99 73.5242 852.98 73.355C853.97 73.1858 854.862 72.7265 855.502 72.0556C856.142 71.3846 856.492 70.5434 856.492 69.6753C856.494 69.1828 856.382 68.695 856.163 68.24C855.944 67.785 855.622 67.3718 855.217 67.0243ZM842.121 67.3589C841.369 66.7102 840.379 66.306 839.319 66.2152C838.26 66.1244 837.196 66.3526 836.31 66.8608C835.424 67.3691 834.771 68.126 834.461 69.0023C834.151 69.8787 834.205 70.8203 834.613 71.6665C835.02 72.5126 835.756 73.211 836.696 73.6425C837.635 74.0739 838.72 74.2118 839.764 74.0324C840.808 73.8531 841.748 73.3677 842.423 72.659C843.098 71.9504 843.465 71.0624 843.464 70.1465C843.466 69.6285 843.348 69.1154 843.118 68.6369C842.887 68.1584 842.548 67.724 842.121 67.3589ZM852.138 65.1467C853.165 65.1466 854.169 65.4045 855.027 65.8886C855.885 66.3727 856.56 67.0619 856.969 67.8715C857.378 68.6812 857.503 69.5759 857.328 70.4457C857.153 71.3155 856.687 72.1224 855.986 72.7673C855.285 73.4122 854.381 73.8669 853.384 74.0755C852.386 74.2842 851.34 74.2376 850.373 73.9416C849.406 73.6456 848.561 73.113 847.941 72.4093C847.321 71.7057 846.954 70.8617 846.885 69.981C846.527 69.7168 846.062 69.5854 845.591 69.6158C845.121 69.6461 844.684 69.8357 844.376 70.1429C844.336 71.3734 843.74 72.542 842.714 73.4004C841.688 74.2587 840.313 74.7389 838.882 74.7389C837.451 74.7389 836.076 74.2587 835.05 73.4004C834.024 72.542 833.428 71.3734 833.388 70.1429C833.389 69.9166 833.408 69.6905 833.447 69.4667L825.337 69.5314V68.4919L833.773 68.4271C834.053 67.815 834.481 67.2609 835.028 66.8013C835.71 66.2122 836.561 65.7883 837.495 65.5727C838.429 65.3571 839.412 65.3574 840.346 65.5734C841.28 65.7895 842.13 66.2137 842.812 66.8032C843.494 67.3928 843.983 68.1266 844.229 68.9307C844.645 68.7173 845.114 68.594 845.597 68.5714C846.08 68.5489 846.563 68.6277 847.002 68.8012C847.238 67.7766 847.878 66.8535 848.814 66.1877C849.75 65.5218 850.924 65.1542 852.138 65.1467Z" fill="white"/>
<path fill-rule="evenodd" clip-rule="evenodd" d="M823.121 67.5531C825.684 66.7762 828.7 68.4452 829.863 71.2796C831.025 74.1139 829.888 77.0347 827.328 77.8188C824.768 78.6029 821.749 76.9268 820.586 74.0924C819.423 71.258 820.561 68.3373 823.121 67.5531Z" fill="#FFD2BA"/>
<path fill-rule="evenodd" clip-rule="evenodd" d="M824.483 69.4846C827.21 70.053 828.092 70.9558 828.092 70.9558C830.284 73.1139 831.438 71.6104 830.631 67.7185C829.632 63.4598 831.317 64.3914 833.141 63.6936C833.6 63.5075 834.01 63.2442 834.349 62.9192C834.687 62.5942 834.946 62.2142 835.111 61.8016C828.565 63.4921 831.271 54.7552 824.772 56.2623C819.147 59.123 819.057 63.5317 824.5 69.4882" fill="#120C04"/>
<path fill-rule="evenodd" clip-rule="evenodd" d="M840.737 58.0249C844.476 58.0861 849.198 59.8234 851.917 60.2478C858.906 61.3269 862.975 57.3163 863.209 53.0719C863.431 48.6009 858.864 42.0077 847.956 45.7449C845.764 46.4931 843.485 47.3959 841.101 48.0326C839.407 51.1907 846.998 53.7877 840.749 58.0249" fill="#A88258"/>
<path fill-rule="evenodd" clip-rule="evenodd" d="M844.634 71.1896C844.697 69.7148 845.714 69.6429 846.684 70.6105C847.462 71.5169 850.603 74.97 848.357 75.7865C847.89 75.9457 847.373 75.9635 846.893 75.8368C846.283 75.5959 845.597 75.5377 844.944 75.6714C844.726 75.7291 844.495 75.7348 844.274 75.6879C844.053 75.641 843.851 75.5433 843.689 75.4052C843.527 75.2675 843.415 75.0919 843.367 74.9001C843.32 74.7084 843.339 74.5088 843.422 74.3261C843.508 74.1446 843.65 73.9868 843.833 73.8695C844.015 73.7523 844.232 73.6801 844.459 73.6607C844.59 72.0037 844.654 71.1752 844.651 71.1752" fill="#E05F28"/>
<path fill-rule="evenodd" clip-rule="evenodd" d="M823.121 67.5531C825.685 66.7762 828.7 68.4452 829.863 71.2796C830.658 73.2183 830.378 75.2002 829.303 76.5095C829.863 71.2796 821.515 74.0528 820.239 70.7832C820.565 69.2545 821.586 68.0171 823.121 67.5459" fill="#FFE9D9"/>
<path fill-rule="evenodd" clip-rule="evenodd" d="M823.521 70.107C824.943 69.6754 826.621 70.6034 827.286 72.1789C827.951 73.7543 827.286 75.3838 825.876 75.8154C824.467 76.247 822.773 75.319 822.112 73.7435C821.451 72.1681 822.112 70.5387 823.521 70.107Z" fill="#E67443"/>
<path fill-rule="evenodd" clip-rule="evenodd" d="M825.04 70.9017C825.876 70.6499 826.838 71.1895 827.21 72.1031C827.582 73.0167 827.21 73.9627 826.374 74.2109C825.537 74.4591 824.575 73.9231 824.199 73.0095C823.822 72.0959 824.199 71.1535 825.035 70.9017" fill="#AD2000"/>
<path fill-rule="evenodd" clip-rule="evenodd" d="M847.306 71.3335C848.435 72.6967 850.192 75.1211 848.36 75.7865C847.893 75.9463 847.376 75.9628 846.896 75.8333C846.749 75.7764 846.596 75.7295 846.44 75.693C845.052 74.3513 847.595 73.6283 847.306 71.3335Z" fill="#F7BA99"/>
<path d="M873.394 57.7478H873.415C875.878 56.6364 878.267 55.5573 878.183 53.6833C878.108 51.9459 875.845 50.8453 873.528 49.7266C871.173 50.759 868.869 51.838 868.743 53.5574C868.597 55.4242 870.947 56.5644 873.369 57.737L873.394 57.7478ZM870.286 45.4642L876.799 45.5434C876.835 45.5438 876.871 45.5506 876.905 45.5631C876.938 45.5757 876.969 45.5939 876.994 45.6167C877.019 45.6395 877.039 45.6663 877.052 45.6957C877.065 45.7251 877.072 45.7565 877.07 45.788C877.07 45.8193 877.063 45.8503 877.049 45.8791C877.035 45.908 877.014 45.9341 876.988 45.9559C876.962 45.9777 876.931 45.9948 876.897 46.0061C876.863 46.0174 876.827 46.0227 876.79 46.0218L870.278 45.9426C870.204 45.9408 870.134 45.9142 870.082 45.8685C870.031 45.8228 870.002 45.7617 870.002 45.698C870.004 45.6348 870.035 45.5747 870.089 45.531C870.142 45.4872 870.213 45.4633 870.286 45.4642ZM871.491 46.7519L875.561 46.8023C875.633 46.8042 875.703 46.8304 875.753 46.8754C875.804 46.9204 875.832 46.9806 875.832 47.0433C875.831 47.1066 875.801 47.167 875.749 47.2114C875.696 47.2558 875.626 47.2807 875.552 47.2807L871.491 47.2303C871.417 47.2285 871.347 47.2019 871.295 47.1562C871.244 47.1105 871.215 47.0494 871.215 46.9857C871.217 46.9237 871.247 46.8648 871.298 46.8212C871.35 46.7777 871.419 46.7528 871.491 46.7519ZM871.412 51.5143L875.469 51.5647C875.542 51.5656 875.612 51.5914 875.664 51.6365C875.716 51.6816 875.745 51.7424 875.745 51.8057C875.742 51.869 875.711 51.929 875.658 51.9727C875.605 52.0165 875.534 52.0404 875.46 52.0395L871.403 51.9891C871.364 51.9933 871.324 51.9902 871.286 51.9801C871.248 51.9699 871.213 51.953 871.183 51.9304C871.154 51.9078 871.13 51.88 871.114 51.8489C871.097 51.8178 871.089 51.784 871.089 51.7499C871.089 51.7158 871.097 51.682 871.114 51.6509C871.13 51.6198 871.154 51.592 871.183 51.5694C871.213 51.5468 871.248 51.5299 871.286 51.5197C871.324 51.5096 871.364 51.5065 871.403 51.5107L871.412 51.5143ZM870.157 52.8056L876.669 52.8883C876.742 52.8883 876.812 52.9134 876.864 52.9579C876.916 53.0024 876.945 53.0628 876.945 53.1257C876.945 53.1887 876.916 53.2491 876.864 53.2936C876.812 53.3381 876.742 53.3631 876.669 53.3631L870.153 53.2768C870.116 53.2763 870.081 53.2697 870.047 53.2574C870.014 53.245 869.984 53.2271 869.959 53.2048C869.933 53.1824 869.914 53.1559 869.9 53.1269C869.887 53.098 869.88 53.067 869.881 53.0358C869.883 52.9735 869.914 52.9144 869.966 52.8713C870.018 52.8282 870.088 52.8046 870.161 52.8056H870.157ZM870.132 54.2444L876.648 54.3235C876.722 54.3254 876.791 54.3521 876.842 54.3979C876.893 54.4437 876.921 54.5048 876.92 54.5681C876.918 54.6308 876.887 54.6902 876.835 54.7339C876.783 54.7775 876.713 54.8019 876.64 54.8019L870.123 54.7156C870.087 54.7156 870.051 54.7093 870.017 54.6971C869.984 54.6849 869.953 54.6671 869.928 54.6446C869.903 54.6221 869.883 54.5955 869.87 54.5663C869.857 54.5371 869.85 54.5059 869.851 54.4746C869.851 54.4122 869.88 54.3524 869.931 54.308C869.982 54.2636 870.051 54.2381 870.123 54.2372L870.132 54.2444ZM871.336 55.7227L875.393 55.7731C875.467 55.774 875.537 55.7998 875.589 55.8449C875.64 55.89 875.669 55.9508 875.669 56.0141C875.667 56.0777 875.636 56.1381 875.583 56.1824C875.53 56.2267 875.459 56.2515 875.385 56.2515L871.328 56.2011C871.254 56.1993 871.184 56.1727 871.132 56.127C871.081 56.0813 871.052 56.0202 871.052 55.9565C871.052 55.9243 871.059 55.8923 871.074 55.8626C871.089 55.8329 871.11 55.806 871.137 55.7835C871.164 55.7611 871.196 55.7435 871.231 55.7318C871.266 55.7201 871.303 55.7146 871.34 55.7155L871.336 55.7227ZM870.002 62.0534L876.514 62.1361C876.551 62.1391 876.589 62.1355 876.625 62.1255C876.66 62.1156 876.693 62.0996 876.721 62.0784C876.749 62.0572 876.772 62.0313 876.789 62.0022C876.805 61.9732 876.814 61.9417 876.815 61.9095C876.816 61.8783 876.809 61.8473 876.796 61.8184C876.783 61.7894 876.763 61.7629 876.737 61.7406C876.712 61.7182 876.682 61.7003 876.649 61.6879C876.616 61.6756 876.58 61.669 876.543 61.6685L870.027 61.5858C869.954 61.5858 869.883 61.6107 869.83 61.6551C869.778 61.6995 869.748 61.7599 869.747 61.8232C869.752 61.8809 869.781 61.9353 869.828 61.9762C869.876 62.0172 869.939 62.042 870.006 62.0462L870.002 62.0534ZM871.257 60.798L875.318 60.8484C875.392 60.8484 875.462 60.8235 875.515 60.7791C875.567 60.7347 875.597 60.6743 875.598 60.611C875.599 60.5798 875.592 60.5489 875.579 60.5199C875.565 60.4909 875.546 60.4644 875.52 60.4421C875.495 60.4197 875.465 60.4018 875.432 60.3894C875.398 60.3771 875.363 60.3705 875.326 60.37L871.265 60.3196C871.229 60.3187 871.193 60.324 871.159 60.3353C871.125 60.3467 871.094 60.3637 871.067 60.3855C871.041 60.4073 871.021 60.4334 871.006 60.4623C870.992 60.4911 870.985 60.5221 870.985 60.5534C870.986 60.6149 871.014 60.6737 871.064 60.7178C871.114 60.762 871.181 60.7881 871.253 60.7908L871.257 60.798ZM868.032 44.4211C868.041 44.3187 868.096 44.2233 868.186 44.1559C868.276 44.0885 868.394 44.0545 868.513 44.0614C868.631 44.0706 868.741 44.1188 868.819 44.1959C868.897 44.273 868.937 44.373 868.931 44.4751C868.777 46.4858 871.127 47.6908 873.553 48.849C876.017 47.7519 878.405 46.6045 878.321 44.5938C878.327 44.4959 878.375 44.4035 878.456 44.3347C878.538 44.266 878.646 44.2258 878.76 44.2222C878.873 44.2186 878.985 44.2518 879.072 44.3152C879.158 44.3787 879.214 44.4678 879.229 44.565C879.325 46.8958 877.024 48.162 874.502 49.3022C876.853 50.4352 879.007 51.6258 879.103 53.6473C879.199 55.8666 876.878 57.0536 874.343 58.2082C876.786 59.424 879.024 60.7872 878.944 63.172C878.943 63.223 878.929 63.2733 878.905 63.3199C878.881 63.3665 878.846 63.4085 878.803 63.4436C878.76 63.4786 878.709 63.506 878.654 63.5243C878.598 63.5425 878.539 63.5511 878.48 63.5497C878.421 63.5483 878.362 63.5368 878.308 63.516C878.254 63.4952 878.205 63.4654 878.164 63.4283C878.123 63.3912 878.092 63.3476 878.07 63.2999C878.049 63.2522 878.039 63.2015 878.041 63.1504C878.108 61.057 875.786 59.8089 873.39 58.6399C870.956 59.7477 868.593 60.9383 868.593 63.0317C868.599 63.0861 868.591 63.141 868.571 63.1929C868.551 63.2448 868.519 63.2924 868.476 63.3329C868.433 63.3733 868.381 63.4057 868.323 63.4278C868.265 63.4499 868.202 63.4613 868.139 63.4613C868.075 63.4613 868.012 63.4499 867.954 63.4278C867.896 63.4057 867.844 63.3733 867.801 63.3329C867.759 63.2924 867.726 63.2448 867.706 63.1929C867.686 63.141 867.679 63.0861 867.685 63.0317C867.685 60.647 869.973 59.3377 872.453 58.1866C869.944 56.9673 867.677 55.7227 867.852 53.5106C868.011 51.4927 870.207 50.3561 872.595 49.2806C870.098 48.0684 867.836 46.7484 868.032 44.4211Z" fill="white"/>
<path fill-rule="evenodd" clip-rule="evenodd" d="M950.612 28.1233V69.2939C950.61 69.7484 950.399 70.1837 950.025 70.5051C949.652 70.8264 949.145 71.0078 948.617 71.0097H892.471L950.612 28.1233Z" fill="#D2F7E8"/>
<path d="M933.722 30.9111C933.91 30.6449 934.094 30.3787 934.265 30.1126C934.437 29.8464 934.638 29.5227 934.801 29.2313C934.453 29.109 934.094 28.9939 933.722 28.8716C933.349 28.7493 933.052 28.6774 932.701 28.5839L932.927 29.0443C933.036 29.2817 933.144 29.5119 933.241 29.7349C933.337 29.9579 933.437 30.1881 933.533 30.4291C933.6 30.5874 933.663 30.7456 933.722 30.9039V30.9111ZM926.896 37.5475C927.197 37.3496 927.494 37.141 927.791 36.9216C928.088 36.7022 928.326 36.5187 928.59 36.3065L928.017 36.2418C927.732 36.2094 927.444 36.1734 927.18 36.1338L926.344 36.0044L925.771 35.9072C925.942 36.1806 926.122 36.4468 926.306 36.7094C926.49 36.9719 926.687 37.2885 926.896 37.5546V37.5475ZM920.781 34.6195C920.706 34.7778 920.635 34.9289 920.572 35.0799C920.509 35.231 920.417 35.4396 920.35 35.6231C920.033 36.3886 919.872 37.1953 919.873 38.0079C919.862 38.2608 919.912 38.5129 920.022 38.7478C920.132 38.9827 920.298 39.1951 920.509 39.3711C920.751 39.5126 921.025 39.6088 921.314 39.6534C921.602 39.698 921.898 39.6901 922.182 39.6301C923.109 39.4713 923.997 39.1742 924.804 38.7524C924.993 38.6625 925.185 38.5654 925.377 38.4611C925.541 38.3747 925.7 38.2848 925.858 38.1913C925.557 37.8064 925.26 37.3964 924.972 36.9683C924.683 36.5403 924.386 36.0619 924.106 35.5763C923.495 35.436 922.91 35.285 922.345 35.1231C921.781 34.9612 921.283 34.8066 920.781 34.6267V34.6195ZM926.344 27.5443C926.08 27.7817 925.817 28.0299 925.553 28.2817C925.29 28.5335 925.009 28.8213 924.746 29.1018C924.482 29.3788 924.227 29.6594 923.976 29.9435C923.725 30.2277 923.508 30.4866 923.29 30.7564C923.399 31.0765 923.516 31.4003 923.642 31.7168C923.767 32.0333 923.909 32.3822 924.06 32.7275C924.211 33.0728 924.369 33.4038 924.524 33.7239C924.679 34.044 924.838 34.339 925.001 34.6411C925.373 34.7167 925.754 34.7922 926.143 34.8605C926.532 34.9289 926.958 34.9936 927.368 35.0512C927.778 35.1087 928.205 35.1591 928.602 35.2022C929 35.2454 929.384 35.2778 929.765 35.3066C930.028 35.0692 930.292 34.821 930.555 34.5656C930.819 34.3102 931.095 34.0296 931.363 33.7491C931.626 33.4721 931.881 33.1915 932.132 32.9074C932.383 32.6232 932.601 32.3643 932.818 32.0945C932.709 31.7708 932.592 31.4506 932.467 31.1341C932.337 30.8032 932.199 30.4687 932.049 30.1234C931.898 29.778 931.739 29.4471 931.584 29.127C931.43 28.8069 931.271 28.5119 931.107 28.2098C930.735 28.1306 930.355 28.0587 929.966 27.9904C929.577 27.922 929.15 27.8573 928.74 27.7997C928.33 27.7422 927.904 27.6918 927.506 27.6487C927.109 27.6055 926.724 27.5803 926.344 27.5515V27.5443ZM929.213 25.3034C928.912 25.5013 928.615 25.7099 928.318 25.9293C928.021 26.1487 927.782 26.3322 927.515 26.5444L928.092 26.6091C928.371 26.6403 928.65 26.6763 928.928 26.717C929.217 26.7566 929.501 26.7998 929.765 26.8465C929.957 26.8753 930.15 26.9113 930.338 26.9437C930.162 26.6667 929.987 26.4005 929.803 26.1415C929.627 25.8574 929.422 25.5804 929.213 25.3106V25.3034ZM935.758 27.2278C936.075 26.4623 936.237 25.6556 936.235 24.843C936.247 24.5901 936.196 24.338 936.087 24.1031C935.977 23.8681 935.811 23.6558 935.599 23.4798C935.358 23.3377 935.084 23.2409 934.795 23.1957C934.507 23.1504 934.211 23.1578 933.926 23.2172C933 23.3792 932.113 23.6773 931.304 24.0985C931.116 24.1884 930.923 24.2855 930.731 24.3898C930.568 24.4762 930.409 24.5661 930.25 24.6596C930.551 25.0445 930.848 25.4545 931.133 25.8826C931.417 26.3106 931.722 26.789 932.003 27.2746C932.613 27.4161 933.199 27.5671 933.759 27.7278C934.307 27.8825 934.83 28.0515 935.332 28.2278C935.407 28.0731 935.478 27.922 935.541 27.771C935.604 27.6199 935.691 27.4113 935.758 27.235V27.2278ZM925.846 26.4149C926.289 26.03 926.737 25.6667 927.18 25.3358C927.623 25.0049 928.042 24.7028 928.473 24.4186C928.351 24.2855 928.234 24.156 928.113 24.0301C927.992 23.9042 927.824 23.7352 927.695 23.5949C927.082 22.9769 926.35 22.4537 925.532 22.0482C925.294 21.8935 925.014 21.7932 924.719 21.7568C924.424 21.7204 924.122 21.7489 923.843 21.8398C923.564 21.9307 923.316 22.081 923.123 22.2766C922.93 22.4722 922.798 22.7067 922.738 22.9582C922.442 23.7293 922.3 24.5382 922.32 25.3502C922.32 25.5372 922.32 25.7099 922.32 25.9257C922.32 26.1415 922.32 26.253 922.354 26.4185C922.889 26.3861 923.449 26.3717 924.027 26.3717C924.604 26.3717 925.214 26.3861 925.846 26.4221V26.4149ZM922.872 29.386C922.985 29.2529 923.106 29.1198 923.223 28.9867C923.399 28.7925 923.575 28.5982 923.759 28.4076C923.943 28.2134 924.127 28.0227 924.311 27.8429L924.696 27.4652C924.332 27.4652 923.972 27.4652 923.621 27.4652C923.269 27.4652 922.843 27.4832 922.466 27.5048C922.517 27.8285 922.579 28.1522 922.65 28.4832C922.722 28.8141 922.789 29.0874 922.872 29.3932V29.386ZM930.263 36.436C929.819 36.8209 929.372 37.1842 928.928 37.5151C928.485 37.846 928.067 38.1481 927.636 38.4323C927.757 38.5654 927.874 38.6949 927.996 38.8208C928.117 38.9467 928.284 39.1157 928.414 39.2524C929.025 39.8723 929.756 40.3957 930.576 40.7991C930.822 40.9333 931.099 41.0213 931.387 41.0573C931.675 41.0932 931.969 41.0763 932.249 41.0077C932.514 40.8989 932.749 40.7433 932.939 40.5512C933.13 40.3591 933.271 40.1347 933.353 39.8927C933.65 39.1216 933.791 38.3127 933.772 37.5007C933.772 37.3136 933.772 37.123 933.772 36.9252C933.772 36.7273 933.772 36.5979 933.738 36.4324C933.203 36.4648 932.642 36.4792 932.065 36.4792C931.488 36.4792 930.89 36.4792 930.263 36.4432V36.436ZM933.236 33.4649L932.885 33.8642C932.709 34.0584 932.53 34.2491 932.35 34.4397C932.166 34.6375 931.982 34.8246 931.798 35.008L931.413 35.3857C931.777 35.3857 932.136 35.3857 932.488 35.3857C932.839 35.3857 933.266 35.3857 933.642 35.3461C933.592 35.026 933.529 34.6987 933.458 34.3677C933.391 34.08 933.32 33.7779 933.236 33.4721V33.4649ZM935.963 29.6701C935.726 30.0922 935.463 30.5166 935.173 30.9435C934.88 31.3859 934.554 31.8319 934.207 32.2851C934.37 32.8067 934.512 33.321 934.625 33.821C934.738 34.321 934.834 34.7814 934.905 35.2418L935.47 35.1699C935.696 35.1387 935.913 35.1027 936.122 35.062C937.053 34.9155 937.947 34.6319 938.766 34.2239C939.025 34.1064 939.253 33.9432 939.435 33.7448C939.617 33.5465 939.748 33.3176 939.82 33.0728C939.844 32.8205 939.805 32.5667 939.705 32.3285C939.605 32.0902 939.448 31.8731 939.242 31.6916C938.619 31.0809 937.878 30.5673 937.051 30.1737C936.867 30.0838 936.67 29.9867 936.465 29.8967L935.963 29.6701ZM936.403 22.6309C936.725 22.8751 936.986 23.1733 937.171 23.5072C937.355 23.8412 937.458 24.2039 937.473 24.5733C937.537 25.5886 937.365 26.6048 936.967 27.5623C936.892 27.7602 936.812 27.958 936.725 28.1594C936.655 28.3249 936.575 28.4975 936.486 28.6774C936.687 28.7565 936.879 28.8428 937.063 28.9292C937.247 29.0155 937.482 29.1306 937.703 29.2349C938.74 29.7284 939.652 30.3934 940.388 31.1916C940.661 31.4772 940.863 31.8075 940.983 32.1625C941.102 32.5175 941.136 32.8896 941.083 33.2563C940.997 33.6183 940.828 33.9617 940.584 34.2658C940.341 34.57 940.028 34.8285 939.665 35.026C938.674 35.5802 937.565 35.9592 936.403 36.141C936.168 36.1842 935.926 36.2238 935.679 36.2597C935.432 36.2957 935.261 36.3173 935.043 36.3389C935.043 36.5295 935.068 36.7166 935.077 36.8928C935.085 37.0691 935.077 37.3208 935.077 37.5259C935.101 38.5417 934.89 39.5515 934.458 40.4969C934.319 40.8486 934.092 41.1695 933.792 41.4367C933.492 41.7038 933.127 41.9107 932.723 42.0423C932.319 42.174 931.887 42.2272 931.456 42.1982C931.026 42.1692 930.608 42.0587 930.233 41.8746C929.18 41.4135 928.243 40.7778 927.477 40.0042C927.318 39.8531 927.159 39.6912 927 39.5258C926.841 39.3603 926.733 39.2416 926.582 39.0905C926.394 39.1984 926.214 39.2992 926.038 39.3927C925.863 39.4862 925.62 39.6157 925.411 39.7164C924.399 40.2422 923.276 40.5906 922.107 40.7415C921.683 40.8016 921.249 40.787 920.832 40.6985C920.415 40.6101 920.024 40.4498 919.681 40.2272C919.36 39.9823 919.1 39.6839 918.916 39.35C918.733 39.0161 918.63 38.6538 918.614 38.2848C918.556 37.267 918.736 36.2496 919.141 35.2922C919.217 35.0907 919.296 34.8893 919.384 34.6951C919.454 34.5296 919.533 34.357 919.622 34.1771C919.422 34.0944 919.229 34.0117 919.041 33.9253C918.853 33.839 918.623 33.7239 918.405 33.6196C917.37 33.1282 916.457 32.4657 915.72 31.67C915.448 31.3843 915.245 31.054 915.125 30.6992C915.005 30.3443 914.97 29.9723 915.022 29.6054C915.108 29.2433 915.279 28.9 915.523 28.5959C915.767 28.2918 916.08 28.0333 916.444 27.8357C917.434 27.2815 918.543 26.9025 919.706 26.7206C919.94 26.6775 920.183 26.6379 920.425 26.6019L921.065 26.5192C921.065 26.3286 921.04 26.1595 921.032 25.9653C921.023 25.7711 921.032 25.5408 921.032 25.3358C921.006 24.3199 921.216 23.3097 921.651 22.3647C921.79 22.0131 922.017 21.6922 922.317 21.425C922.617 21.1578 922.982 20.951 923.385 20.8193C923.789 20.6877 924.222 20.6345 924.652 20.6635C925.083 20.6925 925.5 20.803 925.875 20.9871C926.928 21.4482 927.865 22.0839 928.631 22.8575C928.79 23.0086 928.949 23.1669 929.108 23.3359C929.267 23.505 929.376 23.6201 929.527 23.7711C929.711 23.6632 929.895 23.5625 930.066 23.4654C930.238 23.3683 930.484 23.246 930.698 23.1453C931.71 22.6195 932.833 22.2711 934.002 22.1202C934.426 22.0603 934.859 22.075 935.276 22.1635C935.693 22.2519 936.085 22.4121 936.428 22.6345L936.403 22.6309ZM921.308 33.6232C921.651 33.7455 922.015 33.8642 922.387 33.9829C922.759 34.1016 923.056 34.1807 923.408 34.2742L923.182 33.8102C923.069 33.5764 922.964 33.3462 922.868 33.1232C922.772 32.9002 922.671 32.67 922.571 32.429L922.387 31.9542C922.195 32.2204 922.015 32.4865 921.843 32.7527C921.672 33.0189 921.471 33.3426 921.308 33.6304V33.6232ZM916.289 29.778C916.266 30.03 916.306 30.2832 916.404 30.5212C916.503 30.7592 916.659 30.9766 916.862 31.1593C917.487 31.7688 918.23 32.281 919.058 32.6736C919.242 32.7671 919.438 32.8606 919.643 32.9542C919.848 33.0477 919.978 33.1052 920.154 33.1772C920.392 32.7599 920.655 32.3355 920.944 31.9074C921.233 31.4794 921.563 31.019 921.91 30.5658C921.747 30.0442 921.605 29.5299 921.492 29.0299C921.379 28.5299 921.283 28.0695 921.212 27.5911C921.023 27.6127 920.831 27.6343 920.643 27.663C920.417 27.6942 920.2 27.7302 919.99 27.771C919.06 27.9175 918.166 28.201 917.347 28.609C917.086 28.7254 916.857 28.8883 916.676 29.0868C916.494 29.2853 916.364 29.5148 916.293 29.7601L916.289 29.778Z" fill="white"/>
<path d="M912.868 49.1295C912.931 49.0907 913.004 49.066 913.081 49.0575C913.108 49.057 913.134 49.0637 913.155 49.0766C913.177 49.0895 913.194 49.108 913.202 49.1295L913.734 50.1042C913.753 50.134 913.765 50.1672 913.767 50.2014C913.766 50.2307 913.752 50.2587 913.729 50.2805C913.691 50.3121 913.649 50.3399 913.604 50.3632C913.295 50.5286 912.965 50.6637 912.621 50.7661C912.273 50.8682 911.906 50.9181 911.538 50.9136C911 50.9209 910.47 50.8041 910.003 50.5754C909.553 50.3544 909.182 50.0308 908.932 49.6402C908.672 49.2263 908.54 48.7619 908.547 48.2914C908.549 48.1276 908.564 47.9641 908.593 47.8022C908.683 47.2233 908.945 46.6743 909.355 46.2087C909.763 45.7429 910.293 45.3659 910.902 45.1081C911.514 44.8463 912.189 44.7108 912.872 44.7124C913.242 44.7072 913.609 44.7659 913.951 44.8851C914.26 44.9915 914.544 45.1464 914.788 45.3419C914.806 45.3543 914.82 45.3703 914.829 45.3884C914.839 45.4066 914.843 45.4263 914.842 45.4462C914.841 45.4867 914.825 45.5259 914.796 45.5577L913.838 46.5001C913.821 46.5182 913.799 46.5331 913.775 46.5436C913.75 46.5541 913.723 46.5601 913.696 46.5612C913.641 46.5598 913.589 46.5405 913.55 46.5073C913.431 46.4051 913.288 46.3255 913.131 46.2735C912.966 46.2234 912.792 46.199 912.617 46.2016C912.274 46.2019 911.936 46.2748 911.634 46.4138C911.325 46.556 911.056 46.7535 910.844 46.9929C910.628 47.2312 910.477 47.5076 910.4 47.8022C910.373 47.9206 910.359 48.0411 910.358 48.1619C910.354 48.3862 910.416 48.6078 910.538 48.8057C910.653 48.9945 910.831 49.1497 911.049 49.2518C911.286 49.3621 911.553 49.4167 911.822 49.41C912.198 49.3948 912.563 49.2956 912.88 49.1223L912.868 49.1295ZM900.609 50.6402C900.594 50.6922 900.562 50.7395 900.517 50.7769C900.474 50.8058 900.421 50.8199 900.366 50.8164H899.024C898.903 50.8164 898.844 50.7805 898.844 50.7049C898.839 50.6835 898.839 50.6616 898.844 50.6402L900.935 44.9786C900.951 44.9266 900.983 44.8793 901.027 44.8419C901.073 44.8124 901.129 44.7971 901.186 44.7987H902.788C902.851 44.7987 902.893 44.7987 902.905 44.8347C902.927 44.8806 902.941 44.9291 902.947 44.9786L903.332 48.6187L905.532 45.0038C905.563 44.9524 905.601 44.9042 905.645 44.8599C905.685 44.8331 905.736 44.8202 905.787 44.8239H907.485C907.53 44.82 907.575 44.8316 907.61 44.8563C907.636 44.8849 907.648 44.921 907.644 44.957V45.0038L906.929 50.6474C906.927 50.6731 906.919 50.6982 906.905 50.7211C906.891 50.744 906.872 50.7642 906.849 50.7805C906.801 50.8108 906.742 50.826 906.682 50.8236H905.344C905.318 50.8265 905.291 50.8241 905.266 50.8166C905.242 50.8091 905.219 50.7967 905.201 50.7805C905.176 50.7397 905.167 50.6929 905.176 50.6474L905.595 47.4677L903.712 50.6366C903.684 50.6935 903.643 50.7449 903.591 50.7877C903.547 50.8139 903.494 50.8265 903.441 50.8236H902.274C902.248 50.8263 902.221 50.8245 902.196 50.8183C902.171 50.8122 902.148 50.8017 902.127 50.7877C902.096 50.7419 902.082 50.6894 902.085 50.6366L901.805 47.3993L900.609 50.6402ZM894.381 49.7481C894.26 49.7481 894.201 49.7086 894.201 49.6294C894.2 49.6115 894.2 49.5934 894.201 49.5755L894.373 48.8885C894.411 48.7518 894.494 48.6835 894.628 48.6835H897.765C897.809 48.6815 897.853 48.6944 897.886 48.7194C897.903 48.7296 897.916 48.7432 897.925 48.7589C897.933 48.7746 897.937 48.7919 897.936 48.8093C897.938 48.8273 897.938 48.8453 897.936 48.8633L897.761 49.5575C897.752 49.6089 897.722 49.656 897.677 49.6906C897.656 49.7096 897.631 49.7246 897.603 49.7345C897.575 49.7445 897.544 49.7491 897.514 49.7481H894.381ZM894.799 48.0756C894.687 48.0756 894.628 48.036 894.628 47.9605C894.628 47.9605 894.628 47.9317 894.628 47.9029L894.795 47.2159C894.833 47.0792 894.921 47.0109 895.05 47.0109H898.187C898.233 47.0101 898.278 47.0242 898.313 47.0504C898.332 47.0694 898.346 47.092 898.353 47.1163C898.36 47.1407 898.361 47.1661 898.355 47.1907L898.187 47.8813C898.176 47.9322 898.147 47.9788 898.104 48.0144C898.082 48.0334 898.056 48.0483 898.027 48.0582C897.998 48.0681 897.967 48.0728 897.936 48.072L894.799 48.0756ZM915.185 42.5147C915.156 42.5147 915.139 42.5147 915.135 42.4967C915.131 42.4837 915.131 42.4701 915.135 42.4571V42.4355C915.158 42.2369 915.229 42.0445 915.344 41.8708C915.466 41.6842 915.645 41.53 915.862 41.4247C916.079 41.3195 916.325 41.2672 916.574 41.2737C916.756 41.2727 916.937 41.3045 917.105 41.3673C917.269 41.4254 917.409 41.5257 917.504 41.6544C917.6 41.7831 917.647 41.934 917.64 42.0866C917.635 42.3133 917.555 42.5342 917.41 42.7233C917.313 42.8404 917.201 42.9478 917.075 43.0434L916.038 43.8384H917.142C917.17 43.8314 917.199 43.8314 917.226 43.8384C917.226 43.8384 917.251 43.8635 917.251 43.8887C917.253 43.9042 917.253 43.92 917.251 43.9355L917.13 44.4283C917.125 44.4566 917.111 44.483 917.088 44.5038C917.059 44.5194 917.026 44.527 916.992 44.5254H914.717C914.688 44.5312 914.658 44.5312 914.629 44.5254C914.616 44.5228 914.604 44.5163 914.597 44.507C914.589 44.4977 914.586 44.4864 914.587 44.475C914.587 44.475 914.587 44.475 914.587 44.4534L914.658 44.1585C914.665 44.1287 914.676 44.0997 914.691 44.0722C914.713 44.0447 914.739 44.0193 914.767 43.9966L916.54 42.5578C916.593 42.5172 916.642 42.4727 916.687 42.4248C916.728 42.3783 916.755 42.324 916.766 42.2665C916.769 42.2498 916.769 42.2328 916.766 42.2161C916.766 42.1839 916.758 42.1521 916.741 42.1233C916.725 42.0946 916.7 42.0696 916.67 42.0507C916.607 42.0102 916.531 41.9887 916.452 41.9895C916.388 41.9873 916.324 41.9978 916.265 42.0202C916.207 42.0427 916.155 42.0765 916.114 42.119C916.026 42.2198 915.967 42.3369 915.942 42.4607C915.942 42.4895 915.917 42.5075 915.896 42.5147C915.87 42.5193 915.843 42.5193 915.817 42.5147H915.185ZM888.969 45.0038C888.976 44.9513 889.007 44.9033 889.055 44.8698C889.102 44.8363 889.163 44.8198 889.224 44.8239H893.913C894.022 44.8239 894.08 44.8635 894.08 44.9462C894.082 44.9654 894.082 44.9846 894.08 45.0038L893.825 46.0433C893.819 46.0952 893.789 46.1428 893.742 46.1759C893.695 46.2089 893.634 46.2246 893.574 46.2195H890.492L890.245 47.2195H892.579C892.708 47.2195 892.775 47.2627 892.775 47.3526C892.777 47.3705 892.777 47.3886 892.775 47.4065L892.566 48.241C892.556 48.2948 892.522 48.3431 892.471 48.3759C892.42 48.4087 892.357 48.4235 892.294 48.4173H889.965L889.701 49.4532H892.863C892.98 49.4532 893.039 49.4964 893.039 49.5863C893.041 49.6006 893.041 49.6151 893.039 49.6294L892.779 50.6654C892.773 50.7173 892.743 50.7649 892.696 50.7979C892.649 50.8309 892.589 50.8467 892.528 50.8416H887.735C887.618 50.8416 887.56 50.8021 887.56 50.7193C887.56 50.7193 887.56 50.6941 887.56 50.6654L888.969 45.0038Z" fill="white"/>
<path fill-rule="evenodd" clip-rule="evenodd" d="M800.63 24.1738C803.882 24.1731 807.06 25.0017 809.764 26.5547C812.468 28.1077 814.575 30.3154 815.82 32.8986C817.064 35.4817 817.39 38.3243 816.756 41.0667C816.122 43.8092 814.556 46.3283 812.257 48.3055C809.958 50.2827 807.029 51.629 803.84 52.1744C800.651 52.7197 797.346 52.4395 794.342 51.3691C791.339 50.2987 788.772 48.4863 786.966 46.1611C785.16 43.8359 784.196 41.1024 784.197 38.3062C784.197 34.5581 785.929 30.9635 789.01 28.3131C792.092 25.6628 796.272 24.1738 800.63 24.1738Z" fill="white"/>
<path fill-rule="evenodd" clip-rule="evenodd" d="M800.632 26.2603C803.403 26.2595 806.113 26.9657 808.418 28.2895C810.722 29.6133 812.519 31.4952 813.58 33.6971C814.641 35.8991 814.919 38.3222 814.378 40.6599C813.838 42.9977 812.503 45.1451 810.543 46.8305C808.584 48.5159 806.087 49.6636 803.368 50.1284C800.65 50.5933 797.832 50.3543 795.272 49.4419C792.712 48.5294 790.523 46.9844 788.984 45.0023C787.445 43.0201 786.624 40.6899 786.625 38.3064C786.625 35.1116 788.1 32.0476 790.727 29.7885C793.354 27.5294 796.917 26.2603 800.632 26.2603Z" fill="#9FACD6"/>
<path fill-rule="evenodd" clip-rule="evenodd" d="M800.631 37.3423C800.853 37.3423 801.071 37.3991 801.256 37.5056C801.441 37.6121 801.586 37.7634 801.671 37.9404C801.756 38.1174 801.778 38.3122 801.734 38.5C801.69 38.6877 801.583 38.8601 801.425 38.9953C801.267 39.1305 801.066 39.2224 800.848 39.2593C800.629 39.2962 800.403 39.2765 800.197 39.2028C799.992 39.129 799.816 39.0044 799.693 38.8448C799.57 38.6852 799.505 38.4978 799.506 38.3063C799.507 38.0503 799.626 37.8051 799.837 37.6244C800.048 37.4437 800.333 37.3423 800.631 37.3423Z" fill="white"/>
<path fill-rule="evenodd" clip-rule="evenodd" d="M800.82 27.5515C800.945 27.5525 801.064 27.5956 801.153 27.6716C801.241 27.7476 801.291 27.8505 801.292 27.958V35.6842C801.299 35.741 801.291 35.7984 801.27 35.8525C801.249 35.9067 801.215 35.9564 801.17 35.9986C801.126 36.0408 801.071 36.0746 801.01 36.0976C800.95 36.1207 800.884 36.1326 800.818 36.1326C800.751 36.1326 800.686 36.1207 800.625 36.0976C800.564 36.0746 800.51 36.0408 800.465 35.9986C800.42 35.9564 800.386 35.9067 800.365 35.8525C800.344 35.7984 800.337 35.741 800.343 35.6842V27.958C800.344 27.8498 800.395 27.7465 800.484 27.6703C800.573 27.5942 800.694 27.5515 800.82 27.5515Z" fill="white"/>
<path fill-rule="evenodd" clip-rule="evenodd" d="M792.676 34.6879C792.737 34.5931 792.84 34.523 792.961 34.4927C793.083 34.4624 793.213 34.4744 793.324 34.526L798.489 36.9827C798.544 37.0087 798.593 37.0438 798.632 37.0858C798.671 37.1279 798.7 37.1762 798.718 37.228C798.735 37.2798 798.741 37.334 798.734 37.3876C798.727 37.4412 798.708 37.493 798.678 37.5403C798.647 37.5875 798.607 37.6292 798.558 37.6629C798.509 37.6966 798.453 37.7216 798.392 37.7367C798.332 37.7517 798.269 37.7564 798.207 37.7505C798.145 37.7445 798.084 37.7281 798.029 37.7021L792.864 35.2454C792.754 35.193 792.673 35.1055 792.637 35.0017C792.602 34.898 792.616 34.7865 792.676 34.6915" fill="white"/>
<path fill-rule="evenodd" clip-rule="evenodd" d="M783.862 78.5488C784.244 78.5481 784.617 78.6448 784.934 78.8265C785.252 79.0083 785.5 79.267 785.646 79.57C785.793 79.8729 785.832 80.2064 785.758 80.5283C785.684 80.8502 785.501 81.146 785.231 81.3783C784.962 81.6105 784.618 81.7688 784.244 81.8331C783.87 81.8974 783.482 81.8647 783.129 81.7393C782.777 81.6139 782.475 81.4014 782.263 81.1286C782.051 80.8559 781.938 80.5351 781.938 80.207C781.937 79.9894 781.987 79.7739 782.083 79.5727C782.18 79.3716 782.321 79.1887 782.5 79.0347C782.679 78.8807 782.891 78.7585 783.125 78.6751C783.358 78.5917 783.609 78.5488 783.862 78.5488Z" fill="white"/>
<path fill-rule="evenodd" clip-rule="evenodd" d="M799.44 81.1279C799.659 81.1272 799.873 81.1824 800.055 81.2865C800.237 81.3905 800.379 81.5388 800.463 81.7125C800.547 81.8861 800.57 82.0774 800.527 82.2619C800.485 82.4464 800.379 82.616 800.225 82.749C800.07 82.882 799.873 82.9725 799.658 83.009C799.444 83.0456 799.221 83.0265 799.02 82.9542C798.818 82.8818 798.645 82.7596 798.524 82.6029C798.403 82.4461 798.339 82.2621 798.34 82.0739C798.341 81.8233 798.457 81.5833 798.663 81.4061C798.869 81.2289 799.148 81.1289 799.44 81.1279Z" fill="white"/>
<path fill-rule="evenodd" clip-rule="evenodd" d="M811.424 98.4221C811.57 98.4221 811.712 98.4593 811.834 98.5291C811.955 98.5988 812.049 98.6979 812.105 98.8138C812.16 98.9297 812.175 99.0571 812.146 99.18C812.117 99.3029 812.047 99.4157 811.943 99.5041C811.84 99.5925 811.708 99.6525 811.565 99.6765C811.422 99.7006 811.274 99.6875 811.14 99.639C811.005 99.5906 810.89 99.5089 810.81 99.4043C810.73 99.2997 810.687 99.177 810.688 99.0516C810.688 98.9686 810.707 98.8865 810.744 98.8099C810.781 98.7333 810.835 98.6637 810.904 98.6052C810.972 98.5467 811.053 98.5004 811.143 98.469C811.232 98.4376 811.328 98.4217 811.424 98.4221Z" fill="white"/>
<path fill-rule="evenodd" clip-rule="evenodd" d="M860.683 93.4763C860.756 93.4756 860.828 93.4936 860.889 93.5279C860.95 93.5623 860.998 93.6115 861.026 93.6692C861.055 93.727 861.063 93.7908 861.049 93.8524C861.035 93.914 861 93.9708 860.949 94.0154C860.898 94.06 860.832 94.0905 860.761 94.103C860.689 94.1156 860.615 94.1095 860.548 94.0856C860.48 94.0618 860.422 94.0212 860.382 93.9691C860.341 93.917 860.319 93.8556 860.319 93.7929C860.319 93.7515 860.328 93.7104 860.346 93.672C860.364 93.6336 860.391 93.5987 860.424 93.5693C860.458 93.5398 860.499 93.5165 860.543 93.5005C860.587 93.4845 860.635 93.4763 860.683 93.4763Z" fill="white"/>
<path fill-rule="evenodd" clip-rule="evenodd" d="M853.394 78.0957C853.467 78.095 853.538 78.113 853.599 78.1473C853.66 78.1817 853.708 78.2308 853.737 78.2886C853.765 78.3464 853.773 78.4101 853.759 78.4718C853.746 78.5334 853.711 78.5902 853.66 78.6348C853.608 78.6794 853.543 78.7099 853.471 78.7224C853.4 78.7349 853.325 78.7289 853.258 78.705C853.19 78.6812 853.133 78.6406 853.092 78.5885C853.051 78.5364 853.03 78.475 853.03 78.4123C853.03 78.3289 853.068 78.249 853.136 78.1897C853.204 78.1304 853.297 78.0967 853.394 78.0957Z" fill="white"/>
<path fill-rule="evenodd" clip-rule="evenodd" d="M806.969 120.36C807.114 120.36 807.257 120.397 807.378 120.467C807.499 120.537 807.593 120.636 807.649 120.752C807.705 120.867 807.719 120.995 807.69 121.118C807.662 121.241 807.591 121.353 807.488 121.442C807.384 121.53 807.253 121.59 807.11 121.614C806.967 121.638 806.818 121.625 806.684 121.577C806.55 121.528 806.435 121.447 806.354 121.342C806.274 121.237 806.232 121.115 806.232 120.989C806.232 120.906 806.252 120.824 806.289 120.748C806.326 120.671 806.38 120.601 806.448 120.543C806.517 120.484 806.598 120.438 806.687 120.407C806.776 120.375 806.872 120.359 806.969 120.36Z" fill="white"/>
<path fill-rule="evenodd" clip-rule="evenodd" d="M782.835 130.971C783.052 130.971 783.265 131.028 783.445 131.132C783.625 131.236 783.766 131.384 783.848 131.557C783.931 131.73 783.952 131.92 783.909 132.103C783.866 132.287 783.761 132.455 783.607 132.587C783.453 132.719 783.257 132.809 783.044 132.845C782.831 132.881 782.61 132.862 782.409 132.79C782.208 132.719 782.037 132.597 781.916 132.442C781.795 132.286 781.731 132.104 781.731 131.917C781.731 131.792 781.76 131.669 781.815 131.554C781.871 131.439 781.952 131.334 782.055 131.247C782.157 131.159 782.279 131.089 782.413 131.042C782.547 130.994 782.69 130.97 782.835 130.971Z" fill="white"/>
<path fill-rule="evenodd" clip-rule="evenodd" d="M902.549 103.274C902.768 103.274 902.981 103.33 903.163 103.435C903.345 103.539 903.486 103.688 903.57 103.861C903.653 104.035 903.675 104.226 903.632 104.411C903.589 104.595 903.483 104.764 903.329 104.897C903.174 105.029 902.977 105.12 902.762 105.156C902.548 105.192 902.325 105.173 902.124 105.1C901.922 105.028 901.75 104.906 901.629 104.749C901.508 104.592 901.444 104.408 901.445 104.22C901.445 104.096 901.474 103.973 901.529 103.858C901.585 103.743 901.666 103.638 901.769 103.55C901.871 103.462 901.993 103.393 902.127 103.345C902.261 103.298 902.404 103.274 902.549 103.274Z" fill="#ECE3FA"/>
<path fill-rule="evenodd" clip-rule="evenodd" d="M953.556 88.5054C953.711 88.5054 953.862 88.5448 953.991 88.6187C954.119 88.6926 954.219 88.7977 954.279 88.9206C954.338 89.0435 954.353 89.1787 954.323 89.3092C954.293 89.4397 954.218 89.5596 954.109 89.6536C954 89.7477 953.86 89.8118 953.709 89.8377C953.557 89.8637 953.4 89.8503 953.257 89.7994C953.114 89.7485 952.992 89.6623 952.906 89.5517C952.82 89.4411 952.774 89.311 952.774 89.178C952.774 88.9996 952.856 88.8285 953.003 88.7024C953.15 88.5762 953.349 88.5054 953.556 88.5054Z" fill="white"/>
<path fill-rule="evenodd" clip-rule="evenodd" d="M904.796 24.6846C904.95 24.6846 905.102 24.724 905.23 24.7979C905.359 24.8718 905.459 24.9769 905.518 25.0998C905.577 25.2227 905.593 25.358 905.563 25.4884C905.533 25.6189 905.458 25.7388 905.349 25.8328C905.239 25.9269 905.1 25.991 904.948 26.0169C904.796 26.0429 904.639 26.0295 904.496 25.9786C904.353 25.9277 904.231 25.8415 904.145 25.7309C904.059 25.6203 904.013 25.4902 904.013 25.3572C904.013 25.2687 904.033 25.1811 904.072 25.0992C904.111 25.0174 904.169 24.9431 904.241 24.8805C904.314 24.818 904.4 24.7684 904.496 24.7348C904.591 24.7012 904.693 24.6841 904.796 24.6846Z" fill="white"/>
<path fill-rule="evenodd" clip-rule="evenodd" d="M775.529 127.957C775.675 127.956 775.817 127.992 775.939 128.061C776.06 128.131 776.155 128.229 776.212 128.345C776.268 128.46 776.283 128.588 776.255 128.711C776.227 128.834 776.158 128.947 776.055 129.036C775.952 129.125 775.821 129.186 775.678 129.21C775.535 129.235 775.387 129.223 775.252 129.175C775.118 129.127 775.002 129.046 774.921 128.942C774.84 128.838 774.797 128.715 774.797 128.59C774.797 128.422 774.874 128.262 775.011 128.143C775.148 128.025 775.334 127.958 775.529 127.957Z" fill="white"/>
<path fill-rule="evenodd" clip-rule="evenodd" d="M844.785 134.089C844.949 134.093 845.108 134.138 845.242 134.218C845.376 134.298 845.48 134.411 845.541 134.542C845.601 134.672 845.616 134.815 845.583 134.953C845.55 135.091 845.471 135.218 845.355 135.317C845.24 135.417 845.093 135.485 844.932 135.513C844.772 135.541 844.606 135.529 844.454 135.477C844.302 135.424 844.171 135.335 844.077 135.219C843.984 135.104 843.932 134.967 843.928 134.827C843.925 134.729 843.945 134.632 843.987 134.542C844.029 134.451 844.092 134.369 844.172 134.3C844.253 134.231 844.348 134.177 844.454 134.14C844.559 134.104 844.672 134.087 844.785 134.089Z" fill="white"/>
<path d="M735 53.5C735 75.3152 717.315 93 695.5 93C673.685 93 656 75.3152 656 53.5C656 31.6848 673.685 14 695.5 14C717.315 14 735 31.6848 735 53.5ZM660.535 53.5C660.535 72.8105 676.189 88.4648 695.5 88.4648C714.811 88.4648 730.465 72.8105 730.465 53.5C730.465 34.1895 714.811 18.5352 695.5 18.5352C676.189 18.5352 660.535 34.1895 660.535 53.5Z" fill="#4212D8"/>
<path d="M707 95C707 114.33 691.33 130 672 130C652.67 130 637 114.33 637 95C637 75.67 652.67 60 672 60C691.33 60 707 75.67 707 95ZM641.019 95C641.019 112.111 654.889 125.981 672 125.981C689.111 125.981 702.981 112.111 702.981 95C702.981 77.8894 689.111 64.0185 672 64.0185C654.889 64.0185 641.019 77.8894 641.019 95Z" fill="#28B446"/>
<path d="M672 63C672 90.6142 649.614 113 622 113C594.386 113 572 90.6142 572 63C572 35.3858 594.386 13 622 13C649.614 13 672 35.3858 672 63ZM577.741 63C577.741 87.4437 597.556 107.259 622 107.259C646.444 107.259 666.259 87.4437 666.259 63C666.259 38.5563 646.444 18.7407 622 18.7407C597.556 18.7407 577.741 38.5563 577.741 63Z" fill="#E9AC06"/>
</svg>
