<svg width="593" height="396" viewBox="0 0 593 396" fill="none" xmlns="http://www.w3.org/2000/svg">
<path d="M297.433 363C377.006 363 441.513 354.914 441.513 344.94C441.513 334.966 377.006 326.88 297.433 326.88C217.859 326.88 153.353 334.966 153.353 344.94C153.353 354.914 217.859 363 297.433 363Z" fill="#FFE3C2"/>
<path d="M296.5 290.339C380.946 290.339 449.403 232.732 449.403 161.67C449.403 90.6073 380.946 33 296.5 33C212.054 33 143.597 90.6073 143.597 161.67C143.597 232.732 212.054 290.339 296.5 290.339Z" fill="#B99FE5"/>
<path d="M143.597 161.67C143.6 168.786 144.296 175.885 145.675 182.866H298.844V33.0254C298.064 33.0152 297.284 33 296.5 33C212.053 33 143.597 90.6079 143.597 161.67Z" fill="#BCB6FA"/>
<path d="M144.416 148.298C142.999 159.817 143.424 171.488 145.675 182.872H177.439L298.844 95.685V66.7123L296.5 41.7935L144.416 148.298Z" fill="#FFFFF4"/>
<path d="M301.397 33.0723C299.77 33.0292 298.14 33 296.5 33H296.326V181.153H236.655V43.2325C234.948 43.8443 233.258 44.4827 231.587 45.1478V181.153H180.396V77.9485C178.652 79.6595 176.962 81.4097 175.328 83.1993V181.153H145.336C145.56 182.391 145.805 183.623 146.072 184.847H301.511V181.153H301.397V33.0723Z" fill="#743FCB"/>
<path d="M370.109 48.8716V274.467C417.372 252.579 449.403 210.275 449.403 161.669C449.403 113.064 417.373 70.7595 370.109 48.8716Z" fill="#BB96F9"/>
<path d="M172.581 181.153H175.326V83.1992L172.581 86.2771V181.153Z" fill="#743FCB"/>
<path d="M227.95 181.154H231.586V45.1479L227.95 46.6266V181.154Z" fill="#743FCB"/>
<path d="M292.999 181.154H296.328L296.5 33H292.999V181.154Z" fill="#743FCB"/>
<path d="M350.277 124.352H226.151V208.711H350.277V124.352Z" fill="#E7DCFA"/>
<path d="M346.572 129.002H229.855V204.062H346.572V129.002Z" fill="#C3B8D4"/>
<path d="M269.243 158.314V159H266.973V158.314H269.243ZM267.26 154.734V159H266.381V154.734H267.26ZM268.947 156.472V157.14H266.973V156.472H268.947ZM269.24 154.734V155.423H266.973V154.734H269.24ZM270.529 156.507V159H269.686V155.83H270.477L270.529 156.507ZM270.406 157.304H270.178C270.178 157.069 270.208 156.858 270.269 156.671C270.329 156.481 270.414 156.32 270.523 156.188C270.633 156.053 270.763 155.95 270.913 155.88C271.065 155.808 271.235 155.771 271.423 155.771C271.571 155.771 271.707 155.793 271.83 155.836C271.953 155.879 272.059 155.947 272.146 156.041C272.236 156.135 272.305 156.259 272.352 156.413C272.4 156.567 272.425 156.756 272.425 156.979V159H271.575V156.976C271.575 156.835 271.556 156.726 271.517 156.647C271.478 156.569 271.42 156.515 271.344 156.483C271.27 156.45 271.178 156.434 271.068 156.434C270.955 156.434 270.856 156.456 270.772 156.501C270.69 156.546 270.622 156.608 270.567 156.688C270.515 156.767 270.475 156.858 270.447 156.964C270.42 157.069 270.406 157.183 270.406 157.304ZM274.619 155.83V156.428H272.773V155.83H274.619ZM273.23 155.048H274.074V158.045C274.074 158.137 274.086 158.207 274.109 158.256C274.135 158.305 274.172 158.339 274.221 158.358C274.27 158.376 274.331 158.385 274.405 158.385C274.458 158.385 274.505 158.383 274.546 158.379C274.589 158.373 274.625 158.367 274.654 158.361L274.657 158.982C274.585 159.006 274.507 159.024 274.423 159.038C274.339 159.052 274.246 159.059 274.145 159.059C273.959 159.059 273.797 159.028 273.658 158.968C273.521 158.905 273.416 158.806 273.342 158.669C273.268 158.532 273.23 158.353 273.23 158.13V155.048ZM276.559 159.059C276.312 159.059 276.092 159.02 275.896 158.941C275.701 158.861 275.535 158.751 275.398 158.61C275.264 158.47 275.16 158.307 275.088 158.121C275.016 157.934 274.979 157.734 274.979 157.523V157.406C274.979 157.166 275.014 156.946 275.082 156.747C275.15 156.548 275.248 156.375 275.375 156.229C275.504 156.082 275.66 155.97 275.844 155.892C276.027 155.812 276.234 155.771 276.465 155.771C276.689 155.771 276.889 155.809 277.062 155.883C277.236 155.957 277.382 156.062 277.499 156.199C277.618 156.336 277.708 156.5 277.769 156.691C277.829 156.881 277.859 157.092 277.859 157.324V157.676H275.34V157.113H277.03V157.049C277.03 156.932 277.009 156.827 276.966 156.735C276.925 156.642 276.862 156.567 276.778 156.513C276.694 156.458 276.587 156.431 276.456 156.431C276.345 156.431 276.249 156.455 276.169 156.504C276.089 156.553 276.023 156.621 275.973 156.709C275.924 156.797 275.887 156.9 275.861 157.02C275.838 157.137 275.826 157.266 275.826 157.406V157.523C275.826 157.65 275.844 157.768 275.879 157.875C275.916 157.982 275.968 158.075 276.034 158.153C276.103 158.231 276.185 158.292 276.28 158.335C276.378 158.378 276.488 158.399 276.611 158.399C276.764 158.399 276.905 158.37 277.036 158.312C277.169 158.251 277.283 158.16 277.379 158.039L277.789 158.484C277.723 158.58 277.632 158.672 277.517 158.76C277.403 158.848 277.267 158.92 277.106 158.977C276.946 159.031 276.764 159.059 276.559 159.059ZM279.184 156.521V159H278.34V155.83H279.134L279.184 156.521ZM280.139 155.81L280.124 156.592C280.083 156.586 280.033 156.581 279.975 156.577C279.918 156.571 279.866 156.568 279.819 156.568C279.7 156.568 279.597 156.584 279.509 156.615C279.423 156.645 279.351 156.688 279.292 156.747C279.235 156.806 279.192 156.877 279.163 156.961C279.136 157.045 279.12 157.141 279.116 157.248L278.946 157.195C278.946 156.99 278.967 156.802 279.008 156.63C279.049 156.456 279.108 156.305 279.187 156.176C279.267 156.047 279.364 155.947 279.479 155.877C279.595 155.807 279.727 155.771 279.875 155.771C279.922 155.771 279.97 155.775 280.019 155.783C280.067 155.789 280.107 155.798 280.139 155.81ZM283.584 155.83V156.428H281.738V155.83H283.584ZM282.195 155.048H283.039V158.045C283.039 158.137 283.051 158.207 283.074 158.256C283.1 158.305 283.137 158.339 283.186 158.358C283.234 158.376 283.296 158.385 283.37 158.385C283.423 158.385 283.47 158.383 283.511 158.379C283.554 158.373 283.59 158.367 283.619 158.361L283.622 158.982C283.55 159.006 283.472 159.024 283.388 159.038C283.304 159.052 283.211 159.059 283.109 159.059C282.924 159.059 282.762 159.028 282.623 158.968C282.486 158.905 282.381 158.806 282.307 158.669C282.232 158.532 282.195 158.353 282.195 158.13V155.048ZM284.888 154.5V159H284.044V154.5H284.888ZM284.768 157.304H284.536C284.538 157.083 284.567 156.88 284.624 156.694C284.681 156.507 284.762 156.345 284.867 156.208C284.973 156.069 285.099 155.962 285.245 155.886C285.394 155.81 285.558 155.771 285.737 155.771C285.894 155.771 286.035 155.794 286.162 155.839C286.291 155.882 286.401 155.952 286.493 156.05C286.587 156.146 286.659 156.271 286.71 156.428C286.761 156.584 286.786 156.773 286.786 156.996V159H285.937V156.99C285.937 156.85 285.916 156.739 285.875 156.659C285.836 156.577 285.778 156.52 285.702 156.486C285.628 156.451 285.536 156.434 285.427 156.434C285.306 156.434 285.202 156.456 285.116 156.501C285.032 156.546 284.965 156.608 284.914 156.688C284.863 156.767 284.826 156.858 284.803 156.964C284.779 157.069 284.768 157.183 284.768 157.304ZM288.887 159.059C288.641 159.059 288.42 159.02 288.225 158.941C288.029 158.861 287.863 158.751 287.727 158.61C287.592 158.47 287.488 158.307 287.416 158.121C287.344 157.934 287.308 157.734 287.308 157.523V157.406C287.308 157.166 287.342 156.946 287.41 156.747C287.479 156.548 287.576 156.375 287.703 156.229C287.832 156.082 287.988 155.97 288.172 155.892C288.355 155.812 288.562 155.771 288.793 155.771C289.018 155.771 289.217 155.809 289.391 155.883C289.564 155.957 289.71 156.062 289.827 156.199C289.946 156.336 290.036 156.5 290.097 156.691C290.157 156.881 290.188 157.092 290.188 157.324V157.676H287.668V157.113H289.358V157.049C289.358 156.932 289.337 156.827 289.294 156.735C289.253 156.642 289.19 156.567 289.106 156.513C289.022 156.458 288.915 156.431 288.784 156.431C288.673 156.431 288.577 156.455 288.497 156.504C288.417 156.553 288.352 156.621 288.301 156.709C288.252 156.797 288.215 156.9 288.189 157.02C288.166 157.137 288.154 157.266 288.154 157.406V157.523C288.154 157.65 288.172 157.768 288.207 157.875C288.244 157.982 288.296 158.075 288.362 158.153C288.431 158.231 288.513 158.292 288.608 158.335C288.706 158.378 288.816 158.399 288.939 158.399C289.092 158.399 289.233 158.37 289.364 158.312C289.497 158.251 289.611 158.16 289.707 158.039L290.117 158.484C290.051 158.58 289.96 158.672 289.845 158.76C289.731 158.848 289.595 158.92 289.435 158.977C289.274 159.031 289.092 159.059 288.887 159.059ZM294.688 157.585H295.563C295.546 157.872 295.467 158.127 295.326 158.35C295.188 158.572 294.993 158.746 294.743 158.871C294.495 158.996 294.196 159.059 293.847 159.059C293.573 159.059 293.328 159.012 293.111 158.918C292.895 158.822 292.709 158.686 292.555 158.508C292.402 158.33 292.286 158.115 292.206 157.863C292.126 157.611 292.086 157.329 292.086 157.017V156.721C292.086 156.408 292.127 156.126 292.209 155.874C292.293 155.62 292.412 155.404 292.566 155.227C292.723 155.049 292.909 154.912 293.126 154.816C293.343 154.721 293.585 154.673 293.853 154.673C294.208 154.673 294.508 154.737 294.752 154.866C294.998 154.995 295.188 155.173 295.323 155.399C295.46 155.626 295.542 155.884 295.569 156.173H294.69C294.681 156.001 294.646 155.855 294.588 155.736C294.529 155.615 294.44 155.524 294.321 155.464C294.204 155.401 294.048 155.37 293.853 155.37C293.706 155.37 293.578 155.397 293.469 155.452C293.359 155.507 293.268 155.59 293.193 155.701C293.119 155.812 293.063 155.953 293.026 156.123C292.991 156.291 292.974 156.488 292.974 156.715V157.017C292.974 157.237 292.99 157.432 293.023 157.6C293.057 157.766 293.107 157.906 293.176 158.021C293.246 158.135 293.336 158.221 293.445 158.279C293.557 158.336 293.69 158.364 293.847 158.364C294.03 158.364 294.182 158.335 294.301 158.276C294.42 158.218 294.511 158.131 294.573 158.016C294.638 157.9 294.676 157.757 294.688 157.585ZM295.953 157.447V157.386C295.953 157.153 295.986 156.939 296.053 156.744C296.119 156.547 296.216 156.376 296.343 156.231C296.47 156.087 296.626 155.975 296.812 155.895C296.997 155.812 297.21 155.771 297.45 155.771C297.69 155.771 297.904 155.812 298.092 155.895C298.279 155.975 298.437 156.087 298.563 156.231C298.692 156.376 298.79 156.547 298.856 156.744C298.923 156.939 298.956 157.153 298.956 157.386V157.447C298.956 157.678 298.923 157.892 298.856 158.089C298.79 158.284 298.692 158.455 298.563 158.602C298.437 158.746 298.28 158.858 298.095 158.938C297.909 159.019 297.696 159.059 297.456 159.059C297.216 159.059 297.002 159.019 296.814 158.938C296.629 158.858 296.472 158.746 296.343 158.602C296.216 158.455 296.119 158.284 296.053 158.089C295.986 157.892 295.953 157.678 295.953 157.447ZM296.797 157.386V157.447C296.797 157.58 296.809 157.704 296.832 157.819C296.855 157.935 296.893 158.036 296.943 158.124C296.996 158.21 297.064 158.277 297.148 158.326C297.232 158.375 297.335 158.399 297.456 158.399C297.573 158.399 297.674 158.375 297.758 158.326C297.842 158.277 297.909 158.21 297.96 158.124C298.011 158.036 298.048 157.935 298.071 157.819C298.097 157.704 298.109 157.58 298.109 157.447V157.386C298.109 157.257 298.097 157.136 298.071 157.022C298.048 156.907 298.01 156.806 297.957 156.718C297.906 156.628 297.839 156.558 297.755 156.507C297.671 156.456 297.569 156.431 297.45 156.431C297.331 156.431 297.229 156.456 297.146 156.507C297.063 156.558 296.996 156.628 296.943 156.718C296.893 156.806 296.855 156.907 296.832 157.022C296.809 157.136 296.797 157.257 296.797 157.386ZM301.347 158.309V154.5H302.196V159H301.432L301.347 158.309ZM299.343 157.453V157.392C299.343 157.149 299.37 156.93 299.425 156.732C299.479 156.533 299.56 156.362 299.665 156.22C299.771 156.077 299.9 155.967 300.055 155.889C300.209 155.811 300.385 155.771 300.582 155.771C300.768 155.771 300.93 155.811 301.068 155.889C301.209 155.967 301.328 156.078 301.426 156.223C301.525 156.365 301.605 156.534 301.666 156.729C301.727 156.923 301.771 157.135 301.798 157.365V157.5C301.771 157.721 301.727 157.926 301.666 158.115C301.605 158.305 301.525 158.471 301.426 158.613C301.328 158.754 301.209 158.863 301.068 158.941C300.928 159.02 300.764 159.059 300.576 159.059C300.379 159.059 300.203 159.019 300.049 158.938C299.896 158.858 299.768 158.746 299.662 158.602C299.559 158.457 299.479 158.287 299.425 158.092C299.37 157.896 299.343 157.684 299.343 157.453ZM300.187 157.392V157.453C300.187 157.584 300.196 157.706 300.216 157.819C300.237 157.933 300.271 158.033 300.318 158.121C300.367 158.207 300.43 158.274 300.506 158.323C300.584 158.37 300.679 158.394 300.79 158.394C300.935 158.394 301.054 158.361 301.147 158.297C301.241 158.23 301.312 158.14 301.361 158.024C301.412 157.909 301.441 157.776 301.449 157.626V157.242C301.443 157.119 301.426 157.009 301.396 156.911C301.369 156.812 301.328 156.727 301.273 156.656C301.221 156.586 301.154 156.531 301.074 156.492C300.996 156.453 300.903 156.434 300.796 156.434C300.687 156.434 300.593 156.459 300.515 156.51C300.437 156.559 300.373 156.626 300.324 156.712C300.277 156.798 300.242 156.899 300.219 157.017C300.197 157.132 300.187 157.257 300.187 157.392ZM304.314 159.059C304.068 159.059 303.848 159.02 303.652 158.941C303.457 158.861 303.291 158.751 303.154 158.61C303.02 158.47 302.916 158.307 302.844 158.121C302.771 157.934 302.735 157.734 302.735 157.523V157.406C302.735 157.166 302.77 156.946 302.838 156.747C302.906 156.548 303.004 156.375 303.131 156.229C303.26 156.082 303.416 155.97 303.6 155.892C303.783 155.812 303.99 155.771 304.221 155.771C304.445 155.771 304.645 155.809 304.818 155.883C304.992 155.957 305.138 156.062 305.255 156.199C305.374 156.336 305.464 156.5 305.524 156.691C305.585 156.881 305.615 157.092 305.615 157.324V157.676H303.096V157.113H304.786V157.049C304.786 156.932 304.765 156.827 304.722 156.735C304.681 156.642 304.618 156.567 304.534 156.513C304.45 156.458 304.343 156.431 304.212 156.431C304.101 156.431 304.005 156.455 303.925 156.504C303.845 156.553 303.779 156.621 303.729 156.709C303.68 156.797 303.643 156.9 303.617 157.02C303.594 157.137 303.582 157.266 303.582 157.406V157.523C303.582 157.65 303.6 157.768 303.635 157.875C303.672 157.982 303.724 158.075 303.79 158.153C303.858 158.231 303.94 158.292 304.036 158.335C304.134 158.378 304.244 158.399 304.367 158.399C304.52 158.399 304.661 158.37 304.792 158.312C304.925 158.251 305.039 158.16 305.135 158.039L305.545 158.484C305.479 158.58 305.388 158.672 305.272 158.76C305.159 158.848 305.022 158.92 304.862 158.977C304.702 159.031 304.52 159.059 304.314 159.059Z" fill="white"/>
<path d="M346.572 129.002H229.855V130.563H346.572V129.002Z" fill="#E7DCFA"/>
<path d="M307.68 208.711H269.74V222.608H307.68V208.711Z" fill="#310000"/>
<path d="M262.201 222.608L257.188 232.095H321.64L313.754 222.608H262.201Z" fill="#743FCB"/>
<path d="M397.437 232.095H165.118V236.927H397.437V232.095Z" fill="#F7A94A"/>
<path d="M364.945 236.927H286.565V243.629H364.945V236.927Z" fill="#F7A94A"/>
<path d="M286.566 236.927H221.104V344.712H286.566V236.927Z" fill="#F7A94A"/>
<path d="M282.454 278.605H224.483V302.67H282.454V278.605Z" fill="#FAD189"/>
<path d="M282.454 278.605H224.483V280.527H282.454V278.605Z" fill="#E28100"/>
<path d="M282.454 313.426H224.483V337.491H282.454V313.426Z" fill="#FAD189"/>
<path d="M282.454 236.927H224.483V276.216H282.454V236.927Z" fill="#F7A94A"/>
<path d="M280.37 307.736H226.151V309.43H280.37V307.736Z" fill="#FAD189"/>
<path d="M253.074 285.634C252.545 285.634 252.027 285.791 251.587 286.086C251.147 286.38 250.804 286.799 250.602 287.289C250.399 287.778 250.346 288.317 250.449 288.837C250.553 289.357 250.808 289.835 251.182 290.21C251.556 290.585 252.033 290.84 252.552 290.943C253.071 291.047 253.609 290.994 254.098 290.791C254.587 290.588 255.005 290.244 255.299 289.804C255.593 289.363 255.75 288.845 255.75 288.314C255.75 287.603 255.468 286.922 254.966 286.419C254.465 285.916 253.784 285.634 253.074 285.634Z" fill="#7E1518"/>
<path d="M253.515 328.158C254.974 327.921 255.964 326.544 255.728 325.082C255.491 323.621 254.116 322.629 252.657 322.866C251.198 323.103 250.208 324.48 250.444 325.941C250.681 327.403 252.056 328.395 253.515 328.158Z" fill="#7E1518"/>
<path d="M234.771 270.326V271.235C234.771 272.675 235.342 274.056 236.359 275.074C237.375 276.092 238.754 276.664 240.192 276.664H274.76V264.9H240.192C238.755 264.9 237.376 265.471 236.36 266.489C235.344 267.506 234.772 268.886 234.771 270.326Z" fill="#FF5B00"/>
<path d="M239.433 270.499V271.058C239.432 271.5 239.519 271.937 239.688 272.345C239.856 272.753 240.103 273.123 240.415 273.436C240.726 273.748 241.096 273.996 241.504 274.165C241.911 274.334 242.347 274.421 242.788 274.421H274.667V267.138H242.788C242.347 267.138 241.911 267.224 241.504 267.393C241.097 267.562 240.727 267.81 240.415 268.122C240.103 268.434 239.856 268.804 239.688 269.212C239.519 269.62 239.432 270.057 239.433 270.499Z" fill="#FFCC9C"/>
<path d="M228.525 258.748V259.653C228.525 260.366 228.666 261.072 228.938 261.731C229.211 262.39 229.61 262.989 230.114 263.493C230.617 263.997 231.215 264.397 231.873 264.67C232.53 264.943 233.235 265.083 233.947 265.083H278.955V253.318H233.947C232.51 253.318 231.131 253.89 230.114 254.909C229.097 255.927 228.526 257.308 228.525 258.748Z" fill="#EB2900"/>
<path d="M233.187 258.923V259.484C233.187 260.375 233.541 261.23 234.17 261.861C234.799 262.491 235.653 262.845 236.542 262.845H278.863V255.56H236.542C236.102 255.56 235.665 255.647 235.258 255.816C234.851 255.985 234.481 256.233 234.169 256.545C233.857 256.857 233.61 257.228 233.442 257.636C233.273 258.044 233.187 258.481 233.187 258.923Z" fill="#FFE3C2"/>
<path d="M279.142 257.116H249.065V258.112H279.142V257.116Z" fill="#FFB083"/>
<path d="M279.143 259.854H263.732V260.85H279.143V259.854Z" fill="#FFB083"/>
<path d="M274.668 268.692H259.256V269.689H274.668V268.692Z" fill="#FFB083"/>
<path d="M282.454 313.178H224.483V315.099H282.454V313.178Z" fill="#E28100"/>
<path d="M282.454 236.927H224.483V243.629H282.454V236.927Z" fill="#FAD189"/>
<path d="M262.201 222.608L260.897 225.075H315.38L313.754 222.608H262.201Z" fill="#E7DCFA"/>
<path d="M229.855 204.062H231.103V130.563L229.855 129.002V204.062Z" fill="#333900"/>
<path d="M286.84 103.616C285.038 103.618 283.311 104.336 282.036 105.612C280.762 106.888 280.045 108.618 280.043 110.423V115.354C280.038 115.484 280.06 115.613 280.106 115.734C280.152 115.855 280.222 115.965 280.312 116.059C280.402 116.152 280.51 116.226 280.629 116.277C280.748 116.328 280.876 116.354 281.005 116.354C281.135 116.354 281.263 116.328 281.382 116.277C281.501 116.226 281.609 116.152 281.699 116.059C281.788 115.965 281.858 115.855 281.905 115.734C281.951 115.613 281.972 115.484 281.968 115.354V110.423C281.968 109.129 282.481 107.887 283.395 106.972C284.308 106.057 285.548 105.543 286.84 105.543C288.132 105.543 289.371 106.057 290.285 106.972C291.198 107.887 291.712 109.129 291.712 110.423V115.354C291.707 115.484 291.728 115.613 291.775 115.734C291.821 115.855 291.891 115.965 291.981 116.059C292.071 116.152 292.178 116.226 292.297 116.277C292.417 116.328 292.545 116.354 292.674 116.354C292.803 116.354 292.932 116.328 293.051 116.277C293.17 116.226 293.277 116.152 293.367 116.059C293.457 115.965 293.527 115.855 293.573 115.734C293.62 115.613 293.641 115.484 293.636 115.354V110.423C293.634 108.618 292.917 106.888 291.643 105.612C290.369 104.336 288.641 103.618 286.84 103.616Z" fill="#F7A94A"/>
<path d="M286.84 101.997C284.752 101.999 282.75 102.831 281.274 104.31C279.797 105.788 278.967 107.793 278.965 109.885V115.596C278.965 115.893 279.082 116.177 279.291 116.386C279.5 116.596 279.784 116.713 280.08 116.713C280.375 116.713 280.659 116.596 280.868 116.386C281.077 116.177 281.195 115.893 281.195 115.596V109.885C281.217 108.4 281.822 106.983 282.878 105.941C283.934 104.898 285.357 104.314 286.84 104.314C288.323 104.314 289.746 104.898 290.803 105.941C291.859 106.983 292.464 108.4 292.486 109.885V115.596C292.486 115.893 292.603 116.177 292.812 116.386C293.022 116.596 293.305 116.713 293.601 116.713C293.897 116.713 294.18 116.596 294.389 116.386C294.598 116.177 294.716 115.893 294.716 115.596V109.885C294.714 107.793 293.883 105.788 292.406 104.309C290.93 102.83 288.928 101.999 286.84 101.997Z" fill="#F7A94A"/>
<path d="M298.037 118.244H275.644V137.925H298.037V118.244Z" fill="#FF9700"/>
<path d="M298.037 115.599H275.644V135.28H298.037V115.599Z" fill="url(#paint0_linear_1_24913)"/>
<path d="M295.534 118.244H295.358C294.773 118.244 294.299 118.719 294.299 119.305V131.044C294.299 131.63 294.773 132.105 295.358 132.105H295.534C296.12 132.105 296.594 131.63 296.594 131.044V119.305C296.594 118.719 296.12 118.244 295.534 118.244Z" fill="#FFE559"/>
<path d="M286.84 124.627C287.536 124.627 288.1 124.061 288.1 123.364C288.1 122.666 287.536 122.101 286.84 122.101C286.143 122.101 285.579 122.666 285.579 123.364C285.579 124.061 286.143 124.627 286.84 124.627Z" fill="#F7A94A"/>
<path d="M286.84 121.826C286.536 121.826 286.24 121.916 285.987 122.085C285.735 122.254 285.538 122.494 285.422 122.775C285.306 123.056 285.276 123.365 285.335 123.663C285.394 123.961 285.539 124.235 285.754 124.45C285.968 124.666 286.241 124.812 286.539 124.872C286.836 124.932 287.145 124.902 287.425 124.787C287.706 124.671 287.946 124.474 288.115 124.222C288.285 123.97 288.376 123.673 288.377 123.369C288.377 123.167 288.337 122.966 288.26 122.779C288.183 122.592 288.07 122.422 287.927 122.278C287.785 122.135 287.615 122.021 287.429 121.944C287.242 121.866 287.042 121.826 286.84 121.826ZM286.84 124.351C286.645 124.351 286.454 124.294 286.292 124.185C286.13 124.077 286.004 123.922 285.929 123.742C285.854 123.561 285.835 123.363 285.873 123.171C285.911 122.98 286.005 122.804 286.143 122.666C286.28 122.528 286.456 122.434 286.647 122.395C286.839 122.357 287.037 122.377 287.217 122.452C287.397 122.526 287.551 122.653 287.659 122.815C287.768 122.978 287.825 123.169 287.825 123.364C287.825 123.626 287.721 123.877 287.536 124.062C287.352 124.247 287.101 124.351 286.84 124.351Z" fill="#F7A94A"/>
<path d="M286.84 123.089C286.767 123.089 286.697 123.118 286.645 123.17C286.594 123.221 286.565 123.291 286.565 123.364V128.778C286.565 128.851 286.594 128.921 286.645 128.972C286.697 129.024 286.767 129.053 286.84 129.053C286.913 129.053 286.983 129.024 287.034 128.972C287.086 128.921 287.115 128.851 287.115 128.778V123.369C287.115 123.333 287.109 123.296 287.095 123.262C287.082 123.228 287.062 123.197 287.036 123.171C287.01 123.145 286.98 123.124 286.946 123.11C286.912 123.096 286.876 123.089 286.84 123.089Z" fill="#F7A94A"/>
<path d="M313.707 163.598H259.971V175.135H313.707V163.598Z" fill="#FFFFF4"/>
<path d="M295.447 184.704H278.234V188.4H295.447V184.704Z" fill="#743FCB"/>
<path d="M267.51 167.587C267.134 167.587 266.767 167.699 266.454 167.908C266.142 168.117 265.898 168.414 265.754 168.762C265.61 169.11 265.573 169.493 265.646 169.862C265.719 170.231 265.9 170.571 266.166 170.837C266.432 171.103 266.771 171.285 267.139 171.358C267.508 171.431 267.89 171.394 268.237 171.25C268.585 171.106 268.882 170.862 269.09 170.548C269.299 170.235 269.411 169.867 269.411 169.491C269.411 168.986 269.211 168.502 268.854 168.145C268.498 167.788 268.014 167.587 267.51 167.587Z" fill="#743FCB"/>
<path d="M276.691 167.587C276.316 167.587 275.948 167.699 275.636 167.908C275.323 168.117 275.079 168.414 274.936 168.762C274.792 169.11 274.754 169.493 274.827 169.862C274.901 170.231 275.082 170.571 275.348 170.837C275.613 171.103 275.952 171.285 276.321 171.358C276.689 171.431 277.072 171.394 277.419 171.25C277.766 171.106 278.063 170.862 278.272 170.548C278.481 170.235 278.592 169.867 278.592 169.491C278.592 168.986 278.392 168.502 278.035 168.145C277.679 167.788 277.196 167.587 276.691 167.587Z" fill="#743FCB"/>
<path d="M285.873 167.587C285.497 167.587 285.129 167.699 284.817 167.908C284.504 168.117 284.261 168.414 284.117 168.762C283.973 169.11 283.935 169.493 284.009 169.862C284.082 170.231 284.263 170.571 284.529 170.837C284.795 171.103 285.133 171.285 285.502 171.358C285.871 171.431 286.253 171.394 286.6 171.25C286.947 171.106 287.244 170.862 287.453 170.548C287.662 170.235 287.773 169.867 287.773 169.491C287.773 168.986 287.573 168.502 287.217 168.145C286.86 167.788 286.377 167.587 285.873 167.587Z" fill="#743FCB"/>
<path d="M295.053 167.587C294.677 167.587 294.31 167.699 293.997 167.908C293.685 168.117 293.441 168.414 293.297 168.762C293.153 169.11 293.116 169.493 293.189 169.862C293.262 170.231 293.443 170.571 293.709 170.837C293.975 171.103 294.314 171.285 294.682 171.358C295.051 171.431 295.433 171.394 295.78 171.25C296.128 171.106 296.424 170.862 296.633 170.548C296.842 170.235 296.954 169.867 296.954 169.491C296.954 168.986 296.753 168.502 296.397 168.145C296.041 167.788 295.557 167.587 295.053 167.587Z" fill="#743FCB"/>
<path d="M304.229 167.587C303.853 167.587 303.486 167.699 303.173 167.908C302.861 168.117 302.617 168.414 302.473 168.762C302.329 169.11 302.292 169.493 302.365 169.862C302.438 170.231 302.619 170.571 302.885 170.837C303.151 171.103 303.49 171.285 303.858 171.358C304.227 171.431 304.609 171.394 304.957 171.25C305.304 171.106 305.601 170.862 305.81 170.548C306.018 170.235 306.13 169.867 306.13 169.491C306.13 168.986 305.93 168.502 305.573 168.145C305.217 167.788 304.733 167.587 304.229 167.587Z" fill="#743FCB"/>
<path d="M209.693 190.33C207.691 188.977 204.316 190.483 202.042 193.681C200.529 190.67 198.241 188.751 195.675 188.751C194.289 188.751 192.983 189.318 191.836 190.312C191.799 190.164 191.778 190.018 191.735 189.869C190.587 185.962 187.729 183.364 185.349 184.066C182.97 184.768 181.97 188.508 183.118 192.409C184.005 195.417 185.906 197.643 187.814 198.189C187.555 199.541 187.425 200.915 187.426 202.292C187.426 209.771 191.12 215.833 195.675 215.833C200.093 215.833 203.689 210.121 203.903 202.962C205.723 202.649 207.783 201.21 209.301 198.958C211.573 195.588 211.749 191.72 209.693 190.33Z" fill="#556318"/>
<path d="M185.192 191.248L178.465 190.232C178.378 190.22 178.289 190.243 178.217 190.295C178.146 190.348 178.099 190.427 178.085 190.514C178.078 190.558 178.08 190.602 178.091 190.645C178.102 190.688 178.12 190.728 178.147 190.763C178.173 190.799 178.206 190.828 178.243 190.851C178.281 190.874 178.323 190.889 178.366 190.895L185.092 191.91C185.109 191.912 185.126 191.912 185.143 191.91C185.227 191.91 185.308 191.878 185.37 191.82C185.431 191.763 185.469 191.684 185.475 191.6C185.482 191.516 185.456 191.432 185.403 191.366C185.351 191.3 185.275 191.257 185.192 191.244V191.248Z" fill="#9E9EF0"/>
<path d="M190.714 181.119C190.676 181.097 190.635 181.082 190.591 181.075C190.548 181.069 190.503 181.071 190.461 181.082C190.418 181.093 190.378 181.112 190.343 181.139C190.307 181.165 190.278 181.198 190.255 181.236L187.773 185.425C187.749 185.463 187.733 185.505 187.725 185.549C187.718 185.594 187.719 185.639 187.73 185.683C187.74 185.726 187.759 185.767 187.786 185.804C187.812 185.84 187.846 185.87 187.885 185.893C187.923 185.916 187.966 185.931 188.011 185.937C188.055 185.943 188.1 185.94 188.143 185.928C188.187 185.916 188.227 185.896 188.262 185.868C188.298 185.84 188.327 185.805 188.348 185.766L190.831 181.578C190.876 181.501 190.889 181.41 190.867 181.324C190.845 181.239 190.79 181.165 190.714 181.119Z" fill="#9E9EF0"/>
<path d="M205.379 187.773C205.348 187.69 205.285 187.622 205.204 187.586C205.123 187.55 205.03 187.547 204.947 187.579C204.864 187.61 204.797 187.674 204.761 187.755C204.725 187.836 204.722 187.928 204.754 188.011L206.147 191.692C206.172 191.756 206.215 191.81 206.27 191.849C206.326 191.887 206.392 191.908 206.46 191.908C206.501 191.908 206.541 191.901 206.579 191.886C206.662 191.855 206.73 191.791 206.766 191.71C206.803 191.629 206.806 191.537 206.775 191.454L205.379 187.773Z" fill="#9E9EF0"/>
<path d="M194.028 196.066C193.967 196.01 193.888 195.978 193.806 195.977C193.724 195.975 193.644 196.004 193.582 196.057C193.519 196.111 193.479 196.185 193.467 196.267C193.456 196.348 193.475 196.431 193.521 196.5L196.634 200.188C196.665 200.225 196.704 200.254 196.748 200.275C196.792 200.295 196.839 200.306 196.887 200.306C196.967 200.306 197.043 200.278 197.104 200.227C197.172 200.17 197.214 200.087 197.221 199.999C197.228 199.91 197.2 199.822 197.143 199.754L194.028 196.066Z" fill="#9E9EF0"/>
<path d="M188.015 203.298L183.2 203.959C183.115 203.97 183.038 204.012 182.983 204.078C182.929 204.144 182.902 204.229 182.907 204.314C182.913 204.399 182.951 204.48 183.014 204.538C183.077 204.596 183.159 204.628 183.245 204.627H183.29L188.105 203.966C188.15 203.961 188.193 203.947 188.232 203.925C188.271 203.904 188.305 203.874 188.333 203.839C188.36 203.804 188.381 203.763 188.392 203.72C188.404 203.677 188.407 203.632 188.401 203.587C188.395 203.543 188.38 203.5 188.357 203.462C188.334 203.423 188.304 203.39 188.268 203.363C188.232 203.336 188.191 203.317 188.148 203.307C188.104 203.296 188.059 203.295 188.015 203.302V203.298Z" fill="#9E9EF0"/>
<path d="M205.129 210.827L200.433 209.938C200.389 209.928 200.343 209.926 200.298 209.934C200.254 209.942 200.211 209.959 200.173 209.983C200.135 210.008 200.102 210.04 200.077 210.077C200.052 210.115 200.034 210.157 200.026 210.202C200.017 210.247 200.018 210.292 200.027 210.337C200.037 210.381 200.055 210.423 200.082 210.46C200.108 210.497 200.141 210.528 200.18 210.552C200.218 210.576 200.261 210.592 200.306 210.598L205.002 211.487C205.023 211.489 205.043 211.489 205.064 211.487C205.148 211.488 205.229 211.457 205.292 211.401C205.354 211.344 205.393 211.267 205.401 211.183C205.409 211.099 205.385 211.015 205.334 210.948C205.283 210.881 205.209 210.836 205.126 210.822L205.129 210.827Z" fill="#9E9EF0"/>
<path d="M210.566 200.38L207.55 198.06C207.515 198.03 207.475 198.008 207.431 197.994C207.388 197.981 207.342 197.976 207.297 197.981C207.251 197.986 207.207 198 207.168 198.022C207.128 198.044 207.093 198.074 207.065 198.111C207.037 198.147 207.017 198.189 207.006 198.233C206.995 198.277 206.993 198.323 207 198.368C207.007 198.413 207.024 198.457 207.048 198.495C207.072 198.534 207.104 198.567 207.142 198.593L210.153 200.912C210.187 200.939 210.227 200.959 210.269 200.97C210.312 200.982 210.356 200.985 210.4 200.979C210.443 200.973 210.485 200.959 210.523 200.937C210.561 200.915 210.595 200.886 210.621 200.851C210.676 200.781 210.701 200.692 210.691 200.604C210.68 200.516 210.635 200.435 210.566 200.38Z" fill="#9E9EF0"/>
<path d="M212.878 190.282L210.178 192.059C210.118 192.099 210.072 192.157 210.048 192.225C210.023 192.293 210.021 192.366 210.041 192.436C210.062 192.505 210.104 192.565 210.162 192.609C210.22 192.652 210.29 192.675 210.362 192.676C210.427 192.676 210.491 192.656 210.545 192.62L213.246 190.843C213.32 190.794 213.372 190.718 213.39 190.631C213.408 190.544 213.391 190.453 213.342 190.378C213.293 190.304 213.217 190.252 213.13 190.234C213.043 190.216 212.952 190.233 212.878 190.282Z" fill="#9E9EF0"/>
<path d="M194.043 204.054L191.509 206.592C191.446 206.655 191.41 206.74 191.41 206.829C191.41 206.918 191.445 207.004 191.508 207.066C191.571 207.129 191.656 207.165 191.744 207.165C191.833 207.165 191.918 207.13 191.981 207.067L194.515 204.529C194.574 204.465 194.605 204.381 194.603 204.295C194.601 204.209 194.566 204.126 194.505 204.065C194.444 204.004 194.362 203.969 194.276 203.967C194.19 203.965 194.106 203.997 194.043 204.055V204.054Z" fill="#9E9EF0"/>
<path d="M190.444 210.836L186.312 212.105C186.236 212.129 186.171 212.179 186.128 212.247C186.086 212.315 186.069 212.396 186.081 212.475C186.093 212.554 186.133 212.626 186.193 212.679C186.254 212.731 186.331 212.76 186.411 212.76C186.444 212.76 186.477 212.755 186.509 212.745L190.641 211.475C190.688 211.467 190.732 211.449 190.772 211.423C190.811 211.396 190.844 211.361 190.869 211.32C190.894 211.28 190.91 211.234 190.916 211.187C190.922 211.14 190.918 211.091 190.904 211.046C190.89 211 190.866 210.958 190.834 210.923C190.803 210.887 190.764 210.858 190.72 210.839C190.677 210.82 190.63 210.81 190.582 210.81C190.534 210.81 190.487 210.821 190.444 210.841V210.836Z" fill="#9E9EF0"/>
<path d="M211.856 213.738H180.638V217.4H211.856V213.738Z" fill="#E2793E"/>
<path d="M206.801 217.4H185.693V232.871H206.801V217.4Z" fill="#CC5E32"/>
<path d="M185.693 222.701L206.801 217.4H185.693V222.701Z" fill="#560000"/>
<path d="M359.524 328.575V325.873L359.557 280.044H336.318L347.057 325.873V329.426L333.753 334.513C332.345 335.051 331.199 336.113 330.554 337.477C330.391 337.822 330.318 338.203 330.341 338.585C330.364 338.966 330.483 339.335 330.687 339.658C330.891 339.981 331.173 340.247 331.507 340.431C331.842 340.616 332.217 340.712 332.598 340.712H355.191C356.063 340.713 356.925 340.515 357.71 340.132C358.495 339.749 359.182 339.192 359.72 338.503C360.257 337.814 360.631 337.011 360.812 336.156C360.993 335.3 360.977 334.415 360.766 333.567L359.524 328.575Z" fill="#FF7951"/>
<path d="M296.5 198.901L312.335 214.763L322.664 210.002L306.831 194.14L296.5 198.901Z" fill="#666800"/>
<path d="M298.929 197.632L314.764 213.494L325.095 208.733L309.26 192.871L298.929 197.632Z" fill="#FFE3C2"/>
<path d="M314.764 213.494L325.095 208.733L309.26 192.871L314.764 213.494Z" fill="#FFFFF4"/>
<path d="M380.119 129.23L354.28 137.629L353.64 147.43L352.589 148.953C352.173 149.555 351.98 150.285 352.046 151.015C352.111 151.744 352.431 152.428 352.948 152.946L354.625 154.627L356.791 159.816C357.318 161.079 358.205 162.157 359.342 162.915C360.479 163.674 361.815 164.078 363.181 164.078H368.006L369.696 169.721L385.33 165.066L384.063 155.049L380.119 129.23Z" fill="#FF9A74"/>
<path d="M389.289 137.331C388.373 132.118 385.543 127.438 381.355 124.212L378.707 122.171C377.392 121.159 375.854 120.479 374.222 120.19C372.589 119.9 370.911 120.009 369.33 120.507L358.855 123.807C356.783 124.46 355.004 125.818 353.827 127.646C353.673 127.888 353.53 128.133 353.4 128.384C350.945 133.089 353.48 138.901 358.442 140.77L360.19 141.429L360.34 147.554C360.347 147.853 360.423 148.145 360.562 148.409C360.701 148.673 360.899 148.902 361.141 149.076C361.383 149.25 361.662 149.366 361.956 149.414C362.25 149.463 362.551 149.442 362.836 149.354L364.737 148.769H368.024C368.756 148.768 369.481 148.915 370.155 149.199C370.83 149.484 371.441 149.901 371.952 150.427L378.184 156.837C378.703 157.279 379.313 157.599 379.971 157.775C380.628 157.95 381.317 157.977 381.986 157.853C382.719 157.716 383.409 157.401 383.993 156.937C384.578 156.472 385.041 155.872 385.341 155.187L387.826 149.527C389.505 145.695 390.015 141.452 389.289 137.331Z" fill="#7E1518"/>
<path d="M369.582 162.866L368.007 164.077L369.519 167.604L370.7 163.637C370.743 163.492 370.739 163.338 370.688 163.196C370.638 163.053 370.544 162.931 370.42 162.845C370.296 162.76 370.148 162.716 369.998 162.719C369.847 162.723 369.702 162.775 369.582 162.866Z" fill="#FAD189"/>
<path d="M317.369 259.583C313.353 260.767 309.941 263.444 307.833 267.067C305.724 270.689 305.078 274.982 306.027 279.066L316.6 320.813C317.629 324.876 318.149 329.051 318.15 333.243V333.654L303.275 339.343C302.798 339.526 302.387 339.849 302.097 340.271C301.807 340.693 301.652 341.193 301.652 341.705C301.654 342.562 301.995 343.384 302.601 343.99C303.206 344.596 304.026 344.938 304.882 344.94H326.288C327.161 344.941 328.023 344.742 328.808 344.359C329.592 343.976 330.28 343.419 330.817 342.73C331.355 342.041 331.728 341.238 331.91 340.382C332.091 339.527 332.075 338.641 331.863 337.793L330.619 332.808V328.2L330.831 280.044H369.85C376.49 280.044 382.969 277.991 388.401 274.164L399.805 266.127L357.129 247.864L317.369 259.583Z" fill="#FF9A74"/>
<path d="M334.721 254.468L348.785 280.044H369.847C371.855 280.037 373.858 279.841 375.83 279.459C378.077 277.152 386.508 268.473 391.894 262.741L357.129 247.864L334.721 254.468Z" fill="#7E1518"/>
<path d="M387.864 274.534L399.802 266.123L357.127 247.86C357.127 247.86 360.397 272.843 387.864 274.534Z" fill="#310000"/>
<path d="M328.783 280.774L323.924 282.043C323.792 282.078 323.678 282.158 323.602 282.271C323.525 282.384 323.493 282.52 323.51 282.655C323.527 282.79 323.593 282.914 323.695 283.004C323.797 283.094 323.929 283.143 324.064 283.143C324.112 283.143 324.159 283.136 324.205 283.124L329.064 281.854C329.137 281.838 329.206 281.807 329.267 281.763C329.328 281.72 329.379 281.664 329.418 281.6C329.457 281.536 329.483 281.465 329.494 281.391C329.505 281.317 329.501 281.241 329.482 281.168C329.463 281.096 329.429 281.028 329.384 280.969C329.338 280.909 329.281 280.86 329.216 280.823C329.151 280.786 329.079 280.763 329.004 280.754C328.93 280.746 328.855 280.753 328.783 280.774Z" fill="#FAD189"/>
<path d="M336.183 280.044L359.812 293.951L359.421 280.044H336.183Z" fill="#7E1518"/>
<path d="M422.724 280.044H338.853V284.065H422.724V280.044Z" fill="#FAD189"/>
<path d="M407.774 200.22C406.811 190.513 403.982 181.083 399.445 172.452L398.149 169.984C397.36 168.485 396.236 167.188 394.865 166.196C393.493 165.203 391.911 164.542 390.242 164.264C384.185 163.252 377.965 164.004 372.322 166.43C365.267 169.463 359.533 174.93 356.16 181.838L342.369 210.069L360.763 223.613C363.159 226.515 364.441 230.18 364.376 233.945C364.311 237.711 362.905 241.329 360.411 244.147L357.116 247.864C356.847 251.291 358.153 252.152 360.791 254.359L366.517 259.16C371.378 263.236 377.225 265.955 383.469 267.046C389.714 268.136 396.135 267.559 402.086 265.372L407.661 216.239C408.264 210.918 408.302 205.548 407.772 200.22H407.774Z" fill="#F23E6E"/>
<path d="M388.041 209.503C382.601 219.653 378.711 230.563 376.502 241.868C375.414 247.422 374.737 253.049 374.474 258.702L373.492 280.049H419.129L420.355 263.947C420.665 259.87 421.237 255.818 422.069 251.815L424.864 238.377C426.388 231.05 428.773 223.93 431.969 217.165L442.791 194.265H396.209L388.041 209.503Z" fill="#FAD189"/>
<path d="M391.636 209.503C386.195 219.653 382.305 230.563 380.095 241.868C379.009 247.422 378.334 253.049 378.074 258.702L377.087 280.044H422.72L423.944 263.942C424.255 259.868 424.828 255.818 425.66 251.818L428.454 238.379C429.979 231.051 432.365 223.931 435.564 217.165L446.384 194.265H399.802L391.636 209.503Z" fill="#FAC585"/>
<path d="M373.498 302.898H388.007L392.231 284.065H368.683L373.498 302.898Z" fill="#FAD189"/>
<path d="M380.788 302.898H378.465V335.346H380.788V302.898Z" fill="#F7A94A"/>
<path d="M379.837 335.347C374.628 335.347 369.559 337.04 365.392 340.17L363.082 341.905H396.533L394.59 340.408C390.368 337.129 385.179 335.348 379.837 335.347Z" fill="#F7A94A"/>
<path d="M336.74 220.367L322.911 214.827C319.186 213.336 315.103 212.983 311.178 213.812L309.797 210.41C309.464 209.591 308.875 208.902 308.117 208.447C307.36 207.992 306.476 207.796 305.598 207.887V204.802C305.597 204.505 305.497 204.216 305.313 203.983C305.129 203.75 304.872 203.586 304.584 203.517L304.139 203.411C303.945 203.364 303.744 203.362 303.549 203.405C303.354 203.447 303.172 203.534 303.015 203.658C302.859 203.781 302.732 203.939 302.645 204.119C302.559 204.298 302.513 204.495 302.514 204.695V208.946L321.104 232.329H350.259L357.862 221.477L342.369 210.069L336.74 220.367Z" fill="#FF7951"/>
<path d="M337.118 219.957C337.009 219.857 336.865 219.803 336.717 219.809C336.569 219.814 336.429 219.878 336.328 219.987C336.227 220.096 336.174 220.241 336.179 220.389C336.185 220.538 336.249 220.678 336.358 220.779L339.034 223.249C339.088 223.299 339.151 223.337 339.22 223.363C339.289 223.389 339.362 223.4 339.435 223.397C339.509 223.395 339.581 223.377 339.648 223.347C339.714 223.316 339.774 223.272 339.824 223.218C339.874 223.164 339.913 223.101 339.939 223.032C339.964 222.963 339.976 222.889 339.973 222.816C339.97 222.742 339.953 222.67 339.922 222.603C339.891 222.536 339.848 222.476 339.794 222.426L337.118 219.957Z" fill="#FAD189"/>
<path d="M341.545 211.585L354.349 226.487L357.86 221.472L342.374 210.069L341.545 211.585Z" fill="#FAD189"/>
<path d="M356.621 140.309C355.118 139.936 353.878 140.731 353.826 140.765C353.779 140.795 353.738 140.833 353.705 140.879C353.673 140.924 353.65 140.975 353.638 141.03C353.626 141.084 353.625 141.141 353.635 141.195C353.645 141.25 353.666 141.303 353.696 141.349C353.727 141.396 353.766 141.436 353.812 141.467C353.858 141.499 353.91 141.521 353.964 141.531C354.019 141.542 354.075 141.542 354.13 141.531C354.184 141.52 354.236 141.498 354.282 141.467C354.291 141.467 355.268 140.832 356.42 141.122C357.275 141.335 358.02 141.999 358.631 143.098C358.667 143.163 358.72 143.217 358.785 143.255C358.849 143.293 358.922 143.312 358.997 143.312C359.068 143.313 359.138 143.294 359.2 143.259C359.248 143.232 359.29 143.196 359.324 143.153C359.358 143.11 359.384 143.061 359.399 143.008C359.414 142.955 359.418 142.9 359.412 142.845C359.406 142.79 359.389 142.737 359.362 142.689C358.633 141.381 357.711 140.58 356.621 140.309Z" fill="#BB3618"/>
<path d="M356.036 143.621C355.607 143.621 355.261 144.347 355.261 145.243C355.261 146.139 355.607 146.865 356.036 146.865C356.464 146.865 356.81 146.139 356.81 145.243C356.81 144.347 356.464 143.621 356.036 143.621Z" fill="#7E1518"/>
<path d="M355.359 144.468L356.036 143.621L353.221 142.894L355.359 144.468Z" fill="#7E1518"/>
<path d="M379.626 143.621C387.318 143.621 393.553 137.978 393.553 131.016C393.553 124.055 387.318 118.412 379.626 118.412C371.935 118.412 365.7 124.055 365.7 131.016C365.7 137.978 371.935 143.621 379.626 143.621Z" fill="#7E1518"/>
<path d="M390.214 159.639C399.447 159.639 406.931 152.142 406.931 142.894C406.931 133.646 399.447 126.149 390.214 126.149C380.982 126.149 373.497 133.646 373.497 142.894C373.497 152.142 380.982 159.639 390.214 159.639Z" fill="#7E1518"/>
<path d="M386.836 177.111C396.069 177.111 403.553 169.614 403.553 160.366C403.553 151.118 396.069 143.621 386.836 143.621C377.604 143.621 370.119 151.118 370.119 160.366C370.119 169.614 377.604 177.111 386.836 177.111Z" fill="#7E1518"/>
<path d="M411.623 172.712C418.151 166.173 418.151 155.57 411.623 149.031C405.095 142.492 394.51 142.492 387.982 149.031C381.453 155.57 381.453 166.173 387.982 172.712C394.51 179.251 405.095 179.251 411.623 172.712Z" fill="#7E1518"/>
<path d="M408.163 181.56C414.691 175.021 414.691 164.419 408.163 157.879C401.635 151.34 391.05 151.34 384.522 157.879C377.994 164.419 377.994 175.021 384.522 181.56C391.05 188.1 401.635 188.1 408.163 181.56Z" fill="#7E1518"/>
<path d="M369.803 167.65C363.884 170.831 359.112 175.794 356.16 181.838L354.629 184.973L374.277 192.55C374.277 192.55 381.11 169.101 369.803 167.65Z" fill="#F23E6E"/>
<path d="M364.362 233.185L368.683 227.682L360.768 223.613L364.362 233.185Z" fill="#C20900"/>
<path d="M374.731 197.074L368.156 221.467L369.232 221.758L375.808 197.365L374.731 197.074Z" fill="#C20900"/>
<path d="M379.166 203.816L373.037 212.859L373.96 213.486L380.088 204.444L379.166 203.816Z" fill="#C20900"/>
<path d="M341.545 280.045H348.783L334.721 254.468L341.545 280.045Z" fill="#7E1518"/>
<path d="M369.647 148.719C370.515 146.341 370.024 143.976 368.551 143.436C367.077 142.896 365.179 144.386 364.311 146.764C363.443 149.142 363.933 151.507 365.407 152.047C366.88 152.587 368.779 151.097 369.647 148.719Z" fill="#FF9A74"/>
<path d="M368.019 146.088C367.959 146.054 367.893 146.033 367.825 146.024C367.757 146.016 367.688 146.021 367.621 146.04C367.555 146.059 367.494 146.09 367.44 146.133C367.386 146.176 367.341 146.229 367.308 146.289L365.359 149.78C365.292 149.902 365.275 150.044 365.312 150.178C365.35 150.311 365.439 150.424 365.559 150.493C365.637 150.535 365.724 150.558 365.813 150.559C365.906 150.558 365.997 150.534 366.077 150.487C366.157 150.439 366.223 150.372 366.269 150.291L368.219 146.8C368.252 146.74 368.274 146.674 368.282 146.606C368.29 146.538 368.285 146.469 368.266 146.403C368.247 146.337 368.216 146.275 368.174 146.221C368.131 146.167 368.078 146.122 368.019 146.088Z" fill="#FAD189"/>
<path d="M422.724 280.044L423.948 263.942C424.258 259.868 424.831 255.818 425.664 251.818L428.458 238.379C429.981 231.052 432.367 223.931 435.564 217.165L446.386 194.265L377.087 280.044H422.724Z" fill="#FAD189"/>
<path d="M375.171 119.885L375.347 120.988C375.463 120.969 387.005 119.23 389.682 127.653L390.745 127.315C387.778 117.973 375.296 119.865 375.171 119.885Z" fill="#7E1518"/>
<path d="M394.344 129.089C394.09 128.998 393.812 128.896 393.743 128.855C393.79 128.889 393.829 128.932 393.859 128.982C393.89 129.032 393.909 129.087 393.918 129.144L392.904 129.318C392.968 129.686 393.248 129.787 393.995 130.058C396.559 130.985 404.358 133.808 403.042 144.488L404.064 144.615C404.665 139.728 403.536 135.784 400.707 132.894C398.429 130.566 395.67 129.568 394.344 129.089Z" fill="#7E1518"/>
<defs>
<linearGradient id="paint0_linear_1_24913" x1="286.84" y1="115.599" x2="286.84" y2="135.28" gradientUnits="userSpaceOnUse">
<stop stop-color="#FAC586"/>
<stop offset="1" stop-color="#FCE1C0"/>
</linearGradient>
</defs>
</svg>
