<svg width="34" height="32" viewBox="0 0 34 32" fill="none" xmlns="http://www.w3.org/2000/svg">
<g id="Group 294">
<path id="Vector 16" d="M16.3975 1.05058C10.9246 1.31659 8.84204 6.53707 8.48487 9.11405C5.18795 8.64853 2.82513 10.8598 2.05584 12.0236C0.143614 15.1492 1.25908 18.0919 2.05584 19.1726C3.37461 21.5002 7.38589 22.0267 9.22668 21.999H22.9914H28.0192C31.3821 21.6665 32.7174 18.8124 32.9646 17.4269C33.4262 12.6387 29.2556 11.2754 27.1126 11.1923C27.2444 8.59865 26.2883 6.3431 25.7938 5.53952C23.4859 1.34984 18.568 0.801193 16.3975 1.05058Z" stroke="#743FCB" stroke-width="1.5"/>
<g id="Group 24">
<path id="Vector" d="M24.683 16.8774H9.317C7.48507 16.8774 6 18.3132 6 20.0844V27.8452C6 29.6163 7.48507 31.0521 9.317 31.0521H24.683C26.5149 31.0521 28 29.6163 28 27.8452V20.0844C28 18.3132 26.5149 16.8774 24.683 16.8774Z" stroke="#743FCB" stroke-width="1.5" stroke-linecap="round" stroke-linejoin="round"/>
<path id="Vector_2" d="M23.1986 13.2054C23.1986 11.5596 22.5224 9.98127 21.3187 8.81752C20.115 7.65378 18.4825 7 16.7802 7C15.0779 7 13.4454 7.65378 12.2417 8.81752C11.038 9.98127 10.3618 11.5596 10.3618 13.2054V15.2739" stroke="#743FCB" stroke-width="1.5" stroke-linecap="round" stroke-linejoin="round"/>
</g>
</g>
</svg>
